{"glyphs":{"0":{"ha":749,"x_min":32,"x_max":710,"o":"m 171 976 q 153 974 163 971 q 150 986 143 978 q 188 1025 167 1011 q 249 1056 217 1043 q 315 1072 282 1068 q 440 1069 376 1079 q 554 1026 503 1058 q 565 1017 557 1024 q 576 1008 574 1011 q 574 990 582 997 q 556 990 565 983 q 533 1003 544 997 q 511 1017 522 1010 q 485 1027 499 1024 q 456 1033 471 1031 q 367 1045 413 1044 q 278 1035 322 1046 q 231 1018 254 1028 q 189 993 208 1008 q 179 985 186 990 q 171 976 172 979 m 446 85 q 297 89 375 69 q 165 157 219 108 q 95 245 124 194 q 54 351 67 296 q 42 537 32 440 q 90 717 51 633 q 127 783 106 751 q 176 842 149 815 q 281 900 222 885 q 297 906 289 903 q 314 911 306 908 q 411 919 363 924 q 505 899 458 917 q 586 850 551 882 q 652 763 626 814 q 693 660 678 713 q 708 566 706 614 q 707 469 710 518 q 695 376 704 422 q 668 285 686 329 q 576 154 636 210 q 446 85 519 100 m 386 239 q 435 226 410 222 q 474 246 457 231 q 501 281 489 261 q 521 319 513 300 q 544 403 538 360 q 553 489 550 446 q 552 581 554 535 q 538 671 550 626 q 528 699 535 682 q 511 731 521 715 q 490 760 501 747 q 468 776 479 772 q 417 772 442 785 q 393 754 403 765 q 374 732 383 743 q 344 674 354 706 q 329 611 335 643 q 322 529 322 571 q 324 447 321 488 q 328 378 325 413 q 343 311 332 344 q 360 272 350 292 q 386 239 369 253 m 401 -36 q 331 -36 367 -39 q 263 -19 294 -33 q 233 -8 247 -14 q 206 10 218 -1 q 203 13 204 11 q 201 18 203 15 q 197 22 200 19 q 192 26 193 25 q 192 38 188 33 q 203 40 196 43 q 209 35 206 38 q 215 31 213 32 q 223 28 219 31 q 231 22 226 25 q 318 -7 269 -1 q 411 -4 367 -12 q 476 19 444 3 q 536 54 508 35 q 550 64 539 57 q 565 72 561 71 q 583 65 576 75 q 579 47 589 56 q 496 -8 542 15 q 401 -36 450 -32 z "},"1":{"ha":535,"x_min":7,"x_max":499,"o":"m 494 788 q 483 777 492 778 q 472 786 474 776 q 470 797 471 789 q 469 807 469 804 q 472 854 471 825 q 472 913 474 883 q 463 969 469 943 q 442 1006 457 994 q 410 1021 428 1017 q 374 1026 392 1025 q 242 1021 304 1033 q 221 1026 231 1019 q 221 1039 211 1032 q 252 1048 231 1044 q 298 1053 274 1051 q 344 1053 322 1054 q 378 1051 365 1053 q 420 1044 399 1050 q 458 1025 442 1039 q 482 996 474 1014 q 493 958 490 978 q 498 883 499 921 q 496 807 497 844 q 495 797 496 804 q 494 788 494 790 m 385 63 q 348 53 371 57 q 300 47 325 49 q 252 47 275 46 q 215 56 229 49 q 178 99 190 68 q 160 169 165 131 q 156 247 156 207 q 158 314 157 286 q 172 514 161 414 q 193 714 182 614 q 194 731 193 718 q 197 756 196 743 q 200 782 199 769 q 203 799 201 794 q 174 798 194 799 q 131 796 154 797 q 88 794 108 794 q 61 796 68 794 q 33 807 46 799 q 14 828 21 815 q 8 870 7 844 q 19 910 8 896 q 45 926 31 921 q 75 933 60 931 q 126 942 89 936 q 204 955 163 949 q 283 965 246 961 q 335 968 319 969 q 363 965 349 967 q 386 954 376 964 q 405 926 400 943 q 413 892 410 908 q 418 778 419 835 q 415 664 417 722 q 415 626 415 653 q 415 566 415 600 q 415 493 415 532 q 415 420 415 454 q 416 360 415 386 q 417 322 417 333 q 418 285 417 313 q 422 227 419 258 q 424 169 424 196 q 425 133 425 142 q 415 89 425 108 q 385 63 404 71 z "},"2":{"ha":836,"x_min":38,"x_max":811,"o":"m 811 721 q 799 703 811 707 q 783 713 786 700 q 781 723 781 718 q 782 733 782 728 q 781 758 783 740 q 778 782 779 776 q 749 874 769 829 q 696 951 729 919 q 628 1002 665 982 q 550 1036 590 1022 q 536 1040 546 1038 q 516 1046 526 1043 q 497 1050 506 1049 q 483 1051 488 1051 q 472 1058 474 1050 q 479 1068 469 1065 q 535 1065 507 1071 q 590 1047 564 1058 q 660 1013 626 1033 q 722 964 694 992 q 755 922 742 944 q 779 876 768 900 q 811 721 811 801 m 410 61 q 297 57 353 60 q 183 57 240 54 q 138 62 161 58 q 99 79 115 65 q 78 107 85 90 q 71 140 72 124 q 69 174 68 157 q 78 207 69 192 q 97 231 85 221 q 119 253 108 242 q 202 321 160 288 q 281 393 244 354 q 363 499 325 442 q 421 619 401 556 q 435 683 431 651 q 436 747 440 715 q 426 786 433 767 q 407 821 419 806 q 371 846 393 836 q 324 859 349 856 q 275 860 300 863 q 232 847 250 857 q 190 799 201 833 q 183 753 183 776 q 188 707 182 729 q 208 669 194 688 q 222 631 221 651 q 203 591 222 608 q 161 571 183 574 q 133 572 147 568 q 106 582 118 575 q 94 589 99 583 q 85 600 89 594 q 55 651 65 622 q 41 712 44 681 q 41 774 38 743 q 56 832 44 804 q 119 917 75 881 q 213 971 163 954 q 401 995 301 1000 q 586 950 501 990 q 700 828 665 913 q 719 760 713 796 q 721 689 726 724 q 696 599 714 643 q 654 515 678 556 q 577 401 619 456 q 486 297 535 346 q 471 281 482 293 q 447 255 460 268 q 422 230 433 242 q 406 214 410 218 q 458 217 421 214 q 538 221 496 219 q 615 222 579 222 q 667 217 651 222 q 690 207 679 214 q 708 189 701 200 q 720 133 724 165 q 694 82 717 100 q 651 63 675 67 q 603 60 626 60 q 506 60 554 58 q 410 61 458 63 m 353 -10 q 364 -26 367 -14 q 349 -36 361 -37 q 249 -23 299 -29 q 147 -17 199 -17 l 107 -17 q 94 -8 99 -15 q 97 1 90 -1 q 120 5 103 4 q 144 6 138 6 q 187 6 157 7 q 249 2 217 4 q 311 -3 282 0 q 353 -10 340 -7 z "},"3":{"ha":833,"x_min":18,"x_max":804,"o":"m 803 806 q 790 797 800 794 q 776 810 779 799 q 763 851 772 831 q 743 890 754 871 q 699 960 724 926 q 640 1018 674 993 q 577 1053 613 1040 q 506 1072 542 1067 q 434 1076 469 1078 q 363 1067 399 1074 q 350 1073 354 1065 q 354 1085 346 1081 q 363 1088 356 1086 q 372 1092 369 1090 q 430 1100 400 1099 q 489 1100 460 1101 q 574 1083 532 1097 q 651 1043 615 1068 q 706 993 682 1022 q 750 932 731 964 q 757 919 751 929 q 764 907 763 910 q 765 900 764 900 q 769 897 768 899 q 772 893 769 896 q 781 874 775 886 q 793 850 788 863 q 801 825 799 838 q 803 806 804 813 m 596 28 q 456 -19 529 -4 q 311 -24 383 -33 q 201 8 254 -17 q 104 68 149 32 q 85 85 97 74 q 59 111 72 97 q 35 138 46 125 q 22 160 25 151 q 21 167 21 161 q 21 175 21 174 q 18 194 18 183 q 25 211 18 204 q 62 226 38 226 q 103 214 86 225 q 163 170 135 194 q 226 135 190 146 q 278 132 254 128 q 325 154 303 138 q 363 190 347 171 q 402 285 393 231 q 396 388 411 339 q 361 440 385 419 q 304 465 338 460 q 277 468 299 467 q 250 472 256 469 q 218 502 226 479 q 215 549 210 525 q 233 586 221 568 q 265 611 246 604 q 299 615 282 617 q 333 613 317 613 q 365 615 349 613 q 396 626 382 618 q 446 678 428 643 q 465 750 464 714 q 451 804 465 782 q 403 839 435 831 q 363 841 383 844 q 324 829 342 838 q 272 798 296 817 q 225 764 249 779 q 194 747 210 754 q 161 738 179 740 q 105 751 131 733 q 82 800 79 768 q 90 826 83 814 q 104 847 96 838 q 114 856 107 850 q 129 869 121 863 q 144 882 138 876 q 154 890 151 888 q 282 953 210 935 q 425 969 354 972 q 492 958 458 967 q 557 933 526 949 q 617 892 589 918 q 664 836 644 867 q 685 799 676 818 q 697 758 694 779 q 697 702 703 731 q 675 650 690 674 q 624 592 654 618 q 557 549 593 565 q 617 524 589 540 q 669 485 646 508 q 726 401 704 449 q 751 304 747 353 q 749 220 757 263 q 722 142 742 178 q 668 76 703 104 q 596 28 633 47 z "},"4":{"ha":779,"x_min":42,"x_max":725,"o":"m 661 68 q 597 49 631 54 q 531 47 564 44 q 497 53 514 49 q 465 68 479 57 q 440 106 447 82 q 436 148 438 118 q 435 211 435 178 q 435 274 435 244 q 436 317 436 304 q 338 297 388 303 q 236 290 288 290 q 176 293 207 289 q 119 313 146 297 q 79 351 96 326 q 56 403 63 375 q 46 503 42 451 q 49 604 50 554 q 48 621 49 607 q 47 638 47 635 q 48 701 47 657 q 51 795 49 746 q 57 888 53 844 q 67 950 61 932 q 88 979 72 967 q 108 990 97 986 q 129 996 118 993 q 180 1001 154 1000 q 232 1003 206 1003 q 278 997 257 1003 q 311 968 303 988 q 325 894 322 944 q 326 785 328 843 q 321 675 325 728 q 315 597 317 622 q 315 561 315 583 q 317 517 315 539 q 324 475 319 494 q 340 447 329 456 q 366 439 351 439 q 394 440 381 439 q 406 442 397 440 q 425 447 415 444 q 443 451 435 449 q 454 453 451 453 q 463 523 458 489 q 468 592 467 557 q 471 675 471 633 q 474 758 471 717 q 484 816 475 786 q 515 864 493 846 q 554 883 532 876 q 599 889 576 889 q 644 882 622 889 q 681 861 665 875 q 707 817 700 843 q 715 776 714 797 q 715 733 715 754 q 714 596 715 664 q 714 460 713 528 q 716 409 714 447 q 719 328 718 371 q 722 248 721 286 q 724 197 724 210 q 722 152 724 175 q 708 110 719 129 q 688 85 700 94 q 661 68 675 75 m 710 949 q 723 933 721 942 q 722 919 725 925 q 710 913 718 914 q 692 919 701 913 q 660 940 676 931 q 624 954 643 950 q 568 957 596 961 q 513 946 540 953 q 499 940 510 944 q 486 936 489 936 q 477 942 479 938 q 479 951 475 947 q 503 967 488 960 q 539 978 519 974 q 576 985 558 983 q 607 988 594 988 q 660 975 635 986 q 710 949 686 964 m 551 -40 q 560 -53 563 -43 q 546 -64 557 -64 q 482 -62 514 -65 q 421 -46 450 -58 q 398 -33 410 -40 q 378 -15 386 -26 q 358 22 365 1 q 349 63 351 42 q 348 80 349 68 q 350 97 347 92 q 358 101 353 101 q 365 94 364 100 q 368 72 368 88 q 381 24 369 49 q 413 -15 392 -1 q 439 -26 425 -22 q 467 -33 453 -31 q 498 -37 482 -36 q 529 -39 514 -39 q 540 -38 535 -39 q 551 -40 546 -37 z "},"5":{"ha":788,"x_min":42,"x_max":746,"o":"m 738 832 q 725 822 735 822 q 714 833 715 822 q 715 853 713 838 q 718 872 718 868 q 719 919 721 896 q 710 967 717 943 q 699 994 706 981 q 681 1018 692 1007 q 640 1041 663 1033 q 593 1051 617 1049 q 515 1056 554 1058 q 438 1053 476 1053 q 391 1054 414 1053 q 347 1063 368 1056 q 339 1078 336 1067 q 351 1083 342 1089 q 382 1078 361 1079 q 426 1077 403 1076 q 469 1079 449 1078 q 501 1081 490 1081 q 582 1080 542 1083 q 658 1061 622 1076 q 707 1023 688 1049 q 736 965 726 997 q 746 898 746 933 q 738 832 746 863 m 540 22 q 431 -4 488 3 q 319 -8 375 -11 q 197 13 258 -6 q 92 72 136 31 q 60 110 74 88 q 44 157 47 133 q 56 223 42 190 q 92 281 69 256 q 125 310 106 297 q 167 326 144 324 q 201 325 183 329 q 233 314 218 321 q 269 293 253 304 q 304 272 286 282 q 348 256 324 263 q 397 247 372 249 q 444 252 422 246 q 479 275 465 258 q 497 310 492 290 q 499 351 501 331 q 486 391 496 372 q 460 422 476 410 q 432 437 447 432 q 401 444 417 442 q 332 450 367 451 q 263 446 297 449 q 209 444 236 443 q 158 456 182 444 q 113 490 129 467 q 85 551 93 518 q 74 617 76 585 q 71 694 71 646 q 75 792 71 742 q 90 886 79 842 q 118 953 100 931 q 151 978 132 968 q 189 994 169 988 q 240 1003 214 1001 q 290 1004 265 1004 q 328 1003 300 1004 q 388 1000 357 1001 q 447 997 419 999 q 485 996 475 996 q 507 997 496 994 q 529 1000 518 999 q 558 1002 544 1003 q 586 1000 571 1001 q 603 997 594 999 q 618 992 611 996 q 640 971 632 985 q 653 940 649 957 q 656 906 657 924 q 651 874 656 888 q 631 842 644 856 q 599 822 617 828 q 550 819 575 817 q 501 824 525 821 q 442 833 471 828 q 383 842 413 839 q 358 844 371 844 q 332 843 344 844 q 290 821 308 840 q 278 797 282 810 q 272 769 275 783 q 269 724 269 746 q 271 679 269 701 q 274 649 272 664 q 281 621 276 635 q 440 644 360 649 q 493 640 467 643 q 543 626 519 636 q 626 572 589 607 q 692 496 664 538 q 723 422 714 463 q 733 340 732 381 q 732 290 735 315 q 724 240 729 265 q 693 153 714 196 q 638 81 672 110 q 540 22 594 44 z "},"6":{"ha":808,"x_min":38,"x_max":775,"o":"m 456 53 q 355 49 406 49 q 254 58 304 49 q 190 75 222 64 q 132 107 157 86 q 98 145 113 124 q 72 190 83 167 q 43 299 49 242 q 40 411 38 356 q 59 559 43 486 q 107 699 75 632 q 192 835 142 772 q 301 954 243 899 q 331 980 313 964 q 372 1010 350 996 q 415 1035 394 1025 q 451 1043 436 1044 q 490 1027 469 1040 q 529 995 510 1014 q 565 956 549 976 q 589 918 581 935 q 599 891 596 907 q 590 867 601 875 q 543 827 574 854 q 481 769 513 800 q 423 709 449 739 q 390 660 397 679 q 476 676 432 671 q 561 674 519 681 q 655 642 610 667 q 728 578 700 618 q 760 495 753 542 q 765 404 767 449 q 757 312 765 358 q 731 222 749 265 q 678 142 713 178 q 599 86 643 106 q 528 64 565 71 q 456 53 492 57 m 353 201 q 409 198 382 192 q 458 221 436 204 q 496 263 481 238 q 517 318 511 289 q 521 392 524 354 q 503 463 518 429 q 478 497 494 482 q 443 518 463 513 q 417 521 433 519 q 383 522 400 522 q 349 518 365 521 q 325 510 333 515 q 304 489 311 503 q 293 460 297 475 q 278 383 281 424 q 283 304 276 343 q 294 265 288 285 q 313 231 301 246 q 353 201 332 210 m 511 -29 q 492 -22 500 -31 q 494 -10 483 -12 q 542 3 518 -1 q 590 15 567 8 q 672 53 633 31 q 692 66 683 60 q 710 82 701 72 q 719 96 713 86 q 732 116 725 106 q 746 135 739 126 q 757 147 753 144 q 769 146 764 150 q 772 135 775 142 q 766 122 771 131 q 756 105 761 114 q 744 88 750 96 q 738 76 739 79 q 672 18 713 40 q 588 -17 631 -4 q 511 -29 550 -28 z "},"7":{"ha":621,"x_min":29,"x_max":601,"o":"m 246 1046 q 185 1040 215 1042 q 124 1043 154 1039 q 115 1054 115 1046 q 122 1064 114 1063 q 148 1065 128 1064 q 174 1067 168 1065 q 258 1075 215 1069 q 343 1089 300 1081 q 360 1092 347 1090 q 376 1093 372 1094 q 385 1081 385 1090 q 378 1068 386 1072 q 353 1060 371 1064 q 314 1054 335 1057 q 274 1049 293 1051 q 246 1046 254 1047 m 390 47 q 356 10 378 22 q 309 -6 335 -3 q 256 -6 283 -10 q 203 10 228 -1 q 171 28 186 17 q 146 56 156 40 q 126 136 122 93 q 139 203 131 171 q 219 449 172 329 q 326 685 265 569 q 334 699 328 689 q 347 722 340 710 q 359 744 353 733 q 368 758 365 754 q 249 732 310 743 q 128 725 189 721 q 90 732 108 726 q 60 751 72 738 q 39 788 46 765 q 31 835 32 810 q 33 885 29 860 q 46 928 38 910 q 58 947 51 938 q 74 963 64 956 q 117 978 93 975 q 164 985 140 982 q 251 990 208 989 q 338 993 293 992 q 389 997 356 993 q 458 1002 422 1000 q 526 1001 494 1004 q 572 988 557 999 q 596 951 589 975 q 601 916 600 933 q 600 881 601 899 q 599 872 599 876 q 596 865 599 868 q 595 860 594 864 q 594 856 596 857 q 579 803 592 842 q 552 722 567 765 q 524 639 538 678 q 507 588 511 600 q 442 319 464 453 q 425 221 432 271 q 411 121 418 171 q 403 83 408 101 q 390 47 399 64 m 279 -94 q 213 -90 246 -97 q 149 -69 179 -83 q 88 -24 114 -54 q 46 40 61 6 q 40 57 43 49 q 39 74 38 65 q 47 81 40 81 q 56 75 53 82 q 61 58 58 67 q 68 40 64 49 q 101 -5 81 17 q 144 -39 121 -26 q 183 -53 164 -47 q 222 -61 203 -60 q 235 -61 226 -61 q 255 -61 244 -61 q 274 -62 265 -61 q 286 -62 283 -62 q 298 -78 301 -65 q 279 -94 294 -92 z "},"8":{"ha":792,"x_min":35,"x_max":747,"o":"m 525 39 q 433 26 481 28 q 339 31 386 24 q 261 44 300 35 q 186 68 222 53 q 144 89 165 78 q 108 117 124 100 q 53 207 71 153 q 44 314 35 261 q 65 377 51 346 q 99 436 79 408 q 140 489 118 464 q 183 538 161 514 q 168 553 175 544 q 154 569 161 561 q 101 658 124 610 q 76 757 79 706 q 90 847 74 801 q 138 925 106 893 q 211 977 169 957 q 297 1004 253 997 q 421 1011 358 1015 q 544 992 483 1007 q 607 971 576 983 q 661 936 638 958 q 715 851 697 903 q 733 749 733 799 q 713 628 732 688 q 656 519 693 568 q 646 510 651 514 q 635 504 640 507 q 692 438 665 472 q 733 363 718 403 q 747 291 746 328 q 738 220 747 254 q 708 155 728 186 q 658 101 688 124 q 596 63 631 78 q 525 39 561 49 m 226 981 q 230 983 229 981 q 233 986 231 985 q 229 985 235 988 q 221 982 224 983 q 221 981 218 981 q 226 981 224 982 m 336 785 q 348 735 333 761 q 385 685 363 708 q 434 640 408 661 q 481 607 460 619 q 488 618 482 610 q 497 629 494 626 q 520 664 510 646 q 538 701 531 682 q 545 749 544 724 q 533 793 546 774 q 508 817 524 807 q 476 832 493 826 q 419 840 450 840 q 365 826 389 840 q 346 808 354 819 q 336 785 338 797 m 326 222 q 362 217 340 218 q 406 219 383 217 q 447 227 428 221 q 478 244 467 233 q 492 271 489 256 q 492 302 494 286 q 482 334 489 318 q 465 363 475 350 q 407 422 440 396 q 338 472 374 449 q 303 423 318 449 q 276 369 288 397 q 265 330 269 350 q 264 289 261 310 q 285 244 267 265 q 326 222 300 229 m 538 -61 q 410 -76 475 -76 q 283 -61 346 -76 q 263 -56 276 -60 q 237 -49 250 -53 q 213 -39 224 -44 q 197 -28 201 -33 q 197 -12 190 -19 q 211 -11 203 -4 q 241 -25 225 -21 q 272 -33 257 -29 q 415 -49 342 -50 q 558 -26 489 -49 q 575 -21 563 -24 q 593 -19 588 -18 q 602 -27 600 -21 q 599 -37 604 -33 q 588 -45 596 -42 q 569 -52 579 -49 q 551 -58 560 -56 q 538 -61 542 -60 z "},"9":{"ha":853,"x_min":28,"x_max":835,"o":"m 833 821 q 826 803 833 810 q 813 806 819 797 q 800 832 803 817 q 790 861 797 847 q 742 936 774 901 q 626 1017 693 986 q 577 1033 603 1028 q 524 1042 551 1039 q 513 1042 521 1042 q 495 1044 504 1043 q 478 1045 486 1044 q 467 1046 469 1046 q 456 1056 458 1049 q 461 1065 453 1063 q 492 1069 471 1069 q 535 1067 513 1069 q 579 1062 558 1065 q 611 1054 600 1058 q 686 1019 651 1043 q 753 968 721 996 q 778 940 764 958 q 806 899 793 921 q 826 856 818 878 q 833 821 835 835 m 363 -18 q 324 -12 343 -22 q 289 11 304 -1 q 263 35 278 19 q 233 69 247 51 q 208 106 218 88 q 199 139 199 125 q 207 157 199 149 q 254 197 224 169 q 317 254 285 224 q 375 315 349 285 q 408 364 401 344 q 336 349 372 354 q 264 347 300 344 q 184 364 224 350 q 113 403 144 378 q 61 461 81 426 q 44 510 50 485 q 35 561 38 535 q 36 688 28 624 q 71 811 44 753 q 119 880 89 849 q 185 931 149 911 q 260 958 221 950 q 339 971 299 967 q 441 976 390 976 q 542 967 492 976 q 605 949 574 960 q 663 919 636 939 q 699 881 683 903 q 726 833 715 858 q 751 748 744 793 q 760 658 758 703 q 746 498 761 578 q 699 343 731 418 q 638 233 674 285 q 560 133 603 181 q 494 67 528 99 q 421 10 460 35 q 392 -6 407 1 q 363 -18 378 -14 m 356 506 q 383 502 369 503 q 413 501 397 501 q 442 504 428 503 q 468 511 456 506 q 488 528 479 515 q 503 558 497 542 q 513 590 510 574 q 518 618 517 606 q 519 700 522 658 q 496 776 515 742 q 451 819 479 808 q 392 825 422 831 q 334 798 361 819 q 293 743 307 776 q 279 694 282 719 q 278 646 276 669 q 285 594 279 619 q 304 546 290 568 q 326 521 313 532 q 356 506 340 510 z "},"\u0000":{"ha":0,"x_min":0,"x_max":0,"o":""},"\r":{"ha":417,"x_min":0,"x_max":0,"o":""}," ":{"ha":417,"x_min":0,"x_max":0,"o":""},"!":{"ha":379,"x_min":49,"x_max":343,"o":"m 342 943 q 336 931 343 935 q 322 931 329 928 q 306 944 313 936 q 290 958 299 951 q 267 976 279 969 q 240 989 254 983 q 201 999 221 996 q 160 1003 181 1001 q 147 1003 153 1003 q 136 1006 142 1003 q 135 1021 125 1014 q 158 1026 142 1025 q 182 1026 175 1026 q 238 1018 210 1025 q 290 996 267 1011 q 304 985 296 992 q 321 972 313 979 q 335 957 329 965 q 342 943 342 949 m 190 317 q 163 311 178 313 q 131 313 147 310 q 101 321 115 315 q 79 338 88 326 q 67 371 69 350 q 65 390 65 376 q 66 419 65 403 q 67 448 67 435 q 68 467 68 461 q 72 704 72 585 q 69 742 72 715 q 64 797 67 768 q 61 852 61 826 q 65 889 61 878 q 82 907 69 900 q 109 918 94 914 q 139 924 124 922 q 167 925 154 925 q 231 915 199 922 q 286 888 263 908 q 313 839 306 868 q 318 797 318 818 q 318 754 318 775 q 312 665 315 710 q 304 575 308 619 q 290 474 299 525 q 257 379 281 424 q 229 342 246 360 q 190 317 213 325 m 233 57 q 202 33 221 42 q 163 22 183 25 q 122 23 143 19 q 85 36 101 26 q 60 64 68 49 q 51 100 53 81 q 53 140 49 119 q 65 177 57 160 q 88 206 74 194 q 119 220 101 217 q 151 221 136 224 q 200 210 175 219 q 240 182 225 201 q 253 153 250 169 q 256 119 257 136 q 249 85 256 101 q 233 57 243 68 z "},"\"":{"ha":465,"x_min":28,"x_max":438,"o":"m 156 697 q 112 683 140 682 q 68 699 83 683 q 54 726 60 707 q 46 769 49 746 q 42 813 43 792 q 40 847 40 835 q 33 906 38 876 q 39 961 28 935 q 72 992 47 983 q 101 998 85 996 q 135 998 118 1000 q 168 991 153 996 q 192 976 183 986 q 209 940 206 961 q 211 899 213 918 q 206 852 210 882 q 194 792 201 822 q 178 735 188 761 q 156 697 168 708 m 375 683 q 333 672 358 671 q 292 688 307 674 q 278 716 283 696 q 269 759 272 736 q 265 803 267 782 q 264 838 264 825 q 258 881 261 860 q 256 926 254 903 q 264 954 257 940 q 282 975 271 968 q 326 988 301 988 q 374 986 351 989 q 431 939 418 979 q 435 897 438 918 q 431 853 433 875 q 424 813 428 838 q 413 763 419 789 q 397 714 406 736 q 375 683 388 692 z "},"«":{"ha":465,"x_min":28,"x_max":438,"o":"m 156 697 q 112 683 140 682 q 68 699 83 683 q 54 726 60 707 q 46 769 49 746 q 42 813 43 792 q 40 847 40 835 q 33 906 38 876 q 39 961 28 935 q 72 992 47 983 q 101 998 85 996 q 135 998 118 1000 q 168 991 153 996 q 192 976 183 986 q 209 940 206 961 q 211 899 213 918 q 206 852 210 882 q 194 792 201 822 q 178 735 188 761 q 156 697 168 708 m 375 683 q 333 672 358 671 q 292 688 307 674 q 278 716 283 696 q 269 759 272 736 q 265 803 267 782 q 264 838 264 825 q 258 881 261 860 q 256 926 254 903 q 264 954 257 940 q 282 975 271 968 q 326 988 301 988 q 374 986 351 989 q 431 939 418 979 q 435 897 438 918 q 431 853 433 875 q 424 813 428 838 q 413 763 419 789 q 397 714 406 736 q 375 683 388 692 z "},"»":{"ha":465,"x_min":28,"x_max":438,"o":"m 156 697 q 112 683 140 682 q 68 699 83 683 q 54 726 60 707 q 46 769 49 746 q 42 813 43 792 q 40 847 40 835 q 33 906 38 876 q 39 961 28 935 q 72 992 47 983 q 101 998 85 996 q 135 998 118 1000 q 168 991 153 996 q 192 976 183 986 q 209 940 206 961 q 211 899 213 918 q 206 852 210 882 q 194 792 201 822 q 178 735 188 761 q 156 697 168 708 m 375 683 q 333 672 358 671 q 292 688 307 674 q 278 716 283 696 q 269 759 272 736 q 265 803 267 782 q 264 838 264 825 q 258 881 261 860 q 256 926 254 903 q 264 954 257 940 q 282 975 271 968 q 326 988 301 988 q 374 986 351 989 q 431 939 418 979 q 435 897 438 918 q 431 853 433 875 q 424 813 428 838 q 413 763 419 789 q 397 714 406 736 q 375 683 388 692 z "},"„":{"ha":465,"x_min":28,"x_max":438,"o":"m 156 697 q 112 683 140 682 q 68 699 83 683 q 54 726 60 707 q 46 769 49 746 q 42 813 43 792 q 40 847 40 835 q 33 906 38 876 q 39 961 28 935 q 72 992 47 983 q 101 998 85 996 q 135 998 118 1000 q 168 991 153 996 q 192 976 183 986 q 209 940 206 961 q 211 899 213 918 q 206 852 210 882 q 194 792 201 822 q 178 735 188 761 q 156 697 168 708 m 375 683 q 333 672 358 671 q 292 688 307 674 q 278 716 283 696 q 269 759 272 736 q 265 803 267 782 q 264 838 264 825 q 258 881 261 860 q 256 926 254 903 q 264 954 257 940 q 282 975 271 968 q 326 988 301 988 q 374 986 351 989 q 431 939 418 979 q 435 897 438 918 q 431 853 433 875 q 424 813 428 838 q 413 763 419 789 q 397 714 406 736 q 375 683 388 692 z "},"‟":{"ha":465,"x_min":28,"x_max":438,"o":"m 156 697 q 112 683 140 682 q 68 699 83 683 q 54 726 60 707 q 46 769 49 746 q 42 813 43 792 q 40 847 40 835 q 33 906 38 876 q 39 961 28 935 q 72 992 47 983 q 101 998 85 996 q 135 998 118 1000 q 168 991 153 996 q 192 976 183 986 q 209 940 206 961 q 211 899 213 918 q 206 852 210 882 q 194 792 201 822 q 178 735 188 761 q 156 697 168 708 m 375 683 q 333 672 358 671 q 292 688 307 674 q 278 716 283 696 q 269 759 272 736 q 265 803 267 782 q 264 838 264 825 q 258 881 261 860 q 256 926 254 903 q 264 954 257 940 q 282 975 271 968 q 326 988 301 988 q 374 986 351 989 q 431 939 418 979 q 435 897 438 918 q 431 853 433 875 q 424 813 428 838 q 413 763 419 789 q 397 714 406 736 q 375 683 388 692 z "},"#":{"ha":900,"x_min":24,"x_max":868,"o":"m 532 39 q 480 33 508 28 q 429 54 451 39 q 409 70 418 61 q 397 90 400 79 q 397 127 393 103 q 408 178 401 151 q 422 228 414 204 q 433 265 429 253 q 383 266 408 265 q 333 267 358 267 q 315 194 324 231 q 290 122 306 157 q 270 85 282 103 q 242 53 258 67 q 197 39 221 39 q 134 53 168 38 q 92 96 100 68 q 92 133 88 108 q 103 185 96 158 q 117 237 110 213 q 129 274 125 261 q 96 279 113 276 q 64 289 79 282 q 34 317 44 299 q 31 356 24 336 q 53 381 36 371 q 92 396 71 390 q 136 403 114 401 q 175 406 158 406 q 196 461 186 433 q 217 517 206 489 q 177 519 197 518 q 138 525 157 521 q 108 533 122 528 q 82 550 93 539 q 67 585 67 565 q 82 621 67 606 q 103 634 92 629 q 126 642 114 639 q 198 652 161 651 q 271 651 235 653 q 303 731 286 692 q 340 811 321 771 q 363 860 351 835 q 394 904 375 886 q 465 926 425 931 q 533 893 506 922 q 549 868 543 882 q 554 839 556 854 q 542 799 553 826 q 517 743 531 772 q 490 688 503 714 q 471 649 476 661 q 576 649 524 651 q 610 728 593 689 q 646 806 626 767 q 668 856 657 831 q 700 899 679 881 q 770 922 729 926 q 839 888 811 917 q 855 863 849 876 q 860 835 861 849 q 848 795 858 822 q 824 738 838 768 q 796 682 810 708 q 776 644 782 656 q 812 639 794 643 q 842 624 829 635 q 863 588 857 610 q 856 550 868 567 q 831 531 847 538 q 776 517 804 519 q 718 513 747 514 q 698 456 707 485 q 679 400 689 428 q 713 399 696 399 q 749 397 731 400 q 778 392 764 396 q 804 378 793 388 q 824 342 819 364 q 818 303 829 319 q 790 283 807 289 q 757 274 774 276 q 699 267 728 267 q 639 265 669 267 q 619 187 628 226 q 593 111 610 147 q 568 69 582 89 q 532 39 554 49 m 372 403 q 427 402 400 401 q 482 403 454 403 q 502 457 493 431 q 522 511 511 483 q 467 512 494 511 q 411 513 439 513 q 391 458 400 485 q 372 403 382 431 z "},"$":{"ha":769,"x_min":46,"x_max":733,"o":"m 440 -32 q 406 -52 426 -47 q 365 -54 385 -57 q 342 -51 354 -54 q 321 -39 329 -47 q 313 -20 315 -33 q 310 9 311 -7 q 310 40 310 25 q 311 63 311 54 q 250 59 281 60 q 189 61 219 58 q 124 71 157 64 q 71 101 92 78 q 51 141 57 117 q 47 192 46 165 q 53 245 47 219 q 69 290 60 271 q 86 313 76 303 q 108 328 96 324 q 139 331 124 333 q 169 326 154 329 q 253 317 211 319 q 338 307 296 314 q 376 312 358 304 q 403 333 393 319 q 414 363 414 347 q 400 394 414 379 q 383 406 393 401 q 361 413 372 410 q 278 434 319 422 q 199 464 238 446 q 147 490 172 475 q 103 526 122 506 q 58 610 69 563 q 51 687 49 647 q 61 764 54 726 q 87 830 68 799 q 132 885 106 861 q 228 947 174 924 q 340 982 283 971 q 336 1017 339 1000 q 332 1054 333 1035 q 337 1075 331 1067 q 353 1089 343 1083 q 376 1097 364 1094 q 401 1101 389 1100 q 420 1101 411 1101 q 438 1096 429 1100 q 461 1069 454 1088 q 468 1033 468 1051 q 467 994 468 1014 q 528 993 497 994 q 588 985 558 992 q 626 969 607 979 q 660 943 646 960 q 681 898 674 924 q 690 845 689 872 q 683 793 690 818 q 661 750 676 768 q 636 732 650 739 q 607 722 622 725 q 552 724 579 718 q 497 732 525 729 q 400 729 451 738 q 358 720 379 726 q 319 703 338 714 q 274 638 283 681 q 272 617 271 628 q 278 597 272 606 q 319 569 289 579 q 383 553 349 558 q 453 544 418 547 q 508 539 488 542 q 554 532 532 536 q 597 519 576 528 q 661 468 635 504 q 684 422 676 447 q 694 369 692 396 q 686 268 699 319 q 646 175 674 217 q 590 119 625 140 q 526 90 560 100 q 458 74 493 81 q 460 49 460 64 q 458 18 460 33 q 451 -11 456 3 q 440 -32 447 -25 m 631 31 q 594 11 614 19 q 556 4 575 3 q 544 14 546 6 q 550 29 542 22 q 565 34 553 32 q 581 39 578 36 q 610 55 596 44 q 635 76 624 65 q 672 121 656 96 q 700 172 689 146 q 710 183 704 181 q 722 184 717 186 q 731 176 728 182 q 731 163 733 171 q 714 128 724 144 q 693 96 704 111 q 665 60 681 76 q 631 31 650 43 z "},"%":{"ha":1135,"x_min":25,"x_max":1104,"o":"m 499 949 q 503 936 504 942 q 499 927 503 931 q 489 924 494 924 q 478 931 483 924 q 462 948 469 939 q 444 965 454 957 q 386 1004 418 989 q 319 1029 354 1019 q 281 1035 300 1035 q 243 1039 263 1036 q 229 1039 236 1039 q 217 1043 222 1039 q 215 1053 211 1047 q 225 1060 218 1058 q 257 1063 240 1063 q 289 1061 274 1063 q 406 1026 351 1056 q 499 949 460 997 m 374 -35 q 361 -35 367 -35 q 349 -33 356 -35 q 284 0 315 -26 q 250 60 253 26 q 263 125 249 82 q 299 214 278 168 q 340 301 319 260 q 371 363 360 342 q 503 615 436 490 q 647 861 571 739 q 678 915 663 888 q 721 961 694 943 q 763 976 739 974 q 808 973 786 979 q 848 952 829 967 q 876 915 867 938 q 881 863 888 892 q 850 800 875 843 q 795 709 825 757 q 738 618 765 661 q 701 558 711 575 q 615 390 656 475 q 538 217 574 304 q 510 148 526 189 q 474 68 494 107 q 428 -1 453 29 q 374 -35 403 -31 m 435 554 q 388 492 418 517 q 319 454 357 467 q 241 442 282 442 q 163 458 200 443 q 109 490 135 469 q 67 536 83 510 q 35 608 44 568 q 25 688 25 647 q 38 783 25 736 q 78 869 50 831 q 139 926 103 906 q 216 953 175 947 q 299 951 257 960 q 376 917 340 942 q 433 856 411 893 q 464 778 456 818 q 467 664 475 722 q 435 554 458 606 m 193 703 q 195 660 192 682 q 207 622 199 639 q 230 594 215 606 q 265 583 244 583 q 295 592 281 583 q 321 613 310 601 q 346 653 336 629 q 359 703 356 678 q 358 751 363 728 q 340 793 354 775 q 301 822 326 811 q 256 825 275 833 q 230 804 240 818 q 213 775 219 790 q 200 740 204 758 q 193 703 196 722 m 1101 519 q 1090 497 1104 503 q 1068 504 1076 490 q 1041 540 1056 524 q 1007 569 1026 557 q 958 597 983 585 q 904 613 932 608 q 874 613 897 613 q 843 611 850 613 q 829 619 832 610 q 836 635 826 629 q 858 640 842 638 q 882 643 875 643 q 949 638 918 646 q 1025 601 989 626 q 1088 543 1061 575 q 1095 531 1090 540 q 1101 519 1100 522 m 1058 128 q 1011 65 1042 90 q 943 28 981 40 q 865 17 906 17 q 786 33 824 18 q 733 64 758 44 q 690 110 707 83 q 658 183 668 143 q 649 263 649 222 q 661 357 649 310 q 701 444 674 404 q 763 501 726 481 q 840 528 799 522 q 922 526 881 535 q 1000 492 964 517 q 1057 430 1035 468 q 1088 351 1079 392 q 1090 238 1099 296 q 1058 128 1082 179 m 817 276 q 819 235 815 256 q 831 197 822 214 q 853 169 839 179 q 889 158 868 158 q 919 167 904 158 q 944 188 933 176 q 969 228 960 204 q 983 276 979 251 q 982 326 986 301 q 964 368 978 350 q 924 396 950 385 q 879 399 899 407 q 853 378 864 392 q 836 350 843 365 q 824 314 828 332 q 817 276 819 296 z "},"&":{"ha":985,"x_min":24,"x_max":965,"o":"m 571 8 q 383 -35 482 -35 q 315 -29 349 -35 q 250 -14 282 -24 q 154 35 197 3 q 82 113 111 68 q 35 228 46 167 q 38 353 24 290 q 74 438 49 397 q 133 511 99 479 q 231 564 175 547 q 169 640 190 593 q 151 714 154 675 q 157 789 147 753 q 195 880 169 836 q 260 953 221 924 q 351 997 300 983 q 450 1008 401 1010 q 521 997 486 1007 q 589 972 556 986 q 657 932 625 957 q 711 874 689 907 q 721 861 714 869 q 726 847 728 853 q 727 837 725 844 q 729 826 729 829 q 715 790 732 804 q 678 782 699 775 q 643 803 658 789 q 613 829 628 817 q 564 859 590 846 q 510 872 538 872 q 459 856 483 872 q 424 815 435 839 q 410 774 413 796 q 404 732 407 753 q 406 701 404 717 q 413 671 407 686 q 437 640 419 651 q 475 625 454 628 q 489 626 479 625 q 510 628 499 628 q 531 630 521 629 q 544 629 540 631 q 563 601 560 624 q 567 564 567 579 q 567 531 568 547 q 560 499 565 514 q 522 463 551 469 q 462 458 493 454 q 401 454 431 461 q 364 435 379 450 q 337 362 333 404 q 374 292 340 319 q 401 276 386 282 q 431 268 415 271 q 535 278 486 257 q 578 309 558 289 q 608 353 597 329 q 627 407 621 379 q 636 463 633 435 q 638 488 638 475 q 639 511 638 500 q 642 539 640 525 q 651 564 643 553 q 672 579 658 575 q 700 586 686 583 q 771 588 732 590 q 833 585 803 586 q 894 578 864 583 q 922 570 908 575 q 946 556 935 565 q 963 519 957 542 q 965 480 965 500 q 963 440 965 460 q 952 407 960 424 q 931 379 944 390 q 903 367 918 371 q 874 360 889 363 q 836 359 854 358 q 800 361 818 360 q 776 249 793 304 q 726 146 758 193 q 658 67 699 101 q 571 8 618 32 m 646 -92 q 626 -92 639 -93 q 610 -85 614 -90 q 608 -71 604 -78 q 619 -67 613 -64 q 658 -62 638 -71 q 699 -37 679 -53 q 735 -5 718 -22 q 764 28 753 13 q 813 105 792 64 q 844 190 833 146 q 847 197 847 193 q 864 207 851 210 q 874 190 876 204 q 869 172 874 186 q 864 154 865 157 q 801 27 842 88 q 703 -69 761 -33 q 676 -84 690 -78 q 646 -92 661 -90 z "},"'":{"ha":242,"x_min":28,"x_max":214,"o":"m 151 699 q 109 687 135 686 q 68 703 83 688 q 54 731 60 711 q 46 774 49 751 q 42 819 43 797 q 40 853 40 840 q 33 910 38 881 q 39 967 28 939 q 52 985 43 978 q 72 997 61 993 q 110 1004 90 1004 q 150 1001 131 1004 q 207 954 194 994 q 212 912 214 933 q 207 868 210 890 q 200 828 204 853 q 189 778 196 804 q 173 729 182 751 q 151 699 164 707 z "},"‚":{"ha":242,"x_min":28,"x_max":214,"o":"m 151 699 q 109 687 135 686 q 68 703 83 688 q 54 731 60 711 q 46 774 49 751 q 42 819 43 797 q 40 853 40 840 q 33 910 38 881 q 39 967 28 939 q 52 985 43 978 q 72 997 61 993 q 110 1004 90 1004 q 150 1001 131 1004 q 207 954 194 994 q 212 912 214 933 q 207 868 210 890 q 200 828 204 853 q 189 778 196 804 q 173 729 182 751 q 151 699 164 707 z "},"‛":{"ha":242,"x_min":28,"x_max":214,"o":"m 151 699 q 109 687 135 686 q 68 703 83 688 q 54 731 60 711 q 46 774 49 751 q 42 819 43 797 q 40 853 40 840 q 33 910 38 881 q 39 967 28 939 q 52 985 43 978 q 72 997 61 993 q 110 1004 90 1004 q 150 1001 131 1004 q 207 954 194 994 q 212 912 214 933 q 207 868 210 890 q 200 828 204 853 q 189 778 196 804 q 173 729 182 751 q 151 699 164 707 z "},"‹":{"ha":242,"x_min":28,"x_max":214,"o":"m 151 699 q 109 687 135 686 q 68 703 83 688 q 54 731 60 711 q 46 774 49 751 q 42 819 43 797 q 40 853 40 840 q 33 910 38 881 q 39 967 28 939 q 52 985 43 978 q 72 997 61 993 q 110 1004 90 1004 q 150 1001 131 1004 q 207 954 194 994 q 212 912 214 933 q 207 868 210 890 q 200 828 204 853 q 189 778 196 804 q 173 729 182 751 q 151 699 164 707 z "},"›":{"ha":242,"x_min":28,"x_max":214,"o":"m 151 699 q 109 687 135 686 q 68 703 83 688 q 54 731 60 711 q 46 774 49 751 q 42 819 43 797 q 40 853 40 840 q 33 910 38 881 q 39 967 28 939 q 52 985 43 978 q 72 997 61 993 q 110 1004 90 1004 q 150 1001 131 1004 q 207 954 194 994 q 212 912 214 933 q 207 868 210 890 q 200 828 204 853 q 189 778 196 804 q 173 729 182 751 q 151 699 164 707 z "},"(":{"ha":465,"x_min":40,"x_max":485,"o":"m 401 -18 q 379 -19 390 -21 q 357 -15 368 -18 q 288 6 321 -10 q 226 42 256 21 q 181 81 203 60 q 140 126 158 101 q 58 300 85 203 q 42 409 44 353 q 44 521 40 465 q 53 603 47 561 q 74 683 60 644 q 107 757 88 721 q 153 824 126 793 q 235 908 190 868 q 332 972 279 947 q 364 986 344 978 q 403 999 383 994 q 440 1004 422 1004 q 469 996 458 1004 q 483 970 482 988 q 478 939 485 953 q 456 920 471 926 q 426 908 442 914 q 350 864 386 893 q 290 797 314 835 q 251 695 263 750 q 236 585 239 640 q 247 318 228 453 q 265 238 254 278 q 299 163 276 197 q 349 106 318 131 q 411 64 379 82 q 425 54 418 60 q 435 42 432 49 q 431 5 442 25 q 401 -18 421 -15 z "},")":{"ha":465,"x_min":-19,"x_max":425,"o":"m 133 11 q 102 -3 121 4 q 63 -16 83 -11 q 25 -22 43 -21 q -4 -14 7 -22 q -18 13 -17 -4 q -12 43 -19 31 q 10 63 -6 57 q 39 75 25 69 q 115 119 79 90 q 175 185 151 147 q 215 290 204 233 q 231 403 226 346 q 231 543 235 474 q 215 682 228 613 q 197 753 208 718 q 167 821 186 789 q 117 876 147 853 q 54 919 88 900 q 41 929 47 924 q 31 942 35 935 q 34 978 24 958 q 64 1001 44 997 q 86 1002 75 1004 q 108 999 97 1000 q 177 978 144 993 q 239 940 210 963 q 285 901 263 922 q 325 857 307 881 q 374 774 353 818 q 407 683 396 731 q 423 574 421 629 q 421 463 425 518 q 413 380 418 421 q 392 300 407 339 q 359 226 378 261 q 314 158 340 190 q 231 74 275 114 q 133 11 186 35 z "},"*":{"ha":497,"x_min":29,"x_max":467,"o":"m 265 546 q 221 544 243 542 q 194 569 199 547 q 193 591 193 575 q 193 624 193 607 q 192 658 193 642 q 192 681 192 674 q 174 665 186 675 q 149 643 163 654 q 122 623 135 632 q 101 613 108 614 q 71 617 83 608 q 47 645 58 625 q 36 681 35 665 q 42 697 36 689 q 54 710 47 704 q 72 724 58 714 q 100 744 85 733 q 128 764 115 754 q 146 776 142 774 q 122 787 138 781 q 89 801 106 793 q 58 818 72 810 q 38 833 43 826 q 36 863 29 846 q 59 897 43 878 q 93 917 75 915 q 115 909 101 917 q 144 892 129 901 q 172 872 158 882 q 193 858 186 863 q 190 889 192 871 q 188 925 188 907 q 190 959 188 943 q 204 982 193 975 q 220 989 210 986 q 242 992 231 992 q 265 992 254 993 q 283 988 276 990 q 300 975 292 986 q 304 952 303 968 q 306 919 306 936 q 307 885 307 901 q 307 861 307 869 q 325 878 313 867 q 352 900 338 889 q 380 921 367 911 q 400 933 393 931 q 433 924 418 940 q 456 889 447 907 q 451 851 465 868 q 430 833 446 844 q 396 808 414 821 q 360 785 378 796 q 336 769 343 774 q 365 757 346 765 q 405 738 385 749 q 442 716 425 728 q 464 694 458 704 q 465 678 467 688 q 458 658 463 668 q 447 640 453 649 q 435 625 440 631 q 426 617 431 621 q 414 613 421 613 q 385 621 403 611 q 351 643 368 631 q 317 669 333 656 q 293 689 301 682 q 297 662 294 679 q 301 626 300 644 q 302 590 303 607 q 296 565 301 574 q 265 546 288 551 z "},"+":{"ha":632,"x_min":19,"x_max":615,"o":"m 378 136 q 325 113 356 117 q 267 117 294 110 q 228 139 242 124 q 212 165 217 150 q 206 194 207 179 q 206 220 206 201 q 208 260 207 239 q 211 299 210 281 q 214 324 213 317 q 151 324 182 326 q 89 325 121 321 q 68 328 78 326 q 50 336 58 331 q 26 365 33 346 q 22 404 19 385 q 33 441 24 424 q 61 465 43 458 q 96 472 78 471 q 133 470 114 472 q 169 467 151 468 q 206 469 188 465 q 197 548 200 508 q 201 625 194 588 q 210 650 204 638 q 226 671 215 663 q 256 684 238 679 q 293 690 274 689 q 332 689 313 692 q 365 681 351 686 q 401 646 390 669 q 412 610 410 629 q 413 571 414 590 q 410 524 413 547 q 408 476 408 500 q 448 478 422 478 q 501 476 474 478 q 551 470 528 475 q 586 457 575 465 q 606 432 599 449 q 604 365 615 400 q 590 342 599 353 q 571 324 582 331 q 536 318 560 319 q 486 318 513 317 q 435 322 460 319 q 400 324 411 324 q 407 264 404 293 q 407 206 410 235 q 399 167 406 186 q 378 136 393 147 z "},",":{"ha":271,"x_min":18,"x_max":250,"o":"m 122 -149 q 97 -156 108 -158 q 81 -143 86 -153 q 77 -121 75 -133 q 92 -97 79 -108 q 129 -54 113 -78 q 153 -3 146 -31 q 82 -3 118 -14 q 33 42 46 7 q 31 124 18 82 q 83 181 43 165 q 147 188 113 192 q 204 164 181 183 q 231 130 221 150 q 244 89 242 110 q 244 31 250 61 q 226 -26 238 1 q 183 -94 210 -62 q 122 -149 156 -125 z "},"-":{"ha":618,"x_min":24,"x_max":594,"o":"m 497 289 q 416 287 474 288 q 294 288 358 286 q 172 292 229 289 q 90 300 114 294 q 62 312 75 303 q 42 333 49 321 q 25 388 26 357 q 38 444 24 419 q 78 479 50 468 q 118 488 97 486 q 158 489 139 490 q 185 488 165 489 q 226 487 204 488 q 267 485 249 486 q 293 483 286 483 q 332 485 313 483 q 371 485 351 486 q 402 484 379 485 q 451 482 425 483 q 501 480 478 481 q 532 479 524 479 q 544 476 539 478 q 556 472 550 475 q 578 449 571 465 q 589 418 586 433 q 594 369 594 394 q 581 325 593 344 q 544 298 567 306 q 497 289 521 290 z "},".":{"ha":292,"x_min":24,"x_max":269,"o":"m 232 40 q 197 13 217 24 q 153 -1 176 3 q 108 1 131 -4 q 68 18 86 6 q 35 68 44 36 q 27 134 24 100 q 50 196 31 168 q 67 217 57 207 q 90 233 78 228 q 155 245 122 247 q 214 228 188 243 q 255 187 240 213 q 265 126 269 161 q 255 81 263 103 q 232 40 247 58 z "},"/":{"ha":513,"x_min":22,"x_max":503,"o":"m 178 18 q 142 13 161 11 q 103 20 122 14 q 66 38 83 26 q 39 63 49 49 q 24 111 24 85 q 26 151 22 131 q 33 190 29 171 q 57 277 44 235 q 83 363 69 319 q 144 548 113 456 q 213 731 175 640 q 213 735 213 733 q 214 740 214 738 q 249 836 229 789 q 296 925 268 883 q 331 961 310 949 q 375 976 350 974 q 424 972 400 979 q 467 950 447 965 q 496 914 486 935 q 502 877 503 896 q 497 840 501 858 q 481 792 490 815 q 460 744 471 768 q 311 346 371 547 q 284 249 296 297 q 258 151 272 200 q 244 105 251 128 q 225 61 236 82 q 206 35 218 47 q 178 18 193 24 z "},":":{"ha":325,"x_min":35,"x_max":293,"o":"m 256 390 q 220 363 240 374 q 177 349 200 351 q 132 351 154 346 q 92 368 110 356 q 71 390 79 376 q 58 417 63 403 q 74 544 35 485 q 91 566 81 556 q 114 582 101 576 q 178 594 146 596 q 238 577 211 592 q 278 536 264 563 q 289 475 293 510 q 278 430 286 451 q 256 390 271 408 m 243 60 q 208 32 228 43 q 165 18 188 21 q 119 20 142 15 q 79 38 97 25 q 58 59 67 46 q 46 86 50 72 q 38 152 35 118 q 61 214 42 186 q 78 235 68 225 q 101 251 89 246 q 166 263 133 265 q 225 246 199 261 q 266 205 251 231 q 276 144 281 179 q 266 99 274 121 q 243 60 258 78 z "},";":{"ha":310,"x_min":19,"x_max":278,"o":"m 240 390 q 205 363 225 374 q 162 349 185 351 q 117 351 139 346 q 76 368 94 356 q 56 390 64 376 q 43 417 47 403 q 58 544 19 485 q 76 566 65 556 q 99 582 86 576 q 163 594 131 596 q 222 577 196 592 q 263 536 249 563 q 274 475 278 510 q 263 430 271 451 q 240 390 256 408 m 146 -149 q 121 -156 132 -158 q 104 -143 110 -153 q 100 -121 99 -133 q 114 -97 101 -108 q 152 -54 136 -78 q 175 -3 168 -31 q 105 -3 140 -14 q 57 42 69 7 q 54 124 42 82 q 107 181 67 165 q 169 188 135 192 q 228 164 204 183 q 254 130 244 150 q 268 89 264 110 q 267 31 272 61 q 249 -26 261 1 q 206 -94 233 -62 q 146 -149 178 -125 z "},"<":{"ha":543,"x_min":18,"x_max":513,"o":"m 444 89 q 400 101 421 85 q 324 151 363 126 q 246 199 286 176 q 185 230 215 215 q 124 260 156 244 q 71 288 97 272 q 28 329 44 304 q 19 356 18 342 q 28 382 21 369 q 49 406 36 394 q 75 426 61 418 q 189 499 132 464 q 297 578 246 533 q 331 608 314 593 q 365 636 347 622 q 410 654 386 651 q 451 640 431 654 q 508 551 500 610 q 506 507 513 529 q 487 476 499 490 q 460 451 475 463 q 405 417 433 432 q 347 388 376 403 q 322 376 340 385 q 283 357 304 367 q 242 338 261 347 q 218 326 224 329 q 301 283 260 304 q 388 246 343 263 q 423 233 406 239 q 457 218 440 226 q 477 203 468 211 q 490 183 486 194 q 490 145 497 165 q 471 110 482 125 q 444 89 461 93 z "},"=":{"ha":642,"x_min":35,"x_max":607,"o":"m 508 476 q 427 475 485 475 q 305 476 369 475 q 183 480 240 476 q 101 489 125 483 q 73 501 86 492 q 53 522 60 510 q 36 577 38 546 q 49 632 35 608 q 89 667 61 656 q 129 677 108 675 q 169 678 150 679 q 196 676 176 678 q 238 674 215 675 q 278 673 260 674 q 304 672 297 672 q 343 674 324 672 q 382 674 363 675 q 413 673 390 674 q 463 671 436 672 q 512 669 489 669 q 543 667 535 668 q 556 665 550 665 q 567 661 561 664 q 590 638 582 654 q 600 607 597 622 q 605 558 606 583 q 592 514 604 533 q 555 487 578 494 q 508 476 532 479 m 510 192 q 461 190 493 190 q 389 190 429 190 q 305 191 349 190 q 222 194 261 192 q 150 198 182 196 q 103 204 118 200 q 53 238 71 211 q 36 292 38 261 q 49 347 35 324 q 89 382 61 371 q 129 392 108 390 q 171 393 150 394 q 197 392 176 393 q 238 390 217 390 q 279 388 260 389 q 306 388 299 388 q 344 389 325 388 q 383 389 364 390 q 415 388 392 389 q 463 386 438 388 q 512 384 489 385 q 543 382 535 383 q 556 380 550 381 q 567 376 561 379 q 590 353 582 369 q 601 322 599 338 q 606 274 607 299 q 592 229 606 249 q 556 202 579 210 q 510 192 532 194 z "},">":{"ha":542,"x_min":31,"x_max":525,"o":"m 144 101 q 119 90 133 94 q 93 92 106 86 q 69 115 82 96 q 53 146 57 135 q 56 188 46 167 q 68 204 60 197 q 86 217 76 211 q 133 237 108 229 q 181 256 157 244 q 253 289 218 271 q 325 326 289 307 q 295 341 318 331 q 247 364 272 351 q 199 387 222 376 q 169 401 176 397 q 112 433 140 417 q 60 474 83 450 q 35 518 40 493 q 37 567 31 543 q 60 613 43 592 q 101 646 76 633 q 139 654 118 654 q 160 647 150 653 q 179 635 171 642 q 203 615 192 625 q 226 596 215 606 q 315 525 268 557 q 410 464 361 493 q 460 433 435 449 q 506 394 486 417 q 519 372 514 385 q 522 346 525 358 q 504 314 519 328 q 460 281 485 294 q 410 254 435 267 q 353 227 382 240 q 297 199 325 214 q 219 152 257 176 q 144 101 182 128 z "},"?":{"ha":688,"x_min":28,"x_max":669,"o":"m 667 900 q 660 884 669 889 q 642 886 651 879 q 619 907 629 896 q 594 928 608 918 q 495 985 549 961 q 385 1013 442 1010 q 362 1013 374 1013 q 339 1017 350 1014 q 335 1026 332 1019 q 344 1033 338 1033 q 350 1034 346 1033 q 357 1036 354 1035 q 390 1038 374 1038 q 424 1035 407 1038 q 519 1007 472 1028 q 606 958 565 986 q 620 947 611 954 q 639 932 629 940 q 656 915 649 924 q 667 900 664 906 m 347 265 q 309 256 333 261 q 259 249 285 251 q 210 245 233 246 q 174 251 186 244 q 149 282 156 260 q 140 305 143 293 q 133 329 136 317 q 126 360 131 342 q 121 397 122 378 q 122 432 119 415 q 132 458 124 449 q 161 474 143 469 q 217 483 189 481 q 271 496 244 485 q 324 526 299 507 q 367 572 350 546 q 388 630 382 599 q 392 693 394 661 q 381 733 389 713 q 358 768 374 754 q 326 788 346 779 q 285 802 307 797 q 244 807 264 807 q 208 799 224 807 q 178 762 188 788 q 171 713 168 736 q 181 674 174 693 q 190 636 188 656 q 176 594 193 613 q 140 570 161 579 q 99 564 119 561 q 69 576 79 564 q 55 606 58 589 q 46 639 51 624 q 33 690 38 664 q 32 743 28 717 q 42 776 35 760 q 60 808 50 793 q 96 851 75 832 q 142 886 117 871 q 224 923 181 910 q 313 940 268 936 q 431 932 371 947 q 539 885 490 917 q 577 849 560 869 q 607 807 594 829 q 636 735 626 774 q 639 660 646 696 q 601 560 631 607 q 531 478 571 513 q 481 442 507 458 q 428 414 456 426 q 398 401 413 407 q 369 388 383 396 q 367 381 367 385 q 368 374 367 376 q 371 351 368 365 q 375 323 374 338 q 376 295 376 308 q 369 276 375 282 q 347 265 361 268 m 394 74 q 369 24 388 44 q 324 -5 350 4 q 269 -12 299 -14 q 213 3 240 -11 q 181 29 196 11 q 160 65 165 47 q 160 126 150 97 q 193 174 169 156 q 229 190 207 185 q 274 194 251 194 q 319 189 297 194 q 357 174 342 183 q 389 139 378 161 q 397 106 396 124 q 394 74 397 89 z "},"@":{"ha":1082,"x_min":31,"x_max":1049,"o":"m 210 881 q 194 888 199 878 q 200 903 190 897 q 399 985 296 951 q 608 1022 501 1019 q 714 1012 661 1022 q 813 978 767 1001 q 829 968 818 975 q 852 953 840 961 q 874 939 864 946 q 888 928 883 932 q 889 914 894 921 q 875 911 883 907 q 860 921 872 913 q 846 932 849 929 q 738 978 796 961 q 622 993 681 994 q 422 960 521 990 q 228 889 322 931 q 219 885 225 888 q 210 881 213 882 m 758 -131 q 606 -151 683 -146 q 453 -144 529 -156 q 362 -126 407 -139 q 275 -90 317 -112 q 199 -40 235 -69 q 136 26 164 -10 q 78 127 100 72 q 46 239 56 182 q 42 413 31 324 q 88 581 54 501 q 126 658 104 621 q 178 726 149 694 q 276 801 221 771 q 389 850 331 831 q 502 881 444 869 q 618 889 560 892 q 722 871 671 886 q 821 832 774 856 q 918 763 874 804 q 990 669 963 722 q 1038 522 1026 601 q 1043 365 1049 443 q 1015 250 1039 307 q 951 150 992 193 q 902 108 929 126 q 844 82 875 90 q 753 74 801 69 q 668 104 706 79 q 611 193 622 136 q 572 148 593 169 q 522 111 550 126 q 457 94 490 94 q 393 106 424 93 q 338 142 363 118 q 299 200 313 167 q 269 330 272 261 q 285 463 267 399 q 331 549 297 510 q 407 613 365 589 q 454 630 428 625 q 508 634 481 635 q 560 625 535 633 q 606 601 586 617 q 638 632 618 621 q 682 645 658 643 q 728 640 706 647 q 767 615 750 632 q 777 599 774 608 q 783 578 781 589 q 783 517 788 546 q 772 445 781 490 q 758 353 764 400 q 754 264 753 306 q 772 201 756 222 q 810 192 788 182 q 849 222 833 203 q 870 263 863 242 q 883 308 878 285 q 895 404 894 356 q 888 500 896 453 q 858 600 878 551 q 806 689 838 649 q 756 735 783 715 q 696 764 728 754 q 587 776 643 779 q 478 763 531 774 q 368 717 419 751 q 282 633 317 682 q 232 526 247 585 q 211 408 217 467 q 210 319 208 364 q 225 231 211 274 q 258 153 236 190 q 310 86 281 117 q 413 6 354 38 q 539 -36 472 -25 q 619 -42 579 -43 q 699 -29 660 -40 q 747 -15 722 -22 q 796 -10 771 -8 q 838 -32 822 -12 q 844 -75 854 -51 q 830 -92 840 -83 q 807 -109 819 -101 q 781 -123 794 -117 q 758 -131 768 -129 m 447 290 q 465 258 453 276 q 493 239 478 239 q 522 258 508 239 q 543 290 536 276 q 565 353 558 319 q 569 419 572 386 q 563 465 568 442 q 547 505 557 488 q 522 528 536 522 q 488 524 507 535 q 462 499 472 514 q 446 467 451 483 q 431 378 431 425 q 447 290 431 332 z "},"A":{"ha":840,"x_min":7,"x_max":828,"o":"m 758 889 q 745 882 753 879 q 742 894 738 885 q 732 911 739 900 q 717 935 725 922 q 701 958 710 947 q 689 974 693 969 q 645 1000 669 990 q 596 1014 621 1010 q 568 1015 589 1015 q 540 1018 547 1015 q 535 1028 535 1021 q 540 1038 535 1035 q 558 1041 549 1042 q 575 1040 567 1040 q 633 1028 604 1039 q 685 1003 661 1018 q 723 963 708 988 q 750 915 738 939 q 757 901 753 910 q 758 889 761 893 m 758 31 q 703 13 733 18 q 642 13 672 8 q 585 31 611 17 q 542 68 558 44 q 523 111 533 81 q 504 176 513 142 q 489 244 496 211 q 479 292 482 276 q 422 290 451 290 q 365 286 393 289 q 339 284 358 286 q 297 280 319 282 q 256 276 275 278 q 229 275 236 275 q 228 246 229 265 q 226 206 228 226 q 220 167 224 185 q 211 140 217 149 q 185 117 201 126 q 148 105 168 108 q 108 103 128 101 q 72 110 89 104 q 52 120 61 114 q 36 136 43 126 q 24 183 24 153 q 30 247 24 214 q 45 313 36 281 q 58 365 54 344 q 119 552 81 461 q 208 726 157 643 q 299 849 249 790 q 413 947 349 907 q 462 963 433 960 q 519 963 490 967 q 574 947 547 958 q 618 918 600 935 q 651 874 638 899 q 674 824 665 850 q 692 744 686 785 q 704 664 697 704 q 713 618 707 650 q 726 545 718 586 q 744 459 735 504 q 761 373 753 414 q 776 300 769 332 q 786 256 782 268 q 792 235 788 250 q 801 203 796 219 q 810 171 806 186 q 817 150 815 156 q 814 85 828 115 q 792 53 807 67 q 758 31 776 40 m 333 614 q 297 526 314 571 q 265 438 279 482 q 362 444 314 443 q 458 449 410 446 q 453 510 457 464 q 446 606 450 556 q 439 703 442 657 q 436 764 436 749 q 378 693 403 732 q 333 614 353 654 m 167 7 q 87 8 126 0 q 15 39 47 17 q 8 54 7 44 q 21 61 10 64 q 31 57 28 61 q 40 50 35 53 q 107 27 71 32 q 176 29 143 22 q 206 38 186 31 q 231 53 225 46 q 242 54 236 58 q 246 43 249 50 q 231 29 243 36 q 213 19 219 22 q 190 12 201 14 q 167 7 178 10 z "},"B":{"ha":925,"x_min":38,"x_max":899,"o":"m 346 958 q 340 940 351 946 q 322 947 328 935 q 285 992 310 975 q 238 1016 264 1007 q 186 1031 213 1025 q 178 1032 183 1031 q 169 1033 172 1033 q 165 1042 164 1036 q 172 1050 165 1049 q 181 1051 175 1051 q 189 1050 186 1050 q 242 1040 215 1046 q 290 1018 268 1033 q 322 992 307 1007 q 346 958 338 978 m 306 29 q 240 7 276 7 q 175 32 204 10 q 133 83 149 51 q 98 198 107 138 q 78 318 89 258 q 38 725 39 524 q 40 797 38 761 q 51 869 42 833 q 69 913 58 892 q 100 949 81 935 q 158 973 125 968 q 219 971 190 978 q 253 956 238 965 q 281 931 269 946 q 301 883 296 910 q 310 832 306 857 q 342 872 325 853 q 379 910 360 892 q 473 967 418 944 q 587 997 528 990 q 703 992 646 1003 q 803 949 760 981 q 863 880 840 921 q 892 793 886 839 q 888 702 899 747 q 850 619 878 657 q 783 551 821 582 q 703 497 746 519 q 759 460 732 482 q 807 411 786 439 q 842 334 833 376 q 846 249 851 292 q 820 168 840 207 q 767 100 800 129 q 679 53 728 65 q 513 49 600 33 q 356 104 426 64 q 335 64 347 83 q 306 29 324 44 m 392 581 q 429 573 407 572 q 475 581 451 574 q 520 598 499 588 q 557 619 542 608 q 594 652 576 633 q 621 694 611 671 q 626 736 628 715 q 615 774 625 757 q 590 802 606 790 q 551 815 574 814 q 519 813 535 817 q 488 803 503 810 q 424 760 453 788 q 378 700 394 733 q 363 633 363 669 q 392 581 363 597 m 464 231 q 557 231 510 219 q 583 238 569 232 q 609 250 597 243 q 629 267 621 257 q 638 289 638 276 q 635 308 639 299 q 624 324 631 317 q 588 351 610 339 q 540 372 565 364 q 488 383 514 381 q 443 381 463 386 q 408 359 422 374 q 388 327 393 344 q 385 290 382 310 q 406 257 389 271 q 433 240 417 246 q 464 231 449 233 m 368 357 q 368 354 368 357 q 369 353 368 353 l 369 354 q 371 357 369 357 l 368 357 m 643 -50 q 624 -49 638 -50 q 593 -48 610 -49 q 563 -46 576 -47 q 543 -44 549 -44 q 533 -39 536 -43 q 533 -22 518 -29 q 547 -17 539 -17 q 561 -17 554 -17 q 599 -19 581 -17 q 636 -19 617 -21 q 719 -7 678 -18 q 796 28 761 4 q 823 49 810 38 q 844 75 836 60 q 851 89 847 78 q 857 103 856 100 q 867 109 860 110 q 876 101 874 108 q 875 88 878 97 q 869 74 872 78 q 843 33 860 51 q 807 1 826 15 q 728 -35 771 -22 q 643 -50 686 -47 z "},"C":{"ha":735,"x_min":32,"x_max":717,"o":"m 78 839 q 63 837 71 832 q 58 851 54 842 q 124 938 82 900 q 217 992 165 975 q 231 995 221 993 q 251 999 240 997 q 272 1003 263 1001 q 286 1004 282 1004 q 298 993 297 1003 q 289 981 299 983 q 269 978 279 978 q 247 976 258 979 q 169 938 207 967 q 81 844 117 900 q 78 839 81 842 m 663 147 q 565 66 622 96 q 445 28 508 36 q 319 36 382 21 q 201 90 256 51 q 120 174 154 124 q 67 278 86 224 q 42 381 49 328 q 33 486 35 433 q 37 591 32 539 q 56 694 42 643 q 116 808 74 757 q 215 892 158 860 q 336 935 271 924 q 465 931 401 947 q 596 858 540 911 q 633 815 615 839 q 657 764 650 792 q 663 714 663 740 q 657 664 664 688 q 647 638 654 647 q 608 619 632 619 q 571 639 583 619 q 564 668 564 651 q 564 700 564 685 q 561 737 564 718 q 551 772 558 756 q 536 797 546 785 q 513 814 526 808 q 480 817 497 819 q 446 806 463 814 q 415 785 429 797 q 390 760 400 772 q 351 684 364 726 q 333 599 339 642 q 326 453 324 526 q 343 308 328 379 q 367 235 353 272 q 408 172 381 199 q 431 153 419 161 q 457 142 443 144 q 533 153 497 133 q 568 189 554 164 q 580 224 576 206 q 586 260 583 242 q 592 298 589 279 q 603 335 596 317 q 613 351 607 343 q 626 367 618 360 q 656 377 640 376 q 685 371 672 378 q 708 351 699 364 q 717 319 717 338 q 712 267 717 293 q 700 218 707 242 q 685 181 694 199 q 663 147 675 163 z "},"D":{"ha":958,"x_min":42,"x_max":935,"o":"m 371 940 q 363 923 375 926 q 346 932 350 919 q 311 979 336 958 q 268 1005 292 994 q 221 1022 244 1015 q 213 1025 218 1024 q 206 1028 208 1026 q 201 1037 200 1031 q 210 1043 203 1043 q 222 1042 214 1043 q 238 1038 229 1040 q 255 1033 247 1036 q 267 1029 263 1031 q 329 995 299 1018 q 371 940 360 972 m 250 42 q 203 29 226 29 q 158 40 179 29 q 119 69 136 50 q 93 111 103 88 q 68 226 72 167 q 58 344 64 286 q 46 517 50 432 q 47 689 42 603 q 54 769 50 729 q 69 849 58 810 q 85 896 76 872 q 113 938 94 919 q 147 959 128 951 q 186 969 167 967 q 251 960 218 972 q 301 924 283 949 q 319 874 317 901 q 325 821 322 847 q 385 880 353 853 q 457 924 418 907 q 602 956 524 953 q 747 932 681 960 q 815 890 783 917 q 869 831 847 864 q 916 721 901 781 q 932 601 931 661 q 913 415 935 508 q 846 240 890 322 q 788 150 821 193 q 710 75 754 107 q 660 49 688 58 q 606 35 633 39 q 451 48 529 25 q 310 113 374 71 q 284 72 299 92 q 250 42 269 53 m 464 215 q 509 216 486 211 q 551 232 532 221 q 599 269 579 247 q 635 318 619 292 q 685 485 676 393 q 668 658 694 576 q 641 719 658 690 q 597 767 624 747 q 551 784 578 782 q 501 779 525 786 q 428 741 461 768 q 375 678 394 714 q 343 583 351 633 q 335 482 335 532 q 339 401 333 442 q 358 324 344 361 q 381 275 367 299 q 415 236 394 251 q 464 215 436 219 m 767 -6 q 685 -47 731 -33 q 593 -60 639 -60 q 537 -56 565 -61 q 481 -46 508 -50 q 466 -35 471 -43 q 471 -24 461 -26 l 472 -24 q 486 -19 479 -19 q 500 -21 493 -19 q 551 -28 526 -24 q 601 -31 576 -32 q 688 -15 644 -28 q 764 24 731 -3 q 783 45 775 33 q 797 69 790 57 q 808 74 801 76 q 815 65 815 72 q 810 47 815 57 q 798 27 806 38 q 782 8 790 17 q 767 -6 774 -1 z "},"E":{"ha":764,"x_min":49,"x_max":749,"o":"m 85 976 q 78 972 82 974 q 71 969 75 969 q 63 974 63 969 q 68 986 63 979 q 81 1000 74 993 q 96 1011 89 1007 q 153 1040 122 1031 q 217 1046 185 1049 q 255 1036 236 1043 q 292 1019 274 1029 q 309 1009 296 1017 q 325 999 322 1001 q 332 982 332 992 q 322 971 332 972 q 307 974 314 969 q 293 983 300 979 q 255 1006 275 996 q 213 1018 235 1015 q 146 1011 181 1024 q 85 976 111 999 m 475 36 q 313 40 393 35 q 151 56 232 44 q 133 60 143 57 q 112 69 122 64 q 93 82 101 75 q 82 97 85 89 q 69 152 75 115 q 60 235 64 189 q 55 331 57 281 q 51 427 53 381 q 49 511 50 474 q 49 568 49 549 q 50 676 49 622 q 60 783 51 731 q 75 857 65 819 q 106 925 85 894 q 156 965 126 954 q 215 971 185 975 q 273 948 246 967 q 315 899 300 929 q 440 915 378 908 q 564 921 501 921 q 631 918 597 921 q 696 900 665 915 q 728 872 715 890 q 744 831 740 853 q 743 788 749 810 q 722 751 738 767 q 689 733 708 738 q 653 731 679 732 q 597 731 626 731 q 540 731 567 731 q 503 731 513 731 q 424 728 463 731 q 344 722 385 725 q 341 660 342 690 q 346 597 340 629 q 404 600 365 599 q 485 600 443 601 q 566 594 528 599 q 621 582 604 590 q 646 560 636 575 q 660 529 656 544 q 667 468 668 497 q 664 445 667 457 q 654 425 661 433 q 642 414 650 418 q 626 407 635 410 q 605 403 615 404 q 583 400 594 401 q 451 397 517 393 q 319 397 386 400 q 325 306 319 351 q 331 217 331 261 q 431 219 381 215 q 532 229 482 222 q 578 236 556 232 q 624 238 600 240 q 652 233 638 238 q 676 217 667 228 q 685 196 682 210 q 688 166 688 182 q 688 135 689 150 q 685 111 686 121 q 672 81 682 93 q 635 57 661 65 q 581 44 610 49 q 522 38 551 39 q 475 36 493 36 m 561 -39 q 481 -47 521 -43 q 400 -51 440 -51 q 340 -49 369 -51 q 281 -40 311 -46 q 273 -32 274 -39 q 279 -22 272 -25 q 297 -24 283 -22 q 315 -25 311 -25 q 436 -27 376 -32 q 557 -15 496 -22 q 571 -17 565 -14 q 577 -25 576 -21 q 574 -33 578 -29 q 561 -39 569 -37 z "},"F":{"ha":735,"x_min":33,"x_max":728,"o":"m 58 951 q 40 945 46 939 q 44 965 33 951 q 90 1005 64 989 q 144 1028 115 1021 q 194 1031 168 1033 q 243 1018 219 1028 q 269 1006 250 1015 q 294 992 289 996 q 302 975 301 985 q 293 963 303 965 q 278 965 286 961 q 264 974 271 969 q 201 1000 236 992 q 135 999 167 1008 q 93 979 113 992 q 58 951 74 967 m 276 14 q 243 10 264 11 q 201 11 222 10 q 162 17 181 13 q 133 32 143 22 q 117 63 124 40 q 104 110 110 85 q 94 160 99 136 q 89 199 90 185 q 68 367 76 282 q 53 536 60 451 q 47 633 50 575 q 47 751 43 692 q 66 860 51 810 q 113 933 81 910 q 160 954 135 950 q 211 951 186 958 q 257 928 236 944 q 292 888 278 913 q 410 913 351 903 q 531 928 469 924 q 601 931 565 931 q 668 917 636 931 q 711 876 699 906 q 722 804 728 842 q 683 750 717 767 q 641 740 671 743 q 577 734 611 736 q 513 731 543 732 q 468 728 482 729 q 401 719 435 725 q 335 710 368 714 q 336 645 335 678 q 344 581 338 613 q 400 587 363 583 q 479 592 438 590 q 558 593 521 594 q 614 586 596 592 q 641 567 629 581 q 660 536 653 553 q 667 506 664 524 q 672 472 671 489 q 669 439 672 454 q 654 415 665 424 q 633 406 644 408 q 610 400 621 403 q 472 383 542 385 q 333 374 403 382 q 341 307 335 351 q 353 215 347 263 q 359 123 358 167 q 351 60 360 79 q 320 28 342 40 q 276 14 299 17 m 443 303 q 424 303 433 300 q 419 311 419 306 q 422 319 418 317 q 429 322 425 322 q 438 322 433 321 q 468 328 446 324 q 515 335 490 332 q 563 340 540 338 q 594 342 585 342 q 610 331 606 340 q 604 315 615 321 q 581 313 599 313 q 556 314 563 314 q 499 310 528 313 q 443 303 471 307 z "},"G":{"ha":744,"x_min":31,"x_max":724,"o":"m 81 839 q 65 837 74 832 q 61 851 56 842 q 126 938 85 900 q 218 992 168 975 q 232 995 222 993 q 253 999 242 997 q 274 1003 264 1001 q 289 1004 285 1004 q 300 993 299 1003 q 292 981 301 983 q 270 978 281 978 q 249 976 260 979 q 172 938 207 967 q 123 895 146 918 q 83 844 100 872 q 81 839 81 839 m 464 29 q 288 45 372 14 q 143 147 203 76 q 86 237 108 188 q 51 338 64 286 q 32 519 31 426 q 60 699 33 611 q 124 814 79 763 q 220 894 164 863 q 339 935 276 925 q 401 940 369 940 q 463 932 432 939 q 553 894 510 921 q 624 831 596 868 q 650 785 639 810 q 664 733 661 760 q 656 650 671 690 q 631 623 649 631 q 594 622 613 615 q 581 630 588 625 q 572 642 575 635 q 567 662 568 651 q 567 683 567 672 q 565 721 565 703 q 557 758 564 739 q 542 789 551 774 q 518 813 533 804 q 483 819 501 821 q 447 807 464 817 q 413 783 429 797 q 386 753 397 768 q 353 683 364 721 q 336 608 343 646 q 327 456 325 532 q 347 304 329 379 q 364 247 354 275 q 390 196 374 219 q 416 167 401 181 q 450 146 431 153 q 503 144 478 136 q 544 172 526 153 q 574 211 563 190 q 592 258 586 233 q 597 308 597 283 q 543 301 569 304 q 489 300 517 297 q 469 303 478 301 q 451 311 460 304 q 427 352 432 324 q 432 401 422 381 q 451 425 439 417 q 490 435 464 431 q 544 442 515 440 q 601 445 574 444 q 642 446 628 446 q 685 436 667 446 q 708 408 700 426 q 719 371 717 390 q 721 313 724 343 q 711 254 718 283 q 704 224 707 239 q 694 196 701 210 q 672 158 685 176 q 644 124 660 139 q 561 62 608 86 q 464 29 514 38 m 575 -29 q 561 -35 571 -32 q 541 -42 551 -39 q 521 -49 531 -46 q 506 -50 511 -51 q 497 -40 499 -47 q 501 -29 494 -33 q 515 -24 504 -26 q 529 -18 526 -21 q 597 14 564 -6 q 653 61 629 33 q 672 65 663 72 q 672 47 682 58 q 627 3 651 24 q 575 -29 603 -17 z "},"H":{"ha":867,"x_min":31,"x_max":815,"o":"m 526 888 q 519 878 525 881 q 510 881 514 875 q 509 909 500 892 q 528 938 518 926 q 594 978 554 965 q 672 993 633 990 q 692 992 679 993 q 718 990 704 992 q 743 984 732 988 q 760 975 754 981 q 764 957 769 968 q 747 949 758 946 q 736 953 740 949 q 704 962 721 960 q 672 964 688 964 q 601 951 636 961 q 576 942 589 947 q 554 926 564 936 q 540 913 550 924 q 528 897 531 901 q 527 892 528 896 q 526 888 526 889 m 307 18 q 260 17 283 15 q 217 25 238 18 q 169 51 188 32 q 152 76 158 63 q 143 106 146 90 q 133 187 139 126 q 119 317 126 247 q 107 447 113 386 q 99 528 101 507 q 72 653 90 592 q 40 776 54 714 q 33 822 35 799 q 38 867 31 844 q 63 915 46 892 q 104 949 81 938 q 146 961 121 956 q 197 969 171 967 q 248 968 224 971 q 288 956 272 965 q 326 918 310 940 q 353 871 342 896 q 363 832 360 851 q 369 792 367 813 q 381 668 376 729 q 388 544 385 607 q 453 549 419 547 q 519 551 486 550 q 537 551 524 551 q 554 550 550 551 q 553 553 553 551 l 553 557 q 544 663 547 610 q 546 769 542 717 q 550 808 547 789 q 564 844 553 828 q 592 870 572 860 q 635 887 611 881 q 683 894 658 893 q 725 894 707 896 q 748 891 736 893 q 771 882 760 889 q 800 846 790 868 q 809 807 807 826 q 813 768 811 788 q 813 678 814 724 q 811 586 811 632 q 810 451 810 518 q 813 317 811 383 q 814 257 813 293 q 813 183 815 221 q 801 113 810 146 q 776 67 793 81 q 736 50 760 54 q 647 49 693 40 q 617 60 632 51 q 596 83 603 69 q 583 123 585 101 q 581 165 582 144 q 576 283 578 224 q 568 401 575 343 q 558 400 564 400 q 547 400 553 400 q 472 398 510 400 q 396 390 433 396 q 405 320 399 365 q 415 226 411 275 q 417 133 418 176 q 403 68 415 89 q 360 33 388 44 q 307 18 333 21 m 250 -43 q 255 -56 257 -47 q 243 -67 253 -65 q 226 -65 238 -67 q 203 -60 215 -62 q 178 -56 190 -58 q 163 -51 167 -53 q 122 -31 140 -44 q 92 10 103 -14 q 75 60 82 35 q 64 137 65 97 q 60 215 63 176 q 59 230 60 219 q 57 251 58 240 q 56 273 56 263 q 56 286 56 283 q 63 294 56 293 q 72 289 69 296 q 75 274 74 285 q 77 252 76 264 q 79 230 78 240 q 81 215 81 219 q 89 125 85 171 q 110 38 93 79 q 119 15 114 26 q 133 -3 125 4 q 157 -18 144 -12 q 182 -28 169 -24 q 196 -31 186 -29 q 217 -34 206 -32 q 237 -38 228 -36 q 250 -43 246 -40 z "},"I":{"ha":411,"x_min":39,"x_max":371,"o":"m 371 821 q 365 811 371 814 q 354 811 360 808 q 346 825 347 817 q 342 840 344 833 q 320 895 333 868 q 288 946 307 922 q 262 969 276 958 q 232 988 247 981 q 217 993 228 989 q 201 996 206 997 q 192 1002 194 994 q 197 1013 190 1010 q 231 1013 208 1019 q 264 999 253 1006 q 300 972 283 989 q 328 936 317 956 q 339 913 332 929 q 353 880 346 897 q 365 846 360 863 q 371 821 369 829 m 221 68 q 161 72 192 68 q 106 92 131 76 q 65 133 82 107 q 43 186 49 158 q 40 255 39 206 q 46 359 42 304 q 54 463 50 414 q 60 533 58 513 q 69 647 65 590 q 75 760 72 703 q 72 823 76 792 q 72 885 67 854 q 78 911 75 899 q 92 933 82 924 q 107 944 99 940 q 124 950 115 947 q 206 947 165 961 q 274 899 247 932 q 308 837 294 871 q 329 769 321 803 q 350 659 344 715 q 358 546 356 603 q 360 419 361 482 q 356 292 358 356 q 351 230 354 264 q 338 164 347 196 q 313 107 329 132 q 271 75 297 82 q 246 71 258 72 q 221 68 233 69 z "},"J":{"ha":803,"x_min":4,"x_max":767,"o":"m 465 32 q 339 14 403 17 q 213 22 275 11 q 133 43 172 29 q 61 81 94 57 q 28 118 42 96 q 11 164 14 140 q 15 208 8 185 q 35 254 22 232 q 64 294 47 276 q 99 322 81 313 q 148 333 122 333 q 197 324 174 332 q 232 306 217 317 q 264 286 247 296 q 307 274 283 275 q 353 278 331 272 q 397 298 376 285 q 432 329 418 311 q 469 397 456 360 q 488 472 482 435 q 501 676 503 574 q 486 881 500 779 q 483 918 483 899 q 493 954 483 938 q 513 972 500 965 q 539 982 526 979 q 569 986 549 983 q 613 990 590 989 q 657 991 636 992 q 688 988 678 990 q 731 950 718 976 q 748 906 743 929 q 756 858 753 882 q 765 630 767 744 q 744 403 764 515 q 720 291 736 346 q 676 188 704 236 q 641 135 661 160 q 596 92 621 111 q 534 55 568 69 q 465 32 500 40 m 292 379 q 297 367 299 375 q 288 360 294 360 q 269 364 281 360 q 247 374 258 368 q 224 387 235 381 q 208 396 214 393 q 179 408 193 403 q 150 415 165 413 q 111 415 131 418 q 74 406 92 413 q 46 389 58 399 q 21 368 33 379 q 10 369 15 365 q 7 378 4 372 q 22 398 11 388 q 48 417 33 408 q 76 431 63 425 q 101 439 90 436 q 161 439 131 444 q 219 419 192 433 q 257 401 239 410 q 292 379 275 392 z "},"K":{"ha":782,"x_min":50,"x_max":768,"o":"m 258 58 q 213 45 239 49 q 160 45 186 42 q 111 59 135 49 q 74 86 88 69 q 53 128 57 103 q 50 173 50 140 q 51 242 50 206 q 55 310 53 278 q 57 356 57 343 q 58 399 57 368 q 59 471 58 431 q 61 557 60 511 q 63 643 63 603 q 65 715 64 683 q 65 758 65 746 q 63 794 65 769 q 59 847 61 819 q 57 898 57 874 q 61 932 57 922 q 81 951 67 944 q 111 959 94 957 q 145 960 128 961 q 176 958 163 960 q 215 951 196 956 q 249 936 233 946 q 285 897 271 922 q 299 852 296 876 q 306 803 303 828 q 308 748 307 789 q 308 660 308 707 q 308 573 308 614 q 308 518 308 532 q 451 676 385 589 q 478 715 458 686 q 521 776 499 743 q 563 838 543 810 q 590 876 582 867 q 606 891 597 883 q 625 903 614 899 q 658 904 640 911 q 694 879 678 896 q 715 843 710 863 q 711 794 719 819 q 697 756 706 775 q 678 719 689 738 q 627 646 654 682 q 569 578 600 610 q 522 529 546 553 q 476 479 499 506 q 477 476 475 478 q 481 474 479 475 q 538 420 507 444 q 601 374 569 396 q 674 328 639 347 q 723 303 697 317 q 760 265 749 289 q 767 224 768 246 q 756 181 765 203 q 733 141 747 160 q 703 110 719 122 q 647 83 678 92 q 586 78 617 75 q 551 87 568 81 q 519 101 535 93 q 469 139 492 118 q 424 183 446 160 q 372 241 396 211 q 322 301 347 271 q 326 239 325 269 q 325 176 328 208 q 319 140 322 158 q 307 106 315 122 q 258 58 289 75 m 646 10 q 576 -2 614 -4 q 507 14 539 0 q 487 24 501 17 q 469 35 472 31 q 465 51 463 42 q 475 57 467 60 q 484 53 478 56 q 493 49 490 50 q 546 31 518 38 q 601 25 574 24 q 647 34 625 26 q 689 53 668 42 q 702 61 692 56 q 715 68 713 67 q 727 64 722 71 q 725 51 732 57 q 687 28 707 38 q 646 10 667 18 z "},"L":{"ha":658,"x_min":42,"x_max":660,"o":"m 453 957 q 447 947 453 950 q 433 947 440 943 q 388 985 408 963 q 339 1019 367 1007 q 270 1042 307 1036 q 197 1046 233 1049 q 163 1040 178 1046 q 144 1045 150 1035 q 151 1061 139 1056 q 189 1072 169 1069 q 228 1074 208 1074 q 286 1068 257 1072 q 342 1051 315 1064 q 386 1024 365 1040 q 426 990 407 1008 q 442 974 432 985 q 453 957 453 964 m 518 76 q 384 49 451 60 q 247 39 317 39 q 184 44 215 39 q 125 64 153 49 q 98 85 110 72 q 76 114 86 99 q 56 164 63 138 q 47 218 50 190 q 42 310 42 264 q 46 401 43 356 q 56 603 49 503 q 78 803 63 703 q 81 832 79 813 q 88 873 83 851 q 97 913 92 894 q 108 940 101 932 q 150 969 124 961 q 206 976 176 978 q 267 967 236 975 q 321 949 297 960 q 357 915 344 938 q 373 869 369 894 q 375 821 376 844 q 365 740 372 781 q 349 660 357 700 q 319 450 329 556 q 304 239 308 344 q 364 261 335 249 q 422 286 393 274 q 448 298 429 289 q 488 317 467 307 q 529 335 510 326 q 556 346 549 343 q 572 350 564 349 q 589 349 581 351 q 615 335 603 346 q 651 272 643 310 q 656 212 660 243 q 640 153 653 181 q 611 115 632 132 q 567 92 592 100 q 518 76 542 83 z "},"M":{"ha":1171,"x_min":33,"x_max":1142,"o":"m 489 978 q 477 980 482 976 q 467 986 472 983 q 419 1004 444 1000 q 367 1010 393 1008 q 324 1008 346 1010 q 282 1003 303 1007 q 265 997 279 1001 q 247 992 250 993 q 233 999 238 990 q 235 1014 228 1007 q 260 1027 243 1022 q 296 1034 276 1032 q 334 1037 315 1036 q 365 1036 353 1038 q 399 1032 382 1033 q 435 1026 417 1031 q 459 1016 447 1022 q 482 1003 471 1010 q 495 989 490 997 q 489 978 500 981 m 1061 114 q 1021 94 1046 101 q 969 84 996 86 q 915 86 942 82 q 871 99 889 90 q 829 144 842 113 q 820 189 821 165 q 821 236 819 213 q 822 265 821 243 q 826 310 824 286 q 830 354 828 333 q 832 382 832 375 q 841 510 836 447 q 839 639 846 574 q 834 667 838 651 q 825 697 831 682 q 811 723 819 711 q 790 738 803 735 q 769 731 779 740 q 754 711 760 722 q 729 638 736 676 q 718 561 722 600 q 704 434 710 497 q 686 308 699 371 q 677 278 683 293 q 660 251 671 263 q 636 236 649 240 q 609 228 626 232 q 583 231 592 225 q 580 231 582 232 q 576 229 578 229 q 541 235 558 229 q 511 253 524 240 q 490 294 496 271 q 481 340 483 317 q 464 472 469 407 q 449 604 458 538 q 439 652 444 628 q 424 700 433 676 q 403 733 417 718 q 374 738 390 747 q 354 717 361 728 q 340 683 344 701 q 333 647 336 665 q 331 490 325 568 q 344 332 338 411 q 350 265 347 299 q 351 196 353 231 q 345 156 350 176 q 326 119 340 135 q 285 94 310 101 q 236 86 260 88 q 171 89 204 83 q 113 114 138 94 q 83 149 94 128 q 67 193 72 171 q 56 247 60 221 q 49 301 51 274 q 39 397 42 350 q 35 492 36 443 q 43 634 33 563 q 81 772 53 706 q 132 861 100 819 q 207 931 164 903 q 268 960 235 950 q 335 971 301 971 q 456 921 406 971 q 508 850 488 889 q 542 771 528 811 q 569 657 560 714 q 586 542 579 600 q 605 672 593 607 q 640 797 617 736 q 682 878 657 839 q 744 942 707 918 q 828 969 785 968 q 914 954 872 971 q 992 906 956 938 q 1056 836 1029 875 q 1106 731 1088 788 q 1131 617 1124 675 q 1135 440 1142 529 q 1118 263 1129 351 q 1111 217 1115 239 q 1099 171 1107 194 q 1084 140 1093 156 q 1061 114 1075 125 m 976 8 q 950 6 971 7 q 922 6 929 6 q 867 14 894 4 q 815 39 839 24 q 767 78 785 56 q 742 133 750 100 q 738 149 740 138 q 734 172 736 160 q 731 196 732 185 q 729 213 729 207 q 743 226 729 225 q 760 215 757 226 q 767 170 765 193 q 776 126 769 147 q 810 78 788 96 q 869 44 836 57 q 935 32 901 31 q 958 33 942 32 q 981 29 975 33 q 985 18 988 25 q 976 8 983 11 z "},"N":{"ha":858,"x_min":39,"x_max":828,"o":"m 803 817 q 798 801 807 806 q 782 806 789 796 q 753 844 767 825 q 722 878 740 863 q 688 903 707 893 q 650 919 669 913 q 631 926 646 921 q 611 933 615 932 q 582 936 596 936 q 554 936 568 936 q 542 936 547 936 q 531 939 536 936 q 529 953 521 944 q 544 957 535 957 q 605 959 575 960 q 663 949 635 958 q 747 897 708 933 q 803 817 786 861 m 293 96 q 224 61 267 68 q 146 64 182 54 q 119 76 132 68 q 96 96 106 85 q 76 153 82 114 q 67 238 69 193 q 64 324 64 282 q 64 389 64 367 q 59 567 63 479 q 49 744 56 656 q 43 796 47 771 q 39 847 39 821 q 42 875 39 861 q 51 900 44 889 q 76 922 61 914 q 109 934 92 931 q 144 936 126 938 q 178 929 163 935 q 206 909 194 922 q 226 881 218 896 q 249 815 243 849 q 263 746 256 781 q 332 827 288 794 q 429 875 376 860 q 539 887 482 890 q 646 861 596 883 q 717 807 685 843 q 758 745 740 779 q 786 675 775 711 q 821 508 814 594 q 818 339 828 422 q 795 217 811 276 q 747 104 779 157 q 723 83 739 90 q 692 72 707 75 q 660 70 681 69 q 619 73 640 71 q 580 80 599 75 q 551 92 561 85 q 528 118 536 101 q 519 151 521 135 q 524 235 517 193 q 539 319 532 278 q 558 444 549 382 q 565 571 567 507 q 560 627 564 599 q 543 681 556 656 q 501 728 529 713 q 467 734 485 735 q 431 726 449 733 q 397 706 413 718 q 371 681 381 694 q 340 624 351 654 q 321 561 328 593 q 309 472 310 517 q 312 381 308 426 q 320 288 315 335 q 325 196 325 242 q 319 142 325 169 q 293 96 313 115 z "},"O":{"ha":832,"x_min":18,"x_max":808,"o":"m 610 88 q 487 38 553 54 q 354 28 421 21 q 253 52 303 32 q 163 104 203 72 q 78 210 110 147 q 33 339 47 272 q 26 506 18 421 q 67 667 35 590 q 112 744 83 707 q 176 806 140 781 q 204 820 190 814 q 233 832 218 826 q 242 849 233 839 q 258 864 251 860 q 291 892 274 879 q 328 914 308 904 q 453 943 386 942 q 582 924 521 944 q 650 890 618 911 q 707 840 682 869 q 747 781 731 814 q 774 715 763 749 q 804 554 800 638 q 796 390 808 471 q 772 293 788 342 q 729 203 757 244 q 676 138 706 168 q 610 88 646 108 m 407 181 q 477 169 439 168 q 546 188 515 171 q 594 226 572 203 q 631 275 615 249 q 667 371 657 319 q 679 474 678 422 q 672 581 681 526 q 639 685 664 636 q 614 723 629 704 q 580 756 599 742 q 540 777 561 771 q 497 778 518 783 q 454 751 472 771 q 426 707 436 731 q 412 649 414 679 q 414 589 410 618 q 450 506 421 542 q 522 456 479 471 q 553 446 538 451 q 581 429 569 440 q 594 388 599 411 q 567 350 589 364 q 513 331 543 335 q 456 335 483 328 q 425 347 440 339 q 396 367 410 356 q 351 415 369 386 q 322 474 333 443 q 304 528 311 501 q 292 582 297 554 q 276 488 281 536 q 274 390 272 439 q 339 228 276 297 q 371 200 354 213 q 407 181 388 188 m 471 -56 q 408 -62 440 -61 q 346 -53 376 -64 q 342 -42 338 -50 q 357 -35 347 -35 q 370 -36 360 -35 q 383 -37 381 -37 q 473 -31 428 -40 q 560 -4 518 -21 q 649 44 607 15 q 659 54 651 47 q 669 63 667 61 q 686 58 681 69 q 682 39 692 47 q 583 -21 636 3 q 471 -56 529 -44 z "},"P":{"ha":818,"x_min":40,"x_max":804,"o":"m 769 925 q 767 914 772 918 q 756 913 763 910 q 739 928 751 915 q 722 944 726 942 q 658 983 694 969 q 583 1007 621 997 q 551 1012 572 1010 q 508 1015 531 1014 q 465 1014 486 1015 q 435 1008 444 1013 q 429 1005 433 1007 q 424 1001 425 1003 q 409 1006 415 999 q 408 1021 403 1013 q 421 1031 413 1026 q 440 1037 429 1035 q 460 1040 450 1039 q 478 1042 471 1042 q 518 1044 497 1043 q 558 1043 539 1044 q 689 1004 626 1036 q 716 984 704 996 q 739 960 728 972 q 745 952 740 957 q 755 942 750 947 q 764 932 760 938 q 769 925 768 926 m 290 29 q 242 18 269 21 q 185 19 214 15 q 132 32 157 22 q 93 60 107 42 q 69 126 72 88 q 69 181 67 154 q 75 235 72 207 q 76 406 82 321 q 61 576 71 490 q 51 658 58 607 q 42 763 44 710 q 46 862 40 815 q 74 932 51 908 q 135 962 97 956 q 206 957 174 968 q 253 926 233 950 q 272 889 265 910 q 286 849 279 868 q 322 890 301 871 q 365 922 342 908 q 419 943 390 936 q 475 953 447 950 q 540 957 507 957 q 606 947 574 957 q 670 915 640 936 q 724 868 700 894 q 782 764 763 824 q 801 629 804 697 q 772 503 799 561 q 698 399 746 444 q 583 333 650 354 q 464 321 524 314 q 391 338 426 324 q 324 372 356 351 q 332 305 325 349 q 344 215 339 261 q 349 126 349 168 q 336 64 349 83 q 316 43 328 53 q 290 29 304 33 m 361 622 q 379 565 363 590 q 421 522 396 539 q 476 501 446 506 q 536 508 507 497 q 596 557 572 522 q 625 629 619 592 q 622 681 629 656 q 600 728 615 707 q 562 763 585 749 q 513 781 539 776 q 447 771 478 785 q 412 745 428 761 q 384 709 396 729 q 366 666 372 689 q 361 622 360 643 z "},"Q":{"ha":860,"x_min":29,"x_max":840,"o":"m 819 -61 q 742 -105 790 -99 q 656 -83 694 -111 q 594 -12 618 -56 q 554 76 571 32 q 479 56 518 63 q 401 50 440 50 q 299 65 350 51 q 206 106 247 78 q 96 224 136 151 q 43 382 56 297 q 43 555 31 467 q 93 717 56 643 q 157 799 117 763 q 246 853 197 836 q 256 865 250 854 q 264 879 261 876 q 317 921 288 903 q 379 950 347 939 q 480 964 428 964 q 581 949 532 964 q 683 899 638 933 q 729 853 708 879 q 765 797 750 826 q 806 685 793 744 q 821 565 818 625 q 815 436 824 500 q 785 311 806 372 q 742 223 769 265 q 678 149 714 181 q 731 94 701 118 q 793 47 761 69 q 818 26 806 38 q 835 -1 831 14 q 835 -33 840 -17 q 819 -61 829 -49 m 44 757 q 35 753 42 751 q 29 763 29 756 q 36 796 31 779 q 50 828 42 813 q 85 865 65 849 q 125 897 104 882 q 141 908 129 900 q 165 923 153 915 q 189 937 178 931 q 206 944 200 943 q 219 944 214 947 q 227 936 225 942 q 227 925 229 931 q 217 917 225 919 q 179 897 197 908 q 143 875 161 886 q 103 844 122 861 q 68 807 83 828 q 57 782 61 796 q 44 757 53 768 m 640 435 q 644 403 644 425 q 642 358 644 382 q 637 311 640 333 q 633 278 633 289 q 681 393 667 331 q 693 518 696 456 q 685 615 693 567 q 654 704 676 663 q 586 782 631 754 q 556 797 572 792 q 525 801 540 803 q 495 792 510 800 q 469 774 481 785 q 428 686 438 739 q 432 588 419 633 q 447 552 438 569 q 469 522 456 535 q 499 503 483 510 q 533 490 515 496 q 576 480 554 485 q 615 464 597 475 q 640 435 631 454 m 433 197 q 524 196 476 185 q 517 274 518 235 q 518 353 517 313 q 457 363 485 350 q 399 399 425 375 q 356 453 372 422 q 325 526 336 488 q 306 604 314 564 q 290 507 294 556 q 288 410 286 458 q 303 331 289 369 q 342 263 317 293 q 383 223 360 240 q 433 197 406 206 z "},"R":{"ha":914,"x_min":40,"x_max":896,"o":"m 890 610 q 878 600 888 600 q 865 608 869 600 q 865 626 864 613 q 867 644 865 639 l 867 682 q 839 814 867 750 q 763 922 811 878 q 742 939 757 926 q 724 958 726 951 q 731 975 718 972 q 734 974 733 975 q 738 972 735 972 q 769 957 754 967 q 797 935 783 947 q 858 854 835 901 q 887 770 878 814 q 896 682 896 726 q 895 667 896 678 q 894 645 894 657 q 892 624 893 633 q 890 610 892 614 m 725 3 q 697 0 711 -1 q 668 7 682 1 q 585 56 624 25 q 519 117 549 83 q 461 186 489 151 q 397 276 425 229 q 333 367 368 322 q 328 369 333 367 q 324 372 325 371 q 332 305 325 349 q 344 215 339 261 q 349 126 349 168 q 336 64 349 83 q 316 43 328 53 q 290 29 304 33 q 242 18 269 21 q 185 19 214 15 q 132 32 157 22 q 93 60 107 42 q 69 126 72 88 q 69 181 67 154 q 75 235 72 207 q 76 406 82 321 q 61 576 71 490 q 51 658 58 607 q 42 763 44 710 q 46 862 40 815 q 74 932 51 908 q 135 962 97 956 q 206 957 174 968 q 253 926 233 950 q 272 889 265 910 q 286 849 279 868 q 322 890 301 871 q 365 922 342 908 q 419 943 390 936 q 475 953 447 950 q 540 957 507 957 q 606 947 574 957 q 670 915 640 936 q 724 868 700 894 q 782 764 763 824 q 802 638 803 704 q 778 514 801 572 q 677 381 746 433 q 522 321 608 329 q 603 264 560 289 q 693 219 647 239 q 719 209 701 215 q 757 194 738 203 q 793 177 776 186 q 815 161 810 168 q 824 135 824 150 q 819 103 825 119 q 806 72 814 88 q 789 46 797 57 q 761 19 778 31 q 725 3 744 7 m 361 622 q 379 565 363 590 q 421 522 396 539 q 476 501 446 506 q 536 508 507 497 q 596 557 572 522 q 625 629 619 592 q 622 681 629 656 q 600 728 615 707 q 562 763 585 749 q 513 781 539 776 q 447 771 478 785 q 412 745 428 761 q 384 709 396 729 q 366 666 372 689 q 361 622 360 643 z "},"S":{"ha":718,"x_min":38,"x_max":690,"o":"m 79 911 q 65 917 68 907 q 67 938 61 928 q 75 949 68 942 q 90 965 82 957 q 104 979 97 972 q 115 989 111 986 q 140 1006 128 999 q 165 1021 151 1014 q 226 1042 194 1035 q 289 1051 257 1049 q 308 1039 307 1053 q 292 1021 308 1025 q 190 992 240 1010 q 104 936 139 974 q 92 923 101 933 q 79 911 83 913 m 356 67 q 283 62 319 64 q 211 60 247 60 q 161 63 186 61 q 113 72 136 65 q 63 101 82 82 q 43 141 49 117 q 38 192 38 165 q 45 245 39 219 q 61 290 51 271 q 78 313 68 303 q 100 328 88 324 q 131 331 115 333 q 161 326 146 329 q 245 317 203 319 q 329 307 288 314 q 367 312 350 304 q 395 333 385 319 q 406 363 406 347 q 392 394 406 379 q 374 406 385 401 q 353 413 364 410 q 270 434 311 422 q 190 464 229 446 q 139 490 164 475 q 94 526 114 506 q 70 559 81 542 q 53 596 60 576 q 42 658 43 626 q 46 722 42 690 q 57 778 50 750 q 78 829 64 806 q 131 892 99 865 q 200 938 164 918 q 338 983 265 969 q 482 994 410 997 q 551 990 517 993 q 615 972 585 988 q 651 943 635 963 q 673 898 665 924 q 681 845 681 872 q 675 793 682 818 q 653 750 668 768 q 628 732 642 739 q 599 722 614 725 q 544 724 571 718 q 489 732 517 729 q 392 729 443 738 q 350 720 371 726 q 311 703 329 714 q 265 638 275 681 q 263 617 263 628 q 269 597 264 606 q 310 569 281 579 q 375 553 340 558 q 444 544 410 547 q 500 539 479 542 q 546 532 524 536 q 589 519 568 528 q 653 468 626 504 q 676 422 668 447 q 686 369 683 396 q 678 268 690 319 q 638 175 665 217 q 599 133 622 151 q 551 103 576 114 q 456 76 506 82 q 356 67 406 69 m 501 -1 q 481 -5 496 -3 q 450 -9 467 -7 q 418 -13 433 -11 q 397 -15 403 -15 q 383 -10 388 -15 q 377 1 378 -6 q 381 14 376 8 q 394 21 385 19 q 424 23 403 21 q 469 27 446 25 q 512 32 492 29 q 540 38 532 35 q 556 32 551 42 q 553 15 561 22 q 528 3 542 6 q 501 -1 515 1 z "},"T":{"ha":739,"x_min":-6,"x_max":749,"o":"m 322 1026 q 121 1022 222 1022 l 93 1022 q 82 1033 82 1024 q 93 1043 82 1042 q 132 1044 103 1043 q 194 1045 161 1044 q 257 1047 228 1046 q 294 1047 286 1047 q 322 1048 301 1047 q 349 1046 342 1049 q 354 1038 354 1043 q 347 1029 354 1032 q 335 1027 344 1028 q 322 1026 325 1026 m 458 57 q 400 45 431 46 q 342 51 369 44 q 304 64 322 57 q 271 83 286 71 q 255 99 263 90 q 244 119 247 108 q 238 149 239 135 q 236 178 236 163 q 242 269 238 224 q 250 360 246 314 q 259 584 260 472 q 253 808 258 696 q 235 807 249 808 q 208 805 222 806 q 181 803 193 804 q 164 801 168 801 q 122 796 143 799 q 79 794 100 793 q 33 804 53 794 q 13 827 21 813 q 0 860 4 842 q -5 896 -4 878 q -3 928 -6 914 q 3 944 0 936 q 13 960 6 953 q 49 976 25 974 q 85 977 67 978 q 122 976 103 976 q 228 980 175 976 q 335 983 282 983 q 376 983 344 983 q 441 983 407 983 q 506 983 475 983 q 547 983 536 983 q 660 983 603 988 q 690 979 675 982 q 718 967 706 976 q 743 917 738 950 q 738 861 749 885 q 699 822 726 836 q 638 801 672 808 q 569 793 604 794 q 507 793 533 792 q 510 778 508 789 q 510 764 513 768 q 512 760 510 763 q 514 757 514 758 q 528 673 522 715 q 539 588 533 631 q 552 476 546 531 q 561 364 558 421 q 563 275 564 319 q 554 188 563 231 q 528 114 547 146 q 458 57 501 74 m 521 7 q 423 -24 476 -18 q 319 -18 369 -29 q 301 -13 313 -17 q 277 -5 289 -10 q 255 5 265 0 q 240 15 244 10 q 239 26 238 21 q 247 32 240 32 q 260 28 251 33 q 327 5 292 11 q 399 -1 363 -1 q 461 8 431 0 q 518 33 492 17 q 538 42 529 40 q 548 38 544 43 q 549 26 551 32 q 521 7 540 17 z "},"U":{"ha":932,"x_min":43,"x_max":913,"o":"m 854 585 q 841 569 854 571 q 825 582 828 568 q 821 624 822 593 q 817 690 819 656 q 815 755 815 724 q 814 797 814 786 q 813 863 815 829 q 794 924 810 896 q 768 960 783 943 q 732 986 753 978 q 709 988 721 990 q 686 990 697 986 q 678 1001 678 993 q 688 1011 679 1008 q 711 1015 694 1014 q 735 1014 728 1015 q 758 1003 747 1011 q 779 988 768 996 q 813 948 799 971 q 833 900 828 925 q 844 801 844 851 q 847 701 844 751 q 849 679 847 696 q 851 643 850 663 q 853 607 851 624 q 854 585 854 590 m 463 79 q 407 63 436 67 q 350 61 378 58 q 272 75 310 63 q 201 110 233 88 q 136 168 165 133 q 89 243 107 203 q 67 304 75 272 q 54 368 60 336 q 43 492 43 431 q 47 617 43 554 q 52 683 49 639 q 62 773 56 726 q 77 861 68 819 q 100 921 86 903 q 143 953 117 944 q 190 960 164 960 q 242 956 217 961 q 289 938 267 950 q 324 908 311 926 q 339 874 335 893 q 343 835 343 854 q 331 753 342 793 q 310 672 321 713 q 281 502 288 589 q 289 331 275 415 q 299 288 292 308 q 321 251 306 267 q 360 231 336 236 q 404 232 385 225 q 431 247 419 236 q 450 271 443 258 q 479 337 469 303 q 493 407 489 371 q 508 542 504 474 q 518 678 511 610 q 524 725 519 693 q 533 792 528 757 q 544 860 538 828 q 560 904 551 892 q 574 919 565 913 q 593 928 583 925 q 631 936 611 935 q 671 935 651 938 q 721 917 701 932 q 744 892 736 907 q 757 860 753 876 q 771 760 771 811 q 775 660 771 710 q 788 554 779 607 q 814 450 797 501 q 847 363 828 406 q 885 278 865 321 q 904 222 896 251 q 906 165 913 193 q 879 124 900 142 q 836 98 861 107 q 788 89 811 89 q 736 103 757 92 q 699 139 714 117 q 676 187 683 161 q 663 238 668 213 q 650 292 656 265 q 638 347 644 319 q 609 251 626 299 q 563 164 592 204 q 518 115 543 138 q 463 79 493 93 m 347 -14 q 317 -17 339 -18 q 286 -14 294 -15 q 210 -2 249 -10 q 139 25 172 6 q 76 85 103 47 q 65 102 72 90 q 58 121 57 114 q 70 133 61 132 q 83 125 79 135 q 97 104 89 114 q 113 86 104 94 q 188 39 144 54 q 217 32 197 36 q 260 24 238 28 q 304 18 283 21 q 335 17 325 15 q 356 13 349 19 q 359 -3 363 6 q 347 -14 356 -11 z "},"V":{"ha":826,"x_min":3,"x_max":808,"o":"m 582 990 q 571 988 578 983 q 567 999 564 992 q 599 1026 574 1013 q 640 1044 625 1039 q 794 1032 721 1068 q 803 1018 804 1028 q 792 1008 801 1008 q 781 1012 785 1008 q 771 1018 776 1015 q 702 1032 739 1032 q 632 1021 665 1032 q 606 1008 624 1018 q 582 990 588 997 m 519 79 q 473 56 500 64 q 417 49 446 49 q 360 58 388 50 q 313 81 333 65 q 272 121 289 97 q 244 169 256 144 q 215 245 226 206 q 192 325 204 285 q 134 503 164 415 q 72 679 104 592 q 44 749 60 715 q 14 815 29 782 q 4 851 7 832 q 14 897 3 876 q 44 933 25 918 q 88 959 64 949 q 136 974 113 969 q 208 971 171 978 q 269 940 244 964 q 302 893 292 921 q 324 838 313 865 q 388 651 363 746 q 433 460 413 556 q 441 421 435 450 q 453 359 447 392 q 465 297 460 326 q 472 258 471 268 q 526 346 506 297 q 561 443 546 394 q 596 589 583 515 q 614 738 608 663 q 612 774 614 750 q 608 825 610 799 q 608 875 607 851 q 615 910 608 899 q 660 944 631 933 q 717 957 689 956 q 755 951 736 957 q 786 933 774 946 q 804 888 800 918 q 806 824 808 858 q 799 756 804 789 q 793 703 794 724 q 759 510 785 606 q 693 325 733 415 q 619 192 661 257 q 519 79 578 128 m 371 -35 q 313 -31 342 -37 q 257 -12 283 -24 q 214 21 232 -1 q 181 67 196 43 q 173 78 178 71 q 169 92 168 86 q 181 100 172 101 q 188 89 190 99 q 199 73 190 83 q 217 51 207 63 q 235 29 226 39 q 249 17 244 19 q 296 -5 271 1 q 346 -11 321 -11 q 358 -10 350 -11 q 374 -9 365 -10 q 391 -8 383 -8 q 403 -8 399 -7 q 409 -17 408 -11 q 404 -26 410 -24 q 388 -33 397 -32 q 371 -35 379 -33 z "},"W":{"ha":1169,"x_min":29,"x_max":1136,"o":"m 442 831 q 427 817 440 818 q 411 826 414 815 q 403 872 404 849 q 394 915 401 894 q 360 964 383 946 q 302 998 335 985 q 236 1010 269 1011 q 213 1010 229 1010 q 189 1013 196 1010 q 184 1024 182 1017 q 193 1033 186 1031 q 221 1036 200 1035 q 249 1038 242 1038 q 304 1028 276 1038 q 356 1004 332 1018 q 402 964 385 986 q 428 908 419 942 q 432 893 429 904 q 437 869 435 882 q 440 846 439 857 q 442 831 442 835 m 964 111 q 903 81 936 92 q 836 71 869 71 q 714 122 765 71 q 663 192 683 153 q 629 272 643 231 q 601 385 610 328 q 585 500 592 442 q 567 383 578 442 q 538 267 557 325 q 511 202 526 233 q 474 144 496 171 q 415 93 447 111 q 342 74 382 76 q 267 83 303 72 q 192 122 226 96 q 133 181 158 149 q 71 296 93 232 q 40 425 49 360 q 35 601 29 513 q 51 779 40 690 q 59 826 54 803 q 71 871 64 849 q 86 901 78 886 q 108 928 94 917 q 150 948 125 940 q 202 958 175 956 q 256 956 229 960 q 300 943 282 951 q 342 899 329 928 q 351 853 350 876 q 350 806 351 829 q 345 742 349 782 q 338 656 342 703 q 332 560 335 610 q 330 465 329 510 q 336 383 331 419 q 354 326 342 346 q 369 310 360 318 q 389 304 379 301 q 407 317 399 307 q 422 341 415 328 q 431 368 428 354 q 438 393 435 382 q 463 564 457 478 q 485 735 468 650 q 498 773 489 754 q 525 801 507 792 q 556 813 536 808 q 588 811 576 818 q 591 811 589 810 q 594 813 593 813 q 629 807 611 813 q 658 789 647 801 q 681 748 675 771 q 690 701 688 725 q 707 569 701 635 q 722 438 713 504 q 731 390 726 414 q 747 342 736 365 q 756 324 751 333 q 767 310 761 315 q 781 302 774 304 q 796 306 788 300 q 822 339 813 315 q 835 391 831 363 q 840 448 839 419 q 840 496 840 476 q 831 648 838 572 q 819 800 824 724 q 820 861 818 829 q 839 917 822 893 q 881 946 854 938 q 933 956 908 954 q 999 953 965 958 q 1057 928 1032 947 q 1087 892 1076 914 q 1104 849 1097 871 q 1115 794 1111 821 q 1122 740 1118 768 q 1131 646 1128 693 q 1136 550 1135 599 q 1126 408 1136 479 q 1089 269 1117 336 q 1038 181 1069 222 q 964 111 1007 139 m 936 28 q 910 15 928 19 q 874 8 893 10 q 835 6 854 6 q 806 6 817 6 q 770 10 788 8 q 736 15 753 11 q 689 39 710 24 q 675 54 679 46 q 682 64 671 63 q 693 62 688 65 q 704 56 699 58 q 752 38 726 43 q 803 32 778 33 q 846 33 825 32 q 888 39 867 35 q 906 44 892 40 q 924 50 919 49 q 938 43 933 51 q 936 28 943 35 z "},"X":{"ha":817,"x_min":8,"x_max":814,"o":"m 810 818 q 799 811 807 811 q 789 818 792 811 q 787 831 786 825 q 788 843 788 836 q 782 891 788 867 q 761 933 776 915 q 734 955 750 946 q 701 971 718 964 q 649 977 676 979 q 596 964 621 975 q 585 961 590 961 q 578 966 579 961 q 579 975 576 971 q 601 988 586 983 q 631 996 615 993 q 663 999 647 999 q 689 997 678 999 q 738 981 714 993 q 779 949 763 968 q 803 903 796 929 q 813 853 811 878 q 813 835 813 844 q 810 818 814 825 m 136 22 q 49 36 92 14 q 26 54 36 43 q 13 79 15 65 q 15 113 8 96 q 32 143 22 129 q 56 178 38 153 q 98 235 74 203 q 149 303 122 268 q 199 372 175 339 q 241 428 224 404 q 265 464 258 453 q 256 478 263 467 q 247 493 250 490 q 167 599 211 549 q 86 704 124 649 q 72 727 79 715 q 60 751 64 739 q 64 849 43 801 q 88 881 72 865 q 125 909 104 897 q 167 928 146 921 q 208 933 189 935 q 247 923 228 932 q 281 901 265 914 q 347 831 318 869 q 404 754 376 793 q 411 745 406 751 q 422 731 417 739 q 433 717 428 724 q 439 708 438 711 q 487 777 463 743 q 540 843 511 811 q 574 873 556 858 q 611 894 592 888 q 656 898 635 904 q 690 876 676 892 q 709 837 704 860 q 706 790 714 814 q 683 751 697 769 q 654 717 669 733 q 585 639 621 676 q 519 557 549 601 q 626 410 578 488 q 704 247 674 332 q 720 176 715 214 q 710 107 725 139 q 681 67 700 85 q 638 40 661 50 q 588 28 614 31 q 539 32 563 25 q 515 45 526 36 q 497 65 504 54 q 471 115 482 89 q 449 167 460 140 q 420 224 435 196 q 389 281 406 253 q 383 288 388 282 q 374 302 379 294 q 364 315 368 310 q 358 324 360 321 q 322 242 344 290 q 269 147 299 193 q 206 65 240 100 q 136 22 171 29 z "},"Y":{"ha":779,"x_min":7,"x_max":776,"o":"m 493 8 q 447 -7 472 -3 q 395 -8 421 -11 q 347 6 369 -6 q 308 35 324 17 q 292 65 297 47 q 288 100 288 82 q 292 140 288 119 q 301 181 296 161 q 331 282 315 232 q 361 382 346 332 q 301 378 332 376 q 243 389 271 379 q 193 419 215 399 q 157 464 171 439 q 131 518 142 490 q 111 575 119 546 q 94 634 103 604 q 76 692 86 664 q 48 763 64 728 q 17 832 32 797 q 9 856 11 843 q 10 882 7 869 q 23 909 13 897 q 44 931 33 921 q 86 955 61 944 q 138 970 111 965 q 189 974 164 975 q 232 961 214 972 q 274 912 260 943 q 294 849 288 881 q 305 795 299 836 q 318 708 311 754 q 331 620 325 661 q 339 565 336 579 q 351 524 342 547 q 379 500 360 501 q 403 520 394 500 q 418 556 413 540 q 466 701 443 628 q 519 846 489 775 q 546 901 531 874 q 585 946 561 928 q 626 963 603 958 q 674 963 650 967 q 719 947 697 958 q 756 919 740 936 q 768 897 764 910 q 774 872 772 885 q 772 825 776 849 q 760 778 767 801 q 736 710 750 743 q 710 643 722 676 q 651 481 678 563 q 604 314 624 399 q 592 259 600 297 q 573 178 583 221 q 551 97 563 135 q 532 44 540 58 q 493 8 518 22 m 275 303 q 241 299 258 300 q 208 303 224 299 q 132 353 163 315 q 104 396 117 372 q 82 444 92 419 q 77 458 81 449 q 70 478 74 468 q 64 499 67 489 q 61 514 61 510 q 67 525 63 521 q 78 524 72 529 q 81 515 81 519 q 83 504 82 510 q 119 414 96 460 q 140 381 129 397 q 167 353 151 364 q 225 328 194 332 q 250 326 231 326 q 275 325 269 326 q 283 314 283 322 q 275 303 283 306 z "},"Z":{"ha":735,"x_min":19,"x_max":714,"o":"m 547 82 q 364 67 456 76 q 181 58 272 57 q 138 59 160 58 q 96 64 117 60 q 59 78 76 67 q 32 107 42 90 q 26 169 19 132 q 50 243 33 206 q 88 316 67 281 q 124 375 108 351 q 224 517 172 449 q 331 654 276 586 q 358 690 340 667 q 394 738 376 713 q 426 788 413 764 q 440 828 440 813 q 429 842 440 839 q 407 842 418 844 q 358 833 382 839 q 308 821 333 828 q 262 806 293 817 q 195 786 231 796 q 128 769 160 776 q 81 767 96 763 q 55 783 65 769 q 38 811 44 796 q 26 851 29 829 q 24 894 22 872 q 35 935 26 917 q 58 965 43 954 q 88 981 72 975 q 121 990 104 986 q 201 1005 160 1001 q 282 1011 242 1008 q 399 1016 340 1015 q 518 1014 458 1017 q 574 1010 546 1014 q 629 994 603 1006 q 661 976 646 988 q 688 950 676 965 q 713 879 710 919 q 706 819 714 849 q 685 761 699 789 q 638 683 665 719 q 581 610 610 646 q 547 568 568 594 q 499 508 525 542 q 446 438 474 475 q 395 367 418 401 q 356 303 372 333 q 336 256 340 274 q 339 242 333 247 q 353 236 344 238 q 390 240 364 235 q 446 251 417 244 q 501 263 475 257 q 539 272 528 269 q 579 280 558 276 q 621 281 600 283 q 648 275 635 279 q 671 261 661 271 q 683 238 681 251 q 688 211 686 225 q 686 183 688 199 q 680 151 685 167 q 667 122 675 135 q 650 103 660 108 q 601 86 628 88 q 547 82 574 85 m 369 0 q 361 -1 365 0 q 354 1 357 -1 q 349 12 349 6 q 357 19 350 18 q 380 25 368 22 q 404 31 392 28 q 490 38 447 36 q 576 38 532 40 q 619 35 597 36 q 661 28 642 35 q 670 15 671 25 q 660 6 669 6 q 612 6 636 3 q 564 10 588 8 q 467 9 515 11 q 369 0 418 7 z "},"[":{"ha":453,"x_min":60,"x_max":440,"o":"m 281 -37 q 240 -39 267 -39 q 185 -38 214 -39 q 131 -34 156 -37 q 93 -24 106 -31 q 80 -12 86 -19 q 69 3 74 -4 q 63 26 64 14 q 61 51 63 39 q 60 125 60 72 q 61 244 60 178 q 64 386 63 311 q 67 529 65 461 q 69 649 68 597 q 69 722 69 700 q 68 764 69 732 q 65 833 67 796 q 62 901 64 869 q 60 944 60 933 q 65 972 60 958 q 82 992 71 985 q 113 1003 96 1001 q 144 1007 129 1006 l 242 1007 q 285 1008 258 1007 q 338 1009 311 1010 q 388 1003 365 1008 q 422 986 411 999 q 431 940 440 965 q 396 908 422 914 q 348 904 372 904 q 299 904 324 904 q 299 850 299 892 q 300 761 300 808 q 301 672 300 714 q 301 618 301 631 q 302 344 301 481 q 308 71 303 208 q 338 76 324 74 q 367 76 351 79 q 396 60 386 74 q 406 31 406 47 q 397 0 406 15 q 369 -22 388 -15 q 326 -33 349 -31 q 281 -37 303 -35 z "},"\\":{"ha":513,"x_min":8,"x_max":490,"o":"m 474 63 q 447 38 464 49 q 410 20 431 26 q 371 13 390 14 q 335 18 351 11 q 301 42 315 25 q 281 78 288 58 q 244 187 257 131 q 215 300 231 243 q 104 631 169 465 q 88 667 100 639 q 62 726 75 694 q 37 784 49 757 q 22 821 25 811 q 12 863 15 840 q 15 904 8 885 q 35 937 21 922 q 64 961 49 951 q 116 976 88 974 q 169 969 144 979 q 197 951 185 963 q 218 925 208 939 q 265 836 246 883 q 299 740 285 789 q 300 735 300 738 q 301 731 300 733 q 383 512 346 622 q 453 289 419 401 q 473 217 464 253 q 488 144 482 181 q 488 101 490 124 q 474 63 486 79 z "},"]":{"ha":453,"x_min":19,"x_max":394,"o":"m 329 -33 q 289 -38 310 -37 q 249 -39 268 -39 q 185 -39 217 -40 q 121 -32 153 -37 q 94 -26 108 -29 q 69 -15 81 -22 q 50 9 56 -6 q 47 38 44 24 q 59 63 49 51 q 86 76 69 74 q 115 76 101 79 q 144 71 129 74 q 151 338 150 206 q 151 606 153 471 q 152 755 151 681 q 154 904 153 829 q 113 903 133 904 q 72 906 93 903 q 49 912 61 908 q 29 925 36 915 q 19 956 19 938 q 29 986 19 974 q 67 1005 40 1000 q 123 1010 93 1010 q 182 1009 153 1011 q 229 1007 211 1007 l 301 1007 q 346 1002 322 1006 q 382 981 369 999 q 392 944 394 964 q 390 901 392 933 q 388 833 389 869 q 385 764 386 796 q 383 722 383 732 q 385 531 381 626 q 392 339 389 435 q 394 206 393 272 q 392 71 394 139 q 391 33 392 51 q 379 -3 390 14 q 358 -23 372 -15 q 329 -33 344 -31 z "},"^":{"ha":590,"x_min":25,"x_max":567,"o":"m 188 453 q 118 429 158 424 q 87 435 103 431 q 58 448 71 440 q 35 467 44 456 q 25 493 25 478 q 28 519 25 506 q 36 544 32 532 q 165 813 88 688 q 172 827 167 815 q 179 842 176 839 q 200 881 189 861 q 228 917 211 901 q 271 940 247 935 q 318 940 294 944 q 363 920 342 935 q 400 885 385 906 q 447 794 428 842 q 488 701 467 747 q 506 660 493 689 q 531 601 518 632 q 555 541 544 569 q 565 499 565 513 q 553 467 567 481 q 515 443 538 451 q 471 432 493 435 q 446 432 458 431 q 422 440 433 433 q 398 461 408 449 q 381 489 388 474 q 333 615 350 550 q 286 742 315 681 q 272 698 282 731 q 252 628 263 665 q 232 558 242 592 q 219 514 222 525 q 207 481 214 497 q 188 453 200 465 z "},"_":{"ha":726,"x_min":-28,"x_max":751,"o":"m 606 -215 q 540 -217 583 -217 q 442 -217 496 -217 q 327 -216 388 -217 q 213 -212 267 -215 q 115 -206 158 -210 q 51 -197 72 -203 q 1 -165 21 -189 q -24 -103 -19 -140 q -15 -35 -28 -65 q 10 -1 -7 -15 q 46 19 26 13 q 79 28 63 26 q 113 32 96 31 q 156 31 124 32 q 226 30 189 31 q 297 28 264 29 q 340 26 329 26 q 355 26 344 26 q 378 26 365 26 q 401 27 390 26 q 417 28 413 28 q 460 27 428 28 q 531 25 493 26 q 601 22 568 24 q 646 21 635 21 q 670 19 658 19 q 693 14 682 18 q 725 -11 711 8 q 742 -45 735 -25 q 750 -87 749 -65 q 748 -131 751 -110 q 735 -165 744 -151 q 690 -200 718 -189 q 649 -211 671 -208 q 606 -215 628 -214 z "},"a":{"ha":906,"x_min":24,"x_max":894,"o":"m 818 492 q 810 479 818 482 q 796 483 801 476 q 782 511 789 490 q 774 542 775 532 q 774 663 767 601 q 779 710 776 686 q 782 757 782 733 q 780 788 782 772 q 771 818 778 804 q 728 866 756 846 q 671 890 701 886 q 665 890 669 890 q 658 892 660 890 q 648 903 649 894 q 657 915 647 913 q 680 917 668 918 q 703 913 692 915 q 743 895 725 910 q 776 863 761 881 q 792 841 786 853 q 803 817 799 829 q 808 785 807 801 q 807 751 808 768 q 797 656 804 703 q 794 561 789 610 q 800 534 796 547 q 811 508 804 521 q 816 500 814 504 q 818 492 818 496 m 86 743 q 72 736 81 736 q 63 746 64 736 q 72 772 61 760 q 97 793 82 783 q 128 810 111 803 q 160 822 146 817 q 180 828 165 824 q 210 836 194 832 q 239 843 225 840 q 260 846 253 846 q 275 833 274 846 q 264 818 276 821 q 240 811 260 815 q 215 806 221 807 q 178 796 196 801 q 142 783 161 790 q 110 767 126 776 q 86 743 94 758 m 818 78 q 758 61 789 63 q 698 71 726 60 q 646 103 669 82 q 607 154 622 125 q 576 239 588 194 q 557 328 564 283 q 534 264 546 296 q 507 201 522 232 q 461 138 489 167 q 397 92 433 108 q 290 69 349 68 q 181 90 231 69 q 113 139 140 107 q 71 201 88 167 q 44 271 54 235 q 28 356 33 313 q 26 444 24 400 q 38 533 29 489 q 69 615 46 578 q 148 709 100 668 q 254 769 196 750 q 343 780 296 783 q 426 754 390 776 q 472 719 451 739 q 511 676 493 699 q 522 731 515 704 q 542 781 528 757 q 567 809 553 796 q 599 826 581 822 q 658 829 626 835 q 708 804 689 824 q 727 767 724 789 q 731 722 731 744 q 729 601 731 661 q 739 482 728 542 q 773 384 750 432 q 831 299 796 336 q 864 264 846 281 q 889 224 882 247 q 892 183 894 204 q 878 141 889 161 q 852 104 868 121 q 818 78 836 88 m 318 194 q 360 186 335 182 q 392 206 376 190 q 420 240 407 221 q 444 281 433 260 q 458 317 454 301 q 472 429 474 371 q 453 540 469 488 q 443 569 449 556 q 426 593 438 582 q 384 615 411 610 q 339 607 357 621 q 323 590 329 600 q 310 571 317 581 q 290 526 297 550 q 281 478 283 501 q 273 419 275 449 q 269 358 271 389 q 273 299 269 328 q 288 242 276 269 q 299 215 292 228 q 318 194 307 203 z "},"b":{"ha":788,"x_min":36,"x_max":768,"o":"m 240 15 q 203 12 222 13 q 165 15 183 11 q 130 26 146 18 q 101 46 114 33 q 77 85 85 63 q 65 132 69 108 q 54 224 58 178 q 47 318 50 271 q 39 496 42 407 q 46 674 36 585 q 60 773 51 724 q 88 869 68 822 q 101 899 93 885 q 121 925 110 914 q 145 941 132 936 q 174 947 158 946 q 228 946 201 950 q 281 931 256 942 q 314 911 299 924 q 336 881 329 899 q 344 837 346 860 q 339 790 342 814 q 329 746 336 779 q 313 674 322 713 q 297 601 304 635 q 288 557 289 568 q 355 633 317 597 q 438 689 393 668 q 536 715 482 711 q 636 700 590 719 q 719 629 688 676 q 750 563 739 599 q 765 492 761 528 q 765 409 768 451 q 750 326 763 367 q 703 218 733 271 q 629 128 674 165 q 567 86 601 104 q 496 64 532 68 q 423 67 460 60 q 353 89 386 75 q 326 101 339 96 q 300 117 313 107 q 295 72 297 94 q 279 33 293 49 q 262 22 272 25 q 240 15 251 18 m 411 769 q 398 772 403 764 q 399 788 393 781 l 414 803 q 455 830 433 818 q 500 847 476 842 q 572 852 535 854 q 640 838 608 850 q 668 826 649 835 q 693 810 688 817 q 694 794 699 803 q 681 788 689 786 q 667 792 674 789 q 656 799 661 796 q 597 817 628 811 q 533 821 565 822 q 499 816 517 819 q 467 806 482 813 q 438 789 451 799 q 411 769 425 779 m 347 246 q 368 219 354 229 q 398 209 382 210 q 430 215 414 208 q 458 235 446 221 q 499 309 485 267 q 517 393 514 351 q 515 426 517 407 q 509 463 514 444 q 496 497 504 482 q 475 519 488 513 q 449 523 464 526 q 424 513 435 519 q 364 439 381 486 q 339 321 343 383 q 339 283 338 301 q 347 246 340 264 z "},"c":{"ha":672,"x_min":15,"x_max":656,"o":"m 607 865 q 606 853 611 858 q 593 851 600 847 q 550 884 569 865 q 507 915 531 903 q 440 941 475 932 q 368 947 404 950 q 276 938 322 946 q 188 914 231 929 q 180 910 185 913 q 172 908 175 908 q 161 915 165 910 q 163 925 157 919 q 192 944 171 935 q 237 959 213 953 q 284 969 261 965 q 321 975 307 974 q 376 980 349 979 q 431 974 403 981 q 493 953 463 967 q 549 919 524 940 q 579 894 564 908 q 607 865 594 881 m 632 169 q 581 117 617 140 q 503 80 546 94 q 417 58 461 65 q 340 54 374 51 q 231 81 285 58 q 135 139 178 104 q 62 231 89 175 q 25 344 35 286 q 21 463 15 403 q 42 579 26 522 q 86 684 57 633 q 158 771 115 735 q 275 831 210 815 q 319 835 297 836 q 364 832 342 835 q 435 815 400 828 q 500 782 469 803 q 537 751 519 767 q 569 715 554 735 q 600 660 588 690 q 615 599 613 631 q 608 540 617 568 q 576 492 599 513 q 530 469 557 475 q 478 467 503 463 q 440 476 458 469 q 410 496 422 482 q 395 522 400 507 q 386 551 390 536 q 374 588 381 569 q 353 618 367 606 q 320 631 338 632 q 288 618 303 629 q 258 588 272 607 q 235 550 244 569 q 219 504 224 528 q 214 457 215 481 q 215 412 213 435 q 225 368 217 389 q 245 340 232 353 q 274 322 258 328 q 322 312 297 313 q 371 318 347 311 q 440 341 407 328 q 507 364 472 354 q 538 370 522 367 q 568 371 553 374 q 590 364 579 369 q 608 351 601 358 q 649 265 642 315 q 632 169 656 214 z "},"d":{"ha":721,"x_min":14,"x_max":685,"o":"m 297 799 q 298 788 301 793 q 288 785 294 782 q 278 794 282 789 q 258 851 263 821 q 261 910 254 882 q 285 961 268 938 q 331 1000 303 985 q 353 1009 342 1006 q 376 1013 365 1013 q 391 1001 389 1011 q 382 985 393 990 q 363 980 372 982 q 344 974 353 978 q 290 918 306 956 q 281 880 282 900 q 282 840 279 860 q 289 819 283 833 q 297 799 294 804 m 571 35 q 537 34 556 33 q 500 39 518 35 q 467 51 482 43 q 447 74 453 60 q 441 98 442 85 q 439 124 440 111 q 399 91 419 106 q 356 65 379 76 q 305 47 332 54 q 250 42 278 40 q 185 57 218 43 q 117 104 147 74 q 64 171 86 135 q 22 297 29 228 q 25 431 14 365 q 47 506 32 469 q 88 574 63 543 q 192 640 128 622 q 257 642 222 649 q 342 610 301 635 q 417 556 382 585 q 407 611 413 583 q 394 667 401 639 q 372 747 385 707 q 358 829 360 788 q 376 890 356 865 q 419 926 393 913 q 472 946 444 939 q 513 953 492 950 q 556 953 535 956 q 590 943 574 950 q 622 925 607 936 q 643 896 639 914 q 667 763 663 831 q 672 628 672 696 q 673 615 672 625 q 675 595 674 606 q 677 575 676 585 q 678 563 678 565 q 680 379 685 471 q 664 196 675 288 q 653 131 661 164 q 626 71 644 99 q 602 47 617 57 q 571 35 588 38 m 275 200 q 305 187 289 188 q 336 193 321 186 q 365 214 351 200 q 388 244 379 228 q 407 314 404 276 q 403 386 410 351 q 393 417 399 401 q 376 443 388 432 q 344 460 361 457 q 309 458 326 464 q 277 438 292 451 q 254 406 263 424 q 253 233 218 319 q 275 200 258 217 m 269 -50 q 236 -50 260 -53 q 203 -46 213 -47 q 110 -7 150 -35 q 90 8 103 -3 q 74 26 76 18 q 74 38 71 33 q 85 39 78 43 q 123 14 104 28 q 164 -7 142 0 q 203 -17 183 -14 q 243 -21 224 -19 q 271 -28 260 -21 q 277 -40 278 -32 q 269 -50 276 -47 z "},"e":{"ha":739,"x_min":18,"x_max":724,"o":"m 596 149 q 483 95 544 114 q 360 78 422 76 q 231 106 294 81 q 121 178 167 132 q 67 254 88 210 q 36 343 47 299 q 22 497 18 418 q 53 646 25 575 q 127 765 78 711 q 239 850 176 818 q 363 890 297 881 q 492 893 428 900 q 583 862 542 888 q 647 793 624 836 q 669 733 663 765 q 674 668 675 701 q 663 602 672 635 q 639 543 654 569 q 605 503 625 521 q 561 475 585 486 q 488 448 526 457 q 410 436 450 439 q 383 436 403 436 q 342 436 364 436 q 300 436 319 436 q 274 435 281 436 q 241 404 250 429 q 235 354 232 379 q 253 306 239 329 q 288 268 268 283 q 331 245 307 253 q 378 242 354 238 q 438 274 413 246 q 463 304 451 288 q 485 338 474 321 q 508 369 496 354 q 536 397 521 385 q 579 415 556 411 q 626 414 603 419 q 667 394 649 408 q 697 358 686 381 q 706 323 706 342 q 703 286 707 304 q 662 208 692 244 q 596 149 632 172 m 294 546 q 313 542 300 543 q 340 542 326 542 q 367 543 354 542 q 388 546 381 544 q 442 572 419 551 q 477 617 465 592 q 487 673 489 643 q 465 728 485 703 q 412 749 447 751 q 350 732 376 746 q 322 716 335 725 q 301 694 310 707 q 271 629 279 667 q 267 603 268 617 q 269 578 265 590 q 294 546 274 557 m 619 79 q 595 65 611 74 q 560 49 579 57 q 524 35 542 40 q 497 29 507 29 q 483 30 492 29 q 471 35 474 31 q 471 46 468 40 q 481 49 474 51 q 489 51 486 49 l 526 60 q 581 83 554 68 q 631 115 607 99 q 646 128 636 119 q 666 146 656 136 q 685 165 676 156 q 696 181 693 175 q 699 189 697 185 q 703 196 700 193 q 718 194 713 201 q 718 175 724 186 q 701 153 714 167 q 672 124 688 139 q 641 97 656 110 q 619 79 626 85 z "},"f":{"ha":611,"x_min":33,"x_max":597,"o":"m 426 971 q 360 969 394 968 q 294 978 326 969 q 275 983 285 981 q 257 990 265 986 q 253 1002 249 994 q 267 1008 258 1010 q 301 1002 285 1006 q 336 996 318 999 q 403 997 369 993 q 468 1008 436 1001 q 482 1011 475 1010 q 496 1013 489 1013 q 508 1003 506 1013 q 501 988 510 993 q 487 983 497 985 q 465 978 476 981 q 442 973 453 975 q 426 971 431 971 m 236 47 q 198 44 221 44 q 152 47 175 44 q 108 56 129 50 q 76 74 88 63 q 65 102 65 85 q 65 135 64 119 q 65 274 69 204 q 53 413 60 343 q 40 551 46 482 q 36 690 33 621 q 49 772 39 731 q 82 846 58 814 q 142 897 106 878 q 215 925 178 917 q 293 931 254 933 q 371 926 332 929 q 444 928 407 924 q 517 936 481 933 q 544 931 531 938 q 567 914 558 925 q 587 878 579 899 q 596 836 594 858 q 593 793 597 814 q 578 757 589 772 q 543 735 564 739 q 458 729 501 724 q 372 735 415 735 q 320 731 347 735 q 274 711 293 726 q 246 676 256 697 q 235 635 236 656 q 242 585 235 610 q 253 536 250 561 q 305 541 268 536 q 383 551 342 546 q 462 559 425 556 q 514 560 499 563 q 550 538 536 556 q 565 485 565 518 q 550 432 565 451 q 517 409 538 417 q 478 400 497 401 q 419 401 449 397 q 361 408 390 406 q 317 407 339 410 q 272 401 294 404 q 294 277 283 339 q 307 153 304 215 q 308 116 308 135 q 297 82 307 97 q 271 58 288 67 q 236 47 254 50 m 289 -25 q 271 -27 283 -26 q 245 -27 258 -28 q 219 -26 232 -26 q 201 -24 207 -25 q 192 -14 193 -22 q 201 -3 192 -6 q 216 -1 206 -1 q 239 0 226 0 q 263 1 251 0 q 278 1 274 1 q 321 19 303 4 q 357 99 357 51 q 353 152 358 126 q 343 206 349 178 q 349 217 340 215 q 360 208 357 219 q 369 155 365 182 q 376 100 374 128 q 371 59 378 79 q 352 22 364 39 q 324 -7 340 6 q 289 -25 307 -19 z "},"g":{"ha":728,"x_min":14,"x_max":700,"o":"m 464 897 q 467 885 469 892 q 457 878 464 879 q 443 883 453 878 q 429 890 433 888 q 401 906 415 899 q 371 921 386 914 q 276 931 326 936 q 186 903 226 926 q 174 895 179 899 q 161 889 168 892 q 151 892 154 886 q 153 903 147 899 q 224 946 183 933 q 320 957 271 961 q 414 931 369 953 q 440 916 428 924 q 464 897 453 908 m 476 -111 q 417 -127 449 -125 q 356 -122 386 -129 q 301 -98 326 -115 q 260 -54 276 -81 q 252 -40 256 -47 q 247 -25 249 -33 q 247 -8 244 -17 q 253 8 250 1 q 260 19 254 11 q 272 38 265 28 q 285 56 279 47 q 293 67 290 64 q 364 181 332 122 q 415 304 396 239 q 364 263 392 281 q 306 239 336 246 q 215 236 261 229 q 131 267 168 243 q 63 338 90 293 q 25 431 35 382 q 17 526 14 478 q 33 621 19 575 q 63 694 44 658 q 107 757 81 729 q 163 803 132 783 q 228 833 193 822 q 328 835 276 850 q 400 792 368 822 q 457 728 432 761 q 457 770 456 749 q 469 808 458 792 q 507 838 482 828 q 556 846 532 849 q 647 801 611 842 q 670 767 663 786 q 682 726 678 747 q 698 602 696 665 q 694 476 700 539 q 676 314 689 394 q 639 156 664 233 q 604 60 622 107 q 558 -31 586 13 q 522 -76 543 -54 q 476 -111 501 -97 m 297 390 q 330 381 314 379 q 360 392 346 382 q 388 417 375 401 q 408 449 400 432 q 436 547 432 493 q 419 647 440 601 q 419 653 419 649 q 417 658 418 657 q 400 681 410 669 q 378 699 390 692 q 322 693 350 711 q 279 647 294 675 q 257 597 265 624 q 247 541 249 569 q 249 485 244 513 q 264 432 253 457 q 297 390 275 404 z "},"h":{"ha":744,"x_min":33,"x_max":725,"o":"m 308 81 q 253 54 286 61 q 192 54 221 47 q 157 69 174 58 q 129 96 140 81 q 97 157 108 124 q 76 224 86 190 q 47 381 56 301 q 35 542 38 461 q 35 662 33 601 q 47 782 38 722 q 58 838 51 810 q 79 890 65 865 q 103 919 89 906 q 135 939 117 932 q 174 948 150 944 q 222 951 197 951 q 269 947 247 951 q 306 933 292 942 q 335 900 324 921 q 344 832 347 869 q 338 776 344 818 q 324 688 332 735 q 310 600 317 642 q 303 544 304 558 q 371 599 333 576 q 450 635 408 621 q 501 644 474 642 q 553 639 528 646 q 597 617 576 632 q 635 582 618 601 q 701 451 682 525 q 724 303 719 376 q 722 235 725 269 q 710 168 719 200 q 691 125 703 146 q 661 89 679 104 q 611 65 640 69 q 573 61 593 61 q 534 67 553 61 q 501 83 515 72 q 482 113 488 94 q 477 140 478 126 q 476 169 476 154 q 485 272 479 221 q 483 375 490 324 q 478 399 482 385 q 470 426 475 413 q 458 449 465 439 q 440 463 450 460 q 413 463 428 468 q 386 450 397 458 q 341 397 358 431 q 321 329 324 363 q 327 241 318 285 q 335 153 336 197 q 328 113 333 133 q 308 81 324 93 m 649 718 q 646 703 651 710 q 632 699 640 697 q 620 703 625 700 q 610 708 615 706 q 535 738 576 729 q 456 738 494 746 q 426 731 440 735 q 399 721 413 728 q 384 722 392 718 q 381 733 376 726 q 403 749 386 740 q 429 760 419 757 q 460 767 444 764 q 492 772 475 771 q 626 738 564 775 q 640 729 633 733 q 649 718 646 725 m 313 -39 q 256 -53 285 -49 q 200 -53 228 -58 q 174 -44 189 -50 q 144 -31 158 -39 q 117 -15 129 -24 q 101 6 106 -6 q 103 16 99 13 q 114 17 108 19 q 121 12 117 15 q 128 7 125 8 q 171 -17 146 -10 q 221 -26 196 -25 q 251 -24 236 -26 q 282 -17 267 -21 q 299 -10 292 -14 q 317 -4 307 -7 q 331 -12 328 -3 q 328 -29 335 -22 q 320 -35 325 -32 q 313 -39 315 -37 z "},"i":{"ha":368,"x_min":31,"x_max":344,"o":"m 207 713 q 159 707 183 706 q 113 718 135 708 q 53 775 72 735 q 40 819 42 794 q 44 867 38 843 q 72 917 51 897 q 119 946 92 936 q 177 956 146 956 q 239 947 208 956 q 300 906 274 936 q 338 840 326 875 q 343 806 342 829 q 342 772 344 782 q 331 763 339 764 q 318 768 322 761 q 316 788 315 774 q 317 807 317 801 q 297 861 314 838 q 263 890 285 879 q 219 903 242 900 q 262 856 249 885 q 274 799 275 828 q 256 747 272 771 q 207 713 239 722 m 228 61 q 169 63 200 56 q 115 90 138 71 q 75 144 90 113 q 53 208 60 176 q 34 371 38 289 q 42 533 31 453 q 48 560 44 547 q 61 583 51 574 q 92 603 74 599 q 131 611 111 608 q 178 616 154 615 q 226 611 203 617 q 263 594 246 607 q 290 565 279 582 q 306 525 301 546 q 314 482 311 504 q 317 385 319 433 q 311 289 315 338 q 304 213 308 250 q 290 139 300 175 q 269 89 283 111 q 251 71 263 78 q 228 61 240 64 z "},"j":{"ha":485,"x_min":-24,"x_max":465,"o":"m 350 761 q 297 744 326 746 q 243 750 268 742 q 193 781 214 760 q 163 830 172 803 q 158 887 154 857 q 179 942 161 917 q 203 965 189 956 q 232 981 217 975 q 294 993 261 993 q 357 985 326 993 q 418 943 392 974 q 456 879 444 913 q 463 842 460 867 q 458 807 465 818 q 448 799 456 800 q 438 806 440 799 q 435 825 435 811 q 435 844 435 839 q 406 910 432 883 q 375 931 393 924 q 339 940 357 938 q 376 901 363 925 q 392 851 390 876 q 385 801 394 825 q 350 761 375 776 m 267 -71 q 211 -110 242 -96 q 148 -128 181 -125 q 83 -124 115 -132 q 21 -94 50 -115 q 6 -83 14 -90 q -8 -67 -1 -75 q -19 -50 -15 -58 q -22 -33 -24 -42 q -15 -18 -21 -28 q -1 1 -8 -8 q 15 20 7 11 q 26 33 22 29 q 95 124 63 78 q 151 221 128 169 q 204 493 215 350 q 197 545 201 519 q 186 596 193 571 q 201 646 179 625 q 254 672 224 667 q 319 669 286 679 q 376 638 353 660 q 399 609 392 626 q 413 574 407 592 q 426 495 422 535 q 426 417 429 456 q 410 257 424 336 q 367 104 397 178 q 325 11 347 57 q 267 -71 303 -35 z "},"k":{"ha":689,"x_min":36,"x_max":675,"o":"m 315 956 q 315 938 322 946 q 299 936 308 931 q 282 952 294 939 q 267 968 269 965 q 197 1002 238 992 q 121 1003 157 1013 q 104 1001 114 999 q 97 1008 99 1003 q 101 1017 96 1014 q 116 1023 106 1021 q 138 1027 126 1025 q 160 1029 149 1029 q 176 1029 171 1029 q 255 1006 217 1025 q 315 956 293 988 m 224 69 q 190 58 210 61 q 150 58 171 56 q 109 65 129 60 q 76 81 89 71 q 53 111 61 93 q 41 152 43 131 q 39 196 39 174 q 38 288 36 242 q 42 379 39 333 q 58 601 49 493 q 69 705 64 654 q 81 807 74 756 q 89 851 85 829 q 101 892 93 872 q 131 922 108 911 q 190 931 157 935 q 246 907 224 926 q 263 876 256 897 q 274 830 269 854 q 281 782 278 806 q 283 744 283 758 q 283 614 286 678 q 275 485 281 550 q 310 524 283 494 q 366 588 336 554 q 422 652 396 622 q 457 692 449 682 q 476 713 463 699 q 506 743 490 728 q 536 772 522 758 q 558 789 550 785 q 602 794 581 800 q 640 773 624 789 q 665 733 656 757 q 675 685 675 710 q 664 650 675 671 q 638 608 653 629 q 608 567 624 586 q 583 538 592 547 q 555 505 575 526 q 512 460 535 483 q 468 418 489 438 q 435 393 447 399 q 497 337 463 361 q 563 283 531 313 q 585 257 575 271 q 601 226 596 243 q 600 178 607 204 q 576 135 593 153 q 538 110 560 118 q 492 103 517 101 q 446 119 468 106 q 397 158 419 136 q 354 202 375 179 q 313 248 333 225 q 267 290 292 271 q 268 261 268 282 q 268 217 268 240 q 267 174 268 194 q 265 146 267 154 q 253 102 263 124 q 224 69 243 81 m 542 4 q 468 7 506 -7 q 446 17 460 10 q 417 32 432 24 q 390 50 403 40 q 374 67 378 60 q 371 83 365 78 q 388 81 376 89 q 399 72 390 78 q 417 60 408 67 q 435 49 426 54 q 447 43 444 44 q 482 30 464 36 q 519 26 500 24 q 551 39 536 29 q 581 60 567 49 q 594 69 585 63 q 607 78 603 76 q 619 74 614 81 q 621 60 625 67 q 610 48 619 56 q 597 38 600 40 q 542 4 569 17 z "},"l":{"ha":440,"x_min":36,"x_max":425,"o":"m 388 665 q 377 658 385 658 q 368 667 369 658 q 366 681 365 674 q 368 694 367 688 q 371 800 372 747 q 351 901 369 853 q 326 944 343 925 q 286 975 308 964 q 281 978 283 978 q 276 979 279 978 q 272 988 271 983 q 279 996 274 993 q 300 992 286 997 q 345 958 326 981 q 375 908 364 935 q 394 798 394 856 q 390 683 394 740 q 390 674 390 681 q 388 665 389 668 m 383 78 q 322 45 356 56 q 255 35 289 35 q 188 47 221 36 q 129 82 156 58 q 85 139 101 106 q 57 207 68 172 q 40 295 44 250 q 36 385 36 340 q 47 622 36 504 q 76 857 58 739 q 85 882 78 864 q 97 907 92 900 q 123 924 107 919 q 154 932 139 929 q 207 932 181 935 q 257 917 233 929 q 299 864 288 899 q 309 788 310 828 q 307 710 308 749 q 303 618 306 664 q 297 526 300 572 q 292 481 294 503 q 286 438 289 460 q 281 379 283 415 q 280 305 279 343 q 286 233 281 267 q 307 183 292 200 q 338 175 317 172 q 372 183 358 178 q 401 185 390 189 q 421 160 417 178 q 421 128 425 143 q 406 100 417 113 q 383 78 394 88 z "},"m":{"ha":1214,"x_min":38,"x_max":1199,"o":"m 615 888 q 607 876 615 878 q 592 881 599 874 q 577 894 585 888 q 561 907 569 901 q 533 919 547 914 q 504 929 519 925 q 445 940 476 936 q 386 931 414 943 q 367 918 375 926 q 351 903 360 910 q 335 903 343 896 q 335 918 328 910 q 357 943 346 931 q 383 963 368 956 q 447 973 413 976 q 513 961 481 969 q 556 946 535 956 q 594 921 578 936 q 609 906 601 914 q 615 888 617 899 m 293 100 q 263 65 282 79 q 222 44 244 50 q 174 40 199 38 q 128 51 150 42 q 99 70 113 58 q 76 97 85 82 q 58 139 64 117 q 49 185 51 161 q 42 371 38 278 q 49 557 46 464 q 50 665 50 611 q 57 772 50 719 q 67 822 61 797 q 86 871 74 847 q 145 919 106 903 q 221 925 185 936 q 250 908 236 921 q 272 881 264 896 q 299 807 292 846 q 311 728 307 768 q 336 758 322 743 q 365 786 350 774 q 413 817 386 806 q 468 829 440 828 q 560 803 515 829 q 573 793 564 800 q 591 778 582 786 q 607 763 600 771 q 615 750 614 756 q 626 739 619 747 q 635 726 632 731 q 671 647 658 686 q 691 706 681 676 q 719 760 701 735 q 738 786 728 774 q 760 808 747 799 q 767 814 763 810 q 774 819 768 815 q 785 826 779 822 q 797 834 792 831 q 804 839 801 838 q 864 863 832 854 q 928 867 896 871 q 968 855 949 864 q 1004 835 988 846 q 1022 821 1011 831 q 1032 804 1032 811 q 1036 803 1035 803 q 1038 802 1038 803 q 1040 801 1039 801 q 1058 781 1046 797 q 1072 760 1069 765 q 1138 610 1117 690 q 1165 446 1158 529 q 1166 314 1169 381 q 1142 185 1163 247 q 1112 129 1132 156 q 1064 90 1092 103 q 1028 79 1047 82 q 990 79 1008 76 q 954 90 971 82 q 928 113 938 97 q 913 153 915 131 q 910 196 910 175 q 915 334 910 265 q 910 472 919 403 q 898 533 907 503 q 869 586 889 563 q 815 613 849 614 q 760 585 782 613 q 736 540 744 565 q 725 492 728 515 q 718 338 714 415 q 715 183 722 261 q 710 147 714 165 q 694 113 706 128 q 655 77 681 89 q 601 65 629 65 q 546 77 572 65 q 506 113 519 89 q 490 147 494 129 q 483 185 486 165 q 475 307 474 246 q 471 429 476 368 q 460 504 468 467 q 435 575 453 542 q 424 594 429 585 q 408 610 418 603 q 378 617 393 621 q 351 599 364 613 q 330 567 339 586 q 317 529 321 547 q 302 390 299 461 q 308 249 306 319 q 310 172 311 211 q 293 100 310 133 m 1065 -10 q 993 -22 1032 -22 q 965 -22 979 -24 q 953 -6 950 -19 q 963 4 953 4 q 976 3 967 3 q 994 5 985 4 q 1013 7 1004 6 q 1026 10 1022 8 q 1098 42 1065 17 q 1158 96 1131 68 q 1169 107 1161 99 q 1179 118 1176 115 q 1194 112 1190 122 q 1192 92 1199 101 q 1169 67 1185 82 q 1133 36 1153 51 q 1095 8 1114 21 q 1065 -10 1076 -6 z "},"n":{"ha":856,"x_min":26,"x_max":838,"o":"m 371 731 q 341 713 357 722 q 315 717 325 703 q 307 733 313 719 q 299 751 301 747 q 268 796 289 775 q 235 819 254 811 q 196 831 215 826 q 184 832 192 831 q 167 834 176 833 q 151 836 158 835 q 140 840 143 838 q 136 854 133 846 q 147 863 139 863 q 174 861 154 864 q 199 857 193 858 q 235 849 218 854 q 269 833 253 843 q 306 796 292 819 q 329 747 321 772 q 333 738 332 743 q 336 732 333 732 q 363 750 350 740 q 390 767 375 760 q 406 772 394 768 q 431 778 418 775 q 457 785 444 782 q 474 789 469 788 q 488 780 485 792 q 481 764 492 768 q 451 758 474 761 q 422 753 429 756 q 371 731 392 746 m 288 74 q 220 60 254 64 q 151 58 186 56 q 118 65 135 60 q 89 81 101 69 q 72 103 78 90 q 63 132 65 117 q 61 166 61 140 q 62 220 61 192 q 63 274 63 249 q 64 308 64 300 q 63 349 64 318 q 62 413 63 379 q 60 477 61 447 q 57 518 58 507 q 52 552 57 526 q 42 607 47 578 q 31 662 36 636 q 26 697 26 688 q 36 735 26 719 q 62 756 46 749 q 93 768 78 764 q 145 773 118 774 q 197 764 172 772 q 242 740 222 756 q 269 700 261 724 q 279 645 279 674 q 276 589 279 617 q 338 643 303 621 q 410 678 372 665 q 488 698 449 690 q 567 707 526 706 q 639 697 603 707 q 703 663 675 686 q 749 614 729 642 q 783 556 768 586 q 820 455 808 508 q 835 349 832 401 q 835 269 838 308 q 825 190 833 229 q 814 152 821 171 q 793 118 807 133 q 740 85 775 94 q 706 79 725 81 q 667 81 686 78 q 631 93 647 85 q 607 114 615 101 q 597 140 599 125 q 597 168 596 154 q 604 277 599 222 q 601 385 610 332 q 585 449 597 417 q 553 507 572 481 q 531 527 543 518 q 506 540 519 536 q 424 535 467 550 q 354 492 382 521 q 317 426 329 464 q 306 353 306 389 q 309 297 306 325 q 316 240 313 268 q 322 184 319 213 q 322 126 325 156 q 310 89 322 106 q 301 79 307 83 q 288 74 294 75 z "},"o":{"ha":768,"x_min":21,"x_max":754,"o":"m 267 819 q 255 817 261 814 q 251 828 249 821 q 290 881 265 860 q 356 914 319 903 q 383 919 365 917 q 421 924 401 922 q 458 924 440 925 q 486 921 476 924 q 511 913 499 914 q 520 901 521 910 q 510 893 519 892 q 483 896 504 893 q 456 899 461 899 q 389 896 422 900 q 325 876 356 892 q 303 865 314 871 q 285 849 293 858 q 275 834 279 842 q 267 819 271 826 m 571 135 q 453 103 515 108 q 331 103 392 99 q 249 115 290 106 q 172 144 208 124 q 101 206 132 168 q 50 288 69 243 q 21 439 21 358 q 47 590 21 519 q 72 640 58 615 q 104 685 85 664 q 188 751 139 725 q 289 790 238 776 q 333 828 306 814 q 388 849 360 843 q 491 847 438 858 q 589 807 544 835 q 647 759 621 788 q 693 699 674 731 q 726 625 714 664 q 744 546 739 586 q 743 399 754 474 q 700 260 732 325 q 646 186 679 218 q 571 135 613 154 m 422 439 q 466 422 442 428 q 514 421 490 417 q 566 440 542 425 q 610 475 590 456 q 617 500 617 482 q 618 528 618 518 q 603 602 617 565 q 567 669 590 639 q 528 706 550 690 q 483 728 507 722 q 433 731 458 735 q 388 710 408 726 q 362 679 372 697 q 344 642 351 661 q 338 586 338 615 q 347 531 338 557 q 377 478 358 503 q 422 439 396 454 m 417 204 q 483 213 451 200 q 539 249 514 225 q 582 304 564 272 q 607 369 600 336 q 531 329 572 342 q 447 320 489 317 q 368 343 406 324 q 306 400 331 363 q 272 480 281 436 q 267 567 264 524 q 255 469 256 519 q 265 372 254 419 q 289 303 272 336 q 331 246 306 269 q 417 204 368 211 m 331 19 q 302 19 321 18 q 263 24 283 21 q 222 30 242 26 q 194 38 203 33 q 134 67 163 49 q 86 114 106 86 q 85 131 79 122 q 99 133 90 140 q 113 121 107 125 q 190 72 143 86 q 251 57 221 64 q 314 51 282 50 q 331 53 322 51 q 346 51 339 56 q 350 33 357 43 q 331 19 343 22 z "},"p":{"ha":785,"x_min":36,"x_max":772,"o":"m 390 938 q 364 928 375 928 q 352 937 356 929 q 353 951 349 944 q 378 974 363 967 q 411 988 394 982 q 501 1009 454 1003 q 593 1003 549 1015 q 610 996 599 1001 q 632 983 621 990 q 653 969 643 976 q 667 957 663 963 q 669 944 672 951 q 658 938 665 936 q 646 944 654 938 q 635 953 638 950 q 581 976 611 972 q 530 975 556 979 q 479 965 504 971 q 433 954 456 960 q 390 938 411 949 m 279 -62 q 234 -76 258 -72 q 185 -77 210 -81 q 140 -63 161 -74 q 106 -35 118 -53 q 89 -1 94 -19 q 79 36 83 17 q 71 104 72 69 q 69 174 69 139 q 71 315 69 244 q 61 454 72 385 q 52 519 57 481 q 43 601 47 557 q 38 692 39 646 q 40 781 36 739 q 52 857 43 822 q 78 913 61 892 q 114 938 92 929 q 147 948 128 943 q 185 954 165 953 q 223 952 206 956 q 251 939 240 949 q 269 910 264 928 q 279 876 275 893 q 287 824 285 850 q 289 771 289 797 q 328 820 307 797 q 375 861 350 843 q 496 904 431 901 q 619 875 561 907 q 693 811 661 851 q 740 726 725 771 q 766 605 760 668 q 757 482 772 542 q 730 413 747 446 q 690 350 713 379 q 647 303 671 325 q 596 267 624 281 q 552 251 575 256 q 506 244 529 246 q 378 257 440 240 q 324 274 350 264 q 275 301 299 285 q 285 252 276 289 q 304 174 294 215 q 322 95 314 132 q 333 46 331 58 q 337 15 336 31 q 331 -15 338 0 q 309 -44 324 -32 q 279 -62 294 -56 m 379 414 q 436 415 406 406 q 474 435 457 422 q 506 467 492 449 q 533 522 524 492 q 544 582 542 551 q 544 622 546 599 q 538 669 543 646 q 524 713 533 693 q 501 740 515 732 q 468 750 488 750 q 431 744 449 750 q 397 728 413 738 q 347 683 369 710 q 313 625 324 657 q 298 559 301 593 q 302 495 294 525 q 328 443 310 465 q 379 414 347 421 z "},"q":{"ha":753,"x_min":11,"x_max":731,"o":"m 156 875 q 144 876 150 871 q 142 888 139 881 q 166 916 149 903 q 205 940 183 929 q 248 956 226 950 q 286 964 269 963 q 356 961 321 967 q 422 944 390 956 q 447 934 431 942 q 468 918 464 926 q 466 901 472 908 q 449 896 460 893 q 435 901 446 897 q 421 907 424 906 q 378 920 400 914 q 336 929 357 926 q 251 924 294 935 q 174 888 208 913 q 165 882 171 886 q 156 875 158 878 m 724 -67 q 694 -109 715 -92 q 647 -137 674 -126 q 592 -150 621 -147 q 536 -149 563 -153 q 503 -138 519 -146 q 475 -119 488 -131 q 446 -82 457 -104 q 428 -37 435 -60 q 409 105 406 32 q 419 250 413 178 q 296 204 363 211 q 201 213 247 200 q 117 257 156 226 q 86 288 100 271 q 61 324 72 304 q 21 440 31 376 q 22 565 11 504 q 55 665 31 617 q 115 751 79 713 q 182 810 144 785 q 263 847 219 836 q 315 848 285 853 q 377 832 346 843 q 436 806 408 821 q 479 774 464 790 q 492 803 486 789 q 507 831 497 818 q 542 857 521 850 q 578 862 557 861 q 618 858 599 863 q 655 845 638 854 q 682 824 672 836 q 699 783 694 804 q 704 739 703 761 q 703 678 706 708 q 697 618 700 649 q 683 472 692 544 q 675 326 674 400 q 691 172 678 247 q 721 19 704 96 q 728 -24 726 -1 q 724 -67 731 -47 m 263 365 q 319 347 286 343 q 375 374 351 350 q 401 408 390 389 q 419 449 413 428 q 434 513 429 481 q 442 576 439 544 q 442 619 444 597 q 429 661 439 642 q 407 688 421 678 q 376 701 393 699 q 342 700 360 704 q 311 683 325 696 q 265 616 281 656 q 240 536 249 576 q 233 481 235 508 q 235 426 231 454 q 244 393 238 410 q 263 365 251 376 z "},"r":{"ha":715,"x_min":26,"x_max":701,"o":"m 317 106 q 283 69 304 83 q 236 48 261 54 q 185 44 211 42 q 136 58 158 47 q 107 74 121 65 q 83 96 93 83 q 72 124 75 108 q 67 154 68 139 q 65 197 64 175 q 67 239 67 218 q 66 443 67 342 q 56 646 65 544 q 49 688 54 667 q 39 729 44 708 q 30 772 33 750 q 28 814 26 793 q 43 855 29 838 q 77 883 57 872 q 122 900 97 894 q 171 906 147 906 q 213 900 192 906 q 249 879 233 894 q 275 835 268 861 q 285 783 282 808 q 287 717 288 750 q 289 651 286 685 q 367 764 319 713 q 472 847 414 815 q 523 867 496 861 q 578 871 550 874 q 611 863 594 869 q 642 846 628 857 q 668 811 657 831 q 686 771 679 792 q 697 722 693 750 q 700 665 701 693 q 690 611 699 636 q 665 572 682 586 q 617 556 646 557 q 565 564 589 554 q 538 593 547 572 q 529 613 533 600 q 519 640 525 626 q 508 666 514 654 q 496 681 503 678 q 472 680 485 686 q 449 667 458 674 q 412 633 429 651 q 379 596 394 615 q 338 513 350 560 q 326 419 325 465 q 331 328 328 374 q 336 239 333 283 q 336 170 339 206 q 317 106 333 135 m 610 385 q 533 386 574 374 q 469 429 492 399 q 460 447 465 435 q 448 472 454 458 q 437 497 442 485 q 431 517 432 510 q 441 533 429 531 q 456 524 453 536 q 464 502 457 518 q 474 482 471 486 q 488 461 481 471 q 503 443 494 451 q 526 431 511 436 q 556 424 540 426 q 585 423 571 422 q 611 428 600 424 q 633 439 622 432 q 654 443 643 446 q 665 430 665 440 q 658 413 665 419 q 649 406 656 410 q 635 397 643 401 q 621 390 628 393 q 610 385 614 386 z "},"s":{"ha":649,"x_min":25,"x_max":619,"o":"m 172 856 q 151 851 158 850 q 144 860 144 853 q 149 871 143 867 q 176 881 157 876 q 216 889 194 886 q 258 893 238 892 q 288 896 278 894 q 308 888 301 899 q 301 869 314 876 q 280 865 296 867 q 257 864 264 864 q 240 863 253 864 q 214 860 228 861 q 188 857 200 858 q 172 856 176 856 m 463 79 q 341 42 404 53 q 215 33 278 31 q 151 37 183 35 q 90 53 119 39 q 60 78 72 61 q 40 115 47 94 q 32 156 33 135 q 35 197 31 178 q 52 235 40 217 q 82 260 64 253 q 147 266 113 272 q 215 257 182 260 q 262 257 239 256 q 308 263 285 258 q 341 270 325 265 q 372 285 357 275 q 407 328 396 300 q 413 349 411 338 q 408 369 414 360 q 388 389 401 382 q 361 400 375 396 q 278 415 321 413 q 194 424 236 418 q 155 429 175 426 q 115 440 135 432 q 65 474 86 450 q 34 533 43 499 q 27 603 25 567 q 42 674 29 639 q 74 738 54 710 q 110 773 89 758 q 156 799 132 788 q 203 813 179 807 q 251 821 228 818 q 292 824 263 822 q 357 828 322 826 q 422 831 392 829 q 463 832 451 832 q 506 830 485 832 q 550 821 528 828 q 574 813 563 818 q 596 797 586 807 q 614 764 608 785 q 619 721 619 743 q 613 676 618 699 q 599 639 607 654 q 583 617 592 628 q 561 603 574 607 q 531 601 546 599 q 500 606 515 603 q 426 614 464 611 q 353 621 389 617 q 322 618 338 622 q 297 604 307 614 q 284 582 288 594 q 288 556 281 569 q 306 539 294 544 q 331 531 318 533 q 385 518 358 525 q 439 503 411 511 q 505 476 472 492 q 564 436 538 461 q 608 358 597 406 q 614 297 615 328 q 606 235 613 265 q 596 204 601 219 q 582 175 590 189 q 529 119 561 143 q 463 79 497 94 m 386 -15 q 373 -8 376 -17 q 376 7 369 0 q 385 10 381 10 q 396 13 390 11 q 456 28 426 19 q 513 50 485 36 q 534 65 524 57 q 554 81 544 72 q 569 95 560 85 q 585 106 578 106 q 595 97 593 106 q 592 82 597 89 q 556 44 576 61 q 514 17 536 28 q 451 -6 485 1 q 386 -15 418 -12 z "},"t":{"ha":617,"x_min":7,"x_max":611,"o":"m 504 919 q 489 909 499 910 q 475 918 479 908 q 471 934 472 921 q 468 950 469 947 q 444 999 463 976 q 392 1033 424 1022 q 328 1044 360 1043 q 315 1040 325 1033 q 308 1058 306 1047 q 318 1067 310 1064 q 333 1071 326 1069 q 381 1068 357 1075 q 425 1050 404 1061 q 472 1008 453 1036 q 499 951 490 981 q 504 935 501 946 q 504 919 507 924 m 376 3 q 336 -8 361 -4 q 284 -12 311 -12 q 231 -10 257 -12 q 192 1 206 -7 q 160 39 169 14 q 154 74 154 56 q 157 110 154 92 q 174 304 171 207 q 179 499 178 401 q 126 490 153 494 q 72 490 99 485 q 29 511 46 494 q 10 553 13 528 q 8 587 7 568 q 15 622 10 606 q 31 653 21 639 q 56 672 40 667 q 79 677 63 675 q 115 681 96 679 q 152 685 135 683 q 178 686 169 686 q 173 731 175 700 q 169 797 171 763 q 168 861 168 831 q 172 906 168 892 q 185 930 176 918 q 204 949 193 942 q 253 965 225 961 q 303 970 275 969 q 359 966 332 971 q 408 949 386 961 q 438 915 429 938 q 447 854 449 886 q 439 790 444 822 q 435 753 436 771 q 429 715 433 735 q 449 715 435 715 q 480 713 464 714 q 510 710 496 711 q 529 708 525 710 q 567 696 550 706 q 599 658 590 682 q 611 600 611 632 q 597 542 611 568 q 585 526 593 533 q 569 514 578 519 q 518 503 549 503 q 462 502 490 500 q 404 506 433 504 q 406 471 406 488 q 406 436 406 454 q 405 429 406 433 q 406 422 404 425 q 418 210 407 315 q 424 149 421 179 q 425 89 428 119 q 423 61 425 75 q 414 35 421 47 q 376 3 401 14 m 267 -93 q 230 -92 247 -93 q 194 -87 213 -92 q 163 -78 178 -85 q 132 -62 147 -71 q 99 -34 113 -53 q 79 6 86 -15 q 76 19 76 13 q 72 33 75 26 q 81 47 69 44 q 94 39 92 50 q 106 6 99 22 q 125 -24 113 -11 q 143 -36 131 -29 q 169 -49 156 -43 q 197 -60 183 -56 q 218 -64 210 -64 q 245 -63 225 -65 q 271 -62 265 -61 q 283 -79 285 -67 q 267 -93 282 -92 z "},"u":{"ha":789,"x_min":26,"x_max":774,"o":"m 771 156 q 753 106 768 128 q 715 72 738 85 q 667 58 693 60 q 615 69 640 57 q 578 110 593 81 q 552 176 563 140 q 536 249 542 213 q 529 310 531 285 q 499 242 515 275 q 458 179 482 208 q 407 124 436 149 q 342 86 378 99 q 255 74 301 71 q 169 96 208 78 q 94 151 125 117 q 46 229 63 185 q 27 340 26 282 q 31 456 28 397 q 36 513 32 475 q 48 590 40 550 q 65 667 56 631 q 86 718 74 703 q 118 743 99 733 q 160 757 138 753 q 204 759 182 761 q 244 749 226 757 q 269 734 258 743 q 286 711 281 725 q 294 669 296 692 q 289 624 293 646 q 264 514 278 568 q 246 403 250 460 q 245 367 244 385 q 250 331 246 349 q 280 278 258 300 q 331 264 301 256 q 353 274 343 267 q 372 292 364 282 q 396 328 388 308 q 411 369 404 349 q 437 451 425 410 q 460 533 449 492 q 467 556 463 544 q 481 575 472 567 q 514 599 493 592 q 549 604 531 606 q 585 597 568 603 q 635 552 613 588 q 676 472 658 517 q 708 383 694 428 q 732 311 722 339 q 760 235 746 274 q 771 156 774 196 m 729 531 q 719 516 731 519 q 703 524 707 513 q 690 559 696 542 q 678 594 685 576 q 663 631 671 614 q 643 664 656 649 q 599 695 624 683 q 547 708 574 707 q 505 703 525 710 q 465 686 485 696 q 449 688 457 682 q 449 700 442 693 q 466 711 454 706 q 492 722 478 717 q 518 730 506 726 q 539 733 531 733 q 628 708 588 735 q 689 639 669 682 q 698 617 692 632 q 710 585 704 603 q 722 553 717 568 q 729 531 728 538 z "},"v":{"ha":714,"x_min":13,"x_max":700,"o":"m 467 110 q 366 74 424 78 q 263 97 308 71 q 202 148 228 117 q 157 213 176 179 q 101 329 124 268 q 61 453 78 390 q 35 545 49 500 q 15 639 21 590 q 17 678 13 658 q 33 714 22 699 q 75 750 50 736 q 128 769 100 764 q 186 772 157 775 q 239 757 215 769 q 283 717 265 743 q 308 664 300 692 q 324 556 324 611 q 328 446 324 501 q 336 379 331 413 q 357 314 342 346 q 374 290 364 303 q 397 279 385 276 q 422 297 411 282 q 439 332 432 313 q 451 372 446 351 q 460 406 456 392 q 473 454 464 418 q 493 532 482 490 q 513 610 504 574 q 526 657 522 646 q 536 688 531 669 q 550 724 542 706 q 569 756 558 742 q 592 775 579 771 q 642 773 613 782 q 686 747 671 764 q 700 707 700 731 q 697 661 700 683 q 677 560 690 610 q 649 460 664 510 q 607 342 629 400 q 556 231 585 285 q 517 165 538 197 q 467 110 497 133 m 360 -32 q 339 -30 353 -32 q 309 -24 325 -28 q 279 -17 293 -21 q 260 -8 265 -12 q 255 -1 254 -6 q 261 7 256 4 q 275 9 268 10 q 289 6 282 8 q 346 -4 317 -1 q 403 1 375 -7 q 487 39 447 15 q 557 96 526 63 q 566 107 560 99 q 580 125 572 115 q 594 143 588 135 q 603 154 600 151 q 617 155 610 161 q 621 140 625 149 q 578 81 601 108 q 525 32 554 53 q 447 -11 489 7 q 360 -32 404 -29 z "},"w":{"ha":1074,"x_min":28,"x_max":1054,"o":"m 754 628 q 746 616 754 618 q 732 621 738 614 q 727 634 729 625 q 723 654 725 643 q 719 675 721 665 q 717 689 718 685 q 717 697 714 693 q 716 701 718 699 q 713 704 714 703 q 697 746 706 725 q 672 782 688 767 q 645 801 661 793 q 613 811 629 808 q 564 815 589 815 q 515 813 539 815 q 497 808 510 811 q 478 808 483 806 q 473 817 472 811 q 478 826 474 824 q 506 837 490 835 q 536 840 521 839 q 604 839 569 843 q 668 819 639 835 q 701 791 688 808 q 722 754 714 774 q 731 733 725 749 q 738 710 738 717 q 738 706 739 708 q 738 703 736 703 q 744 687 742 699 q 747 668 746 675 q 752 649 750 658 q 754 628 754 639 m 310 49 q 226 55 269 40 q 150 97 182 69 q 119 137 131 114 q 96 183 107 160 q 57 322 68 250 q 39 465 46 393 q 31 606 33 536 q 31 746 28 675 q 38 775 31 761 q 57 800 46 789 q 87 817 67 811 q 130 826 107 824 q 174 826 153 828 q 211 822 196 825 q 245 812 229 819 q 272 790 261 804 q 289 761 283 778 q 299 729 294 744 q 313 647 308 689 q 318 564 317 606 q 321 481 319 522 q 326 399 322 440 q 331 373 329 386 q 336 347 333 360 q 347 324 339 336 q 365 311 354 311 q 382 318 374 311 q 398 335 390 325 q 411 356 406 344 q 421 375 417 367 q 440 439 433 406 q 451 506 446 472 q 462 572 456 539 q 481 636 468 606 q 499 671 488 654 q 528 696 510 688 q 549 701 536 700 q 577 702 563 703 q 606 699 592 701 q 628 694 619 697 q 639 688 633 692 q 647 679 644 685 q 664 647 658 664 q 672 613 669 629 q 680 556 678 585 q 683 498 682 526 q 688 441 685 469 q 697 385 690 413 q 710 347 704 365 q 725 311 715 329 q 739 292 732 301 q 757 279 746 283 q 782 279 768 275 q 806 292 796 283 q 842 348 831 315 q 861 413 854 381 q 878 532 872 472 q 890 653 885 592 q 897 719 893 685 q 915 782 900 753 q 940 806 924 799 q 976 814 957 814 q 1012 806 994 814 q 1039 781 1029 797 q 1048 756 1046 769 q 1051 729 1050 743 q 1053 694 1054 711 q 1051 658 1053 676 q 1037 543 1047 600 q 1015 428 1026 486 q 986 311 1004 369 q 940 200 968 253 q 897 128 921 164 q 839 71 874 93 q 776 50 811 54 q 705 52 740 46 q 637 75 669 58 q 582 115 604 92 q 528 203 546 153 q 497 304 511 254 q 458 203 481 253 q 404 111 436 154 q 362 71 386 89 q 310 49 338 53 m 738 -43 q 657 -44 697 -49 q 581 -25 617 -40 q 543 -6 561 -15 q 508 17 525 4 q 495 29 503 21 q 488 44 488 38 q 492 54 489 50 q 501 56 496 58 q 508 48 504 54 q 515 39 513 42 q 529 28 522 32 q 543 21 536 25 q 589 -1 565 8 q 638 -15 613 -11 q 642 -17 639 -15 q 646 -19 644 -19 q 654 -18 651 -17 q 765 -11 708 -22 q 778 -7 772 -8 q 792 -7 785 -6 q 803 -17 801 -8 q 797 -32 806 -26 q 786 -36 794 -35 q 768 -40 778 -37 q 750 -42 758 -42 q 738 -43 742 -43 z "},"x":{"ha":713,"x_min":11,"x_max":689,"o":"m 333 875 q 334 858 340 865 q 319 857 328 850 q 278 892 299 874 q 229 917 257 911 q 181 917 206 922 q 133 900 156 911 q 116 902 117 892 q 131 922 115 913 q 154 932 142 929 q 178 938 167 935 q 226 942 201 943 q 269 929 250 940 q 306 905 289 918 q 333 875 322 892 m 665 150 q 638 108 657 126 q 593 78 618 89 q 541 66 568 68 q 490 75 514 64 q 443 117 464 89 q 393 205 413 158 q 346 294 374 251 q 297 218 322 256 q 243 146 272 181 q 201 106 224 125 q 151 79 179 86 q 116 78 135 75 q 78 90 97 82 q 44 109 60 97 q 21 136 29 121 q 13 163 14 149 q 17 192 11 178 q 39 225 24 211 q 69 253 54 239 q 120 298 94 275 q 169 344 146 321 q 220 399 196 371 q 260 461 244 428 q 206 533 233 497 q 150 601 179 568 q 131 621 144 607 q 101 651 117 635 q 74 681 86 667 q 57 703 61 696 q 56 757 42 728 q 77 786 61 771 q 113 814 93 801 q 153 835 132 826 q 189 846 174 843 q 243 840 218 850 q 272 823 258 833 q 297 800 286 813 q 367 715 336 760 q 429 625 397 669 q 469 717 454 669 q 506 811 485 765 q 527 848 515 831 q 557 872 539 865 q 622 869 588 885 q 672 826 656 854 q 685 792 682 811 q 686 754 689 774 q 671 693 683 722 q 642 636 658 664 q 589 563 618 597 q 528 497 560 529 q 542 480 532 493 q 562 452 551 467 q 581 424 572 438 q 593 406 590 411 q 635 332 617 369 q 664 254 654 294 q 672 202 671 229 q 665 150 674 175 m 617 -4 q 579 -19 599 -12 q 539 -24 560 -25 q 469 -8 504 -21 q 410 31 435 6 q 385 60 396 44 q 369 94 375 76 q 372 105 367 101 q 383 103 378 108 q 394 88 386 100 q 406 72 403 76 q 463 22 425 40 q 539 6 501 4 q 586 15 564 6 q 631 36 608 25 q 654 36 643 42 q 658 19 665 31 q 640 5 651 10 q 617 -4 628 0 z "},"y":{"ha":793,"x_min":17,"x_max":789,"o":"m 786 818 q 783 805 789 811 q 771 803 778 799 q 747 822 757 810 q 724 842 736 833 q 661 873 694 861 q 593 886 628 885 q 576 887 585 888 q 560 892 567 886 q 557 903 553 896 q 569 911 561 910 q 608 911 589 914 q 647 903 628 908 q 724 874 689 894 q 738 863 729 871 q 757 847 747 856 q 775 831 767 839 q 786 818 783 824 m 468 -133 q 430 -133 449 -136 q 392 -125 411 -129 q 317 -69 342 -112 q 306 22 293 -26 q 358 156 324 93 q 421 286 392 219 q 374 236 399 260 q 318 199 349 213 q 236 186 281 182 q 165 207 200 190 q 103 250 129 224 q 57 311 75 276 q 32 383 39 346 q 31 553 17 467 q 71 719 44 639 q 86 758 78 739 q 106 793 94 776 q 151 833 124 822 q 189 840 168 839 q 231 838 210 842 q 272 825 253 833 q 301 804 290 817 q 315 778 311 793 q 317 747 318 763 q 311 708 315 728 q 300 668 307 688 q 269 576 285 622 q 243 482 254 531 q 234 440 238 461 q 231 396 231 418 q 233 369 231 383 q 242 344 235 356 q 281 315 256 322 q 329 318 306 307 q 367 347 351 328 q 394 388 383 367 q 421 450 411 418 q 439 515 431 482 q 452 580 444 538 q 471 667 460 622 q 497 749 482 711 q 529 801 511 786 q 546 810 536 808 q 567 813 556 813 q 590 809 574 813 q 624 801 607 806 q 658 792 642 797 q 682 785 675 788 q 706 769 694 778 q 724 747 718 760 q 735 688 736 719 q 729 626 733 657 q 717 563 724 594 q 701 500 710 532 q 662 365 682 432 q 625 231 642 299 q 610 172 621 215 q 588 79 600 128 q 563 -12 575 31 q 546 -71 551 -56 q 514 -115 533 -99 q 468 -133 496 -131 m 244 107 q 226 104 238 104 q 201 106 214 104 q 176 110 188 107 q 157 114 164 113 q 126 125 142 119 q 96 140 110 131 q 78 156 89 146 q 68 172 68 165 q 76 183 67 182 q 88 175 85 183 q 159 142 119 151 q 239 132 199 132 l 242 132 l 244 132 q 255 122 256 132 q 244 107 254 111 z "},"z":{"ha":750,"x_min":17,"x_max":743,"o":"m 740 711 q 731 703 738 704 q 719 708 724 701 q 685 761 703 735 q 644 807 668 788 q 569 847 613 836 q 544 851 563 849 q 507 858 526 854 q 469 864 488 861 q 444 867 451 867 q 432 867 440 867 q 421 871 424 868 q 418 878 418 874 q 424 886 418 883 q 438 888 428 888 q 458 888 447 888 q 478 886 468 888 q 493 885 489 885 q 567 876 529 882 q 636 850 604 869 q 687 807 665 833 q 728 753 708 781 q 739 733 735 744 q 740 711 743 722 m 465 65 q 325 50 394 58 q 185 42 256 42 q 138 44 161 42 q 93 54 115 46 q 53 83 67 64 q 44 138 40 110 q 71 202 51 172 q 114 257 90 232 q 190 328 150 296 q 269 394 229 360 q 317 441 294 417 q 364 490 340 465 q 258 487 311 489 q 151 490 204 485 q 105 499 128 493 q 63 521 82 506 q 22 581 33 542 q 19 624 17 599 q 31 674 22 649 q 52 721 39 699 q 81 756 65 743 q 145 784 108 778 q 218 793 182 790 q 362 797 290 797 q 506 786 433 797 q 554 778 529 783 q 601 760 579 772 q 652 700 635 738 q 663 622 669 663 q 647 572 660 596 q 619 525 635 547 q 571 465 597 493 q 517 410 544 438 q 462 354 489 382 q 410 296 435 326 q 402 287 407 293 q 392 273 397 281 q 382 258 386 265 q 376 247 378 251 q 374 242 376 244 q 432 251 394 246 q 510 258 469 256 q 585 257 550 260 q 639 243 621 254 q 660 222 654 232 q 675 178 674 203 q 669 129 676 153 q 660 105 667 117 q 643 86 654 93 q 608 76 632 79 q 556 70 583 72 q 503 67 529 68 q 465 65 478 67 z "},"{":{"ha":551,"x_min":21,"x_max":546,"o":"m 392 -28 q 329 -35 361 -35 q 267 -29 297 -35 q 213 -15 239 -25 q 168 14 188 -4 q 131 71 140 39 q 122 111 124 90 q 121 153 121 132 q 122 202 121 171 q 123 266 124 233 q 117 328 122 299 q 100 369 113 357 q 81 383 92 378 q 60 394 71 389 q 42 402 51 399 q 26 414 32 406 q 24 429 21 422 q 35 442 28 436 q 53 454 43 449 q 71 465 63 460 q 101 491 86 476 q 122 522 115 506 q 129 548 128 535 q 131 575 131 561 q 122 656 129 615 q 113 739 115 697 q 119 825 110 782 q 150 904 129 868 q 219 980 174 949 q 313 1021 264 1011 q 383 1031 347 1028 q 453 1026 418 1033 q 465 1027 456 1026 q 478 1028 475 1028 q 502 1026 490 1028 q 525 1017 514 1024 q 542 994 538 1008 q 543 966 546 981 q 531 940 540 951 q 507 924 521 928 q 473 922 490 919 q 439 925 456 924 q 408 926 424 926 q 381 918 393 925 q 361 893 368 910 q 351 856 354 876 q 349 814 349 835 q 351 778 350 793 q 362 668 357 724 q 351 560 367 613 q 331 520 344 539 q 300 488 318 501 q 270 468 286 476 q 238 453 254 460 q 275 436 256 446 q 314 409 296 425 q 340 371 332 393 q 358 292 356 333 q 363 210 361 250 q 364 181 363 199 q 368 146 365 164 q 376 112 371 128 q 388 89 381 96 q 408 82 396 82 q 433 86 419 82 q 458 97 446 90 q 481 107 471 103 q 517 107 503 117 q 533 79 531 97 q 527 41 536 61 q 496 10 518 21 q 444 -12 471 -3 q 392 -28 418 -21 z "},"}":{"ha":551,"x_min":7,"x_max":533,"o":"m 325 -19 q 267 -33 297 -29 q 208 -35 238 -36 q 167 -28 193 -33 q 115 -15 142 -24 q 66 4 89 -7 q 33 28 43 15 q 20 56 24 39 q 21 89 17 74 q 40 110 25 106 q 71 107 56 114 q 98 94 85 100 q 125 83 111 88 q 138 81 132 82 q 151 82 144 79 q 167 92 161 83 q 178 113 174 101 q 184 136 182 124 q 186 158 186 149 q 190 226 189 192 q 193 294 190 260 q 201 342 196 318 q 218 385 206 365 q 260 428 233 410 q 315 453 286 446 q 263 481 289 465 q 221 519 238 496 q 197 572 204 543 q 190 628 190 600 q 192 683 189 656 q 197 738 194 710 q 201 786 199 758 q 203 840 204 814 q 194 888 201 867 q 168 919 186 910 q 141 926 156 926 q 113 925 126 926 q 76 921 94 924 q 42 925 58 918 q 22 939 31 929 q 10 960 14 949 q 8 985 7 972 q 18 1008 10 999 q 33 1019 24 1015 q 55 1026 43 1024 q 78 1028 67 1028 q 97 1028 89 1029 q 110 1028 100 1026 q 124 1029 121 1029 q 239 1021 182 1033 q 332 981 290 1010 q 400 908 374 953 q 426 849 417 881 q 439 785 436 817 q 437 704 442 744 q 425 624 432 664 q 422 575 422 600 q 429 526 421 550 q 456 486 438 503 q 496 456 475 469 q 520 438 507 449 q 526 415 533 428 q 519 408 524 411 q 511 403 515 406 q 478 388 494 396 q 449 367 461 379 q 433 325 438 354 q 429 263 429 296 q 431 200 429 231 q 432 151 432 169 q 426 89 432 121 q 401 32 421 57 q 325 -19 372 -4 z "},"~":{"ha":717,"x_min":26,"x_max":692,"o":"m 547 263 q 513 260 531 258 q 481 265 496 261 q 406 294 442 276 q 338 333 371 311 q 326 340 335 335 q 308 352 317 346 q 290 363 299 358 q 278 369 281 368 q 259 379 268 375 q 239 383 250 383 q 217 376 228 383 q 174 332 192 358 q 131 288 157 306 q 82 278 111 275 q 39 300 53 282 q 29 322 32 310 q 28 346 26 335 q 47 419 32 383 q 86 485 63 456 q 108 510 96 499 q 135 531 119 522 q 215 553 171 550 q 296 538 260 557 q 360 498 329 521 q 419 451 392 475 q 455 433 431 442 q 493 426 479 424 q 522 443 510 429 q 556 489 542 464 q 592 533 571 514 q 642 551 613 553 q 683 522 671 549 q 690 481 692 503 q 685 440 688 460 q 674 401 682 419 q 657 363 667 382 q 633 325 646 343 q 603 292 621 307 q 547 263 578 269 z "}," ":{"ha":417,"x_min":0,"x_max":0,"o":""},"¢":{"ha":803,"x_min":35,"x_max":775,"o":"m 494 -44 q 463 -43 481 -44 q 431 -37 446 -42 q 403 -23 415 -32 q 386 -1 390 -14 q 382 33 379 14 q 388 68 385 51 q 317 98 351 81 q 253 140 282 115 q 208 188 228 161 q 175 246 189 215 q 145 342 153 292 q 139 443 138 393 q 166 595 142 519 q 239 731 190 671 q 304 792 267 765 q 385 828 342 818 q 379 870 382 849 q 379 913 376 892 q 403 960 382 943 q 432 974 415 969 q 467 979 449 979 q 501 974 485 979 q 529 957 517 968 q 542 938 538 950 q 550 915 547 926 q 552 867 553 892 q 549 817 551 842 q 626 776 589 801 q 689 715 663 750 q 719 660 707 690 q 734 599 732 631 q 727 540 736 568 q 696 492 718 513 q 649 469 676 475 q 596 467 622 463 q 560 476 578 469 q 529 496 542 482 q 514 522 518 507 q 506 551 510 536 q 493 588 500 569 q 472 618 486 606 q 440 631 457 632 q 407 618 422 629 q 378 588 392 607 q 354 550 364 569 q 339 504 343 528 q 333 457 335 481 q 334 412 332 435 q 344 368 336 389 q 364 340 351 353 q 393 322 376 328 q 442 312 417 313 q 490 318 467 311 q 558 341 525 328 q 626 364 592 354 q 657 370 642 367 q 688 371 672 374 q 710 364 699 369 q 728 351 721 358 q 768 265 761 315 q 751 169 775 214 q 715 129 738 146 q 668 100 692 113 q 619 79 644 88 q 569 64 594 71 q 569 31 569 47 q 563 -3 568 14 q 540 -32 556 -22 q 517 -41 529 -39 q 494 -44 506 -43 m 178 90 q 183 76 183 83 q 177 64 182 68 q 165 60 172 60 q 150 67 157 60 q 67 206 96 125 q 36 365 39 286 q 42 478 35 422 q 61 589 49 533 q 64 598 63 593 q 69 606 65 603 q 83 605 76 610 q 88 593 90 600 q 78 543 81 568 q 72 494 75 518 q 67 369 65 432 q 88 247 69 307 q 124 165 101 204 q 178 90 147 125 z "},"£":{"ha":788,"x_min":26,"x_max":760,"o":"m 732 746 q 717 736 729 732 q 703 754 706 740 q 697 785 700 769 q 688 817 693 801 q 631 904 668 869 q 572 947 604 929 q 503 968 539 964 q 490 972 499 969 q 479 976 482 974 q 478 985 475 981 q 489 990 482 990 q 547 984 518 992 q 600 963 575 976 q 661 913 635 943 q 704 849 688 883 q 713 827 707 842 q 722 797 718 813 q 730 767 726 782 q 732 746 733 753 m 679 4 q 574 -19 628 -19 q 484 -12 529 -21 q 394 8 439 -4 q 357 18 375 13 q 322 33 339 24 q 244 -3 289 6 q 160 0 204 -10 q 85 38 117 10 q 38 97 54 61 q 28 136 31 115 q 32 176 26 157 q 58 215 39 200 q 97 235 74 228 q 147 242 121 242 q 198 239 174 243 q 240 225 222 235 q 231 303 238 264 q 206 376 225 343 q 185 376 199 376 q 154 377 171 376 q 123 379 138 378 q 103 383 108 381 q 76 419 79 393 q 92 463 72 444 q 127 477 106 476 q 168 478 149 478 q 147 543 154 510 q 135 611 139 576 q 134 683 131 647 q 149 754 138 719 q 192 833 160 797 q 265 888 225 868 q 366 920 313 911 q 472 922 419 929 q 524 907 499 918 q 572 878 550 896 q 610 838 593 860 q 635 790 626 815 q 651 709 649 751 q 639 628 653 667 q 600 581 628 596 q 540 578 572 565 q 521 592 529 583 q 510 613 513 601 q 511 640 507 626 q 518 668 515 654 q 524 703 522 683 q 522 740 525 722 q 511 772 519 757 q 489 793 503 786 q 454 799 474 800 q 419 788 435 797 q 386 734 394 769 q 378 658 378 699 q 383 575 378 617 q 394 504 389 533 q 396 497 396 501 q 399 493 396 493 q 432 492 407 493 q 485 491 457 492 q 538 490 513 490 q 572 488 564 489 q 596 472 588 485 q 609 433 607 457 q 600 393 611 408 q 565 373 589 379 q 513 366 542 367 q 458 367 485 365 q 413 368 431 368 q 421 281 419 325 q 413 196 422 238 q 500 175 454 181 q 577 174 538 171 q 653 189 617 178 q 679 195 665 192 q 706 194 693 199 q 747 158 733 188 q 757 100 760 128 q 730 43 753 68 q 679 4 707 18 m 147 106 q 183 96 161 93 q 219 110 204 99 q 229 117 225 113 q 238 128 233 122 q 204 138 228 132 q 169 142 181 144 q 145 128 154 139 q 147 106 136 117 z "},"¤":{"ha":613,"x_min":38,"x_max":575,"o":"m 432 792 q 431 772 438 781 q 414 768 425 764 q 408 771 411 769 q 400 774 404 772 q 355 785 378 782 q 308 789 332 789 q 289 788 301 789 q 263 785 276 788 q 239 780 250 783 q 222 772 228 776 q 213 769 218 768 q 206 774 208 771 q 203 782 203 778 q 207 790 203 786 q 213 796 210 793 q 219 800 215 799 q 297 821 256 818 q 375 814 338 824 q 406 806 386 811 q 432 792 426 801 m 156 131 q 113 133 139 124 q 72 156 86 143 q 54 181 60 168 q 56 211 47 197 q 76 242 63 228 q 100 271 89 256 q 75 310 85 289 q 58 353 65 331 q 44 491 38 418 q 86 622 51 564 q 67 642 76 632 q 51 665 58 653 q 50 688 46 678 q 72 717 53 701 q 104 739 90 733 q 125 746 114 743 q 146 743 136 749 q 164 728 157 738 q 178 708 171 718 l 179 708 q 243 728 208 722 q 313 733 278 735 q 382 719 349 731 q 443 690 415 708 q 454 710 449 700 q 467 726 460 719 q 517 734 490 747 q 564 696 544 721 q 572 681 568 689 q 574 665 575 674 q 567 647 574 658 q 553 625 561 636 q 536 603 544 614 q 524 588 528 593 q 545 482 543 538 q 535 374 547 426 q 521 326 529 350 q 499 281 513 301 q 510 267 503 276 q 526 249 518 258 q 542 229 535 239 q 550 214 549 219 q 548 193 553 204 q 536 175 543 182 q 475 144 513 149 q 451 145 464 142 q 432 157 439 149 q 418 181 428 163 q 406 204 408 199 q 304 183 358 185 q 201 199 250 182 q 183 160 197 185 q 156 131 169 136 m 308 336 q 349 342 331 333 q 382 369 368 351 q 405 408 396 386 q 418 451 414 429 q 421 499 422 475 q 408 543 419 522 q 346 594 388 582 q 319 599 333 599 q 293 592 304 599 q 267 569 278 583 q 250 539 257 554 q 233 436 229 490 q 241 401 236 418 q 257 368 246 383 q 279 347 265 356 q 308 336 293 339 z "},"¥":{"ha":814,"x_min":13,"x_max":782,"o":"m 467 907 q 458 903 464 901 q 451 911 451 904 q 456 933 450 922 q 467 956 461 944 q 493 998 478 978 q 529 1032 508 1018 q 607 1065 564 1057 q 722 1061 665 1076 q 734 1049 733 1058 q 724 1036 735 1039 q 699 1036 717 1033 q 674 1039 681 1039 q 633 1041 654 1042 q 593 1035 613 1040 q 560 1022 576 1029 q 531 1003 543 1015 q 494 958 508 983 q 467 907 481 933 m 499 8 q 444 -9 474 -6 q 386 -7 414 -12 q 340 12 363 -1 q 306 46 318 25 q 294 106 290 72 q 304 168 297 139 q 315 210 310 189 q 326 253 321 231 q 296 251 315 251 q 256 250 276 250 q 216 253 235 250 q 189 264 197 257 q 175 285 178 272 q 175 312 172 299 q 186 335 178 325 q 208 350 194 346 q 238 353 217 351 q 282 354 258 354 q 326 353 306 354 q 357 350 347 351 q 362 367 360 358 q 367 382 364 375 q 307 378 338 376 q 249 389 276 379 q 199 419 221 399 q 163 464 176 439 q 136 518 147 490 q 117 575 125 546 q 100 634 108 604 q 82 692 92 664 q 53 763 69 728 q 22 832 38 797 q 15 856 17 843 q 15 882 13 869 q 28 909 18 897 q 50 931 39 921 q 92 955 67 944 q 143 970 117 965 q 194 974 169 975 q 238 961 219 972 q 279 912 265 943 q 300 849 293 881 q 310 795 304 836 q 324 708 317 754 q 336 620 331 661 q 344 565 342 579 q 356 524 347 547 q 385 500 365 501 q 409 520 400 500 q 424 556 418 540 q 472 701 449 628 q 525 846 494 775 q 551 901 536 874 q 590 946 567 928 q 632 963 608 958 q 679 963 656 967 q 724 947 703 958 q 761 919 746 936 q 774 897 769 910 q 779 872 778 885 q 777 825 782 849 q 765 778 772 801 q 742 710 756 743 q 715 643 728 676 q 663 497 688 571 q 618 349 638 424 q 669 351 643 351 q 718 339 696 350 q 744 304 738 329 q 739 260 750 279 q 713 240 731 246 q 673 232 694 233 q 630 232 651 231 q 592 236 608 233 q 583 197 589 225 q 568 139 576 169 q 551 81 560 108 q 538 44 543 54 q 499 8 524 22 z "},"­":{"ha":0,"x_min":0,"x_max":0,"o":""},"±":{"ha":654,"x_min":32,"x_max":624,"o":"m 390 315 q 338 294 368 297 q 279 297 307 290 q 240 318 254 304 q 224 344 229 329 q 218 375 219 360 q 219 401 218 382 q 221 440 219 419 q 224 479 222 461 q 226 504 225 497 q 164 504 194 507 q 101 506 133 501 q 81 509 90 507 q 63 517 71 511 q 39 546 46 526 q 34 585 32 565 q 46 622 36 604 q 74 646 56 639 q 108 652 90 651 q 145 651 126 653 q 182 647 164 649 q 218 650 200 646 q 210 728 213 689 q 214 806 207 767 q 222 831 217 818 q 239 851 228 843 q 268 865 250 860 q 306 871 286 869 q 344 869 325 872 q 378 861 364 867 q 414 826 403 850 q 424 790 422 810 q 425 751 426 771 q 423 704 425 728 q 421 657 421 681 q 460 658 435 658 q 513 657 486 658 q 564 651 540 656 q 599 638 588 646 q 618 613 611 629 q 623 579 624 597 q 617 544 622 561 q 603 522 611 533 q 583 504 594 511 q 549 499 572 500 q 499 499 525 497 q 448 501 472 500 q 413 504 424 503 q 419 444 417 474 q 419 386 422 415 q 412 347 418 367 q 390 315 406 328 m 510 -3 q 461 -3 493 -3 q 389 -4 429 -4 q 305 -3 349 -4 q 222 -1 261 -3 q 150 3 182 1 q 103 10 118 6 q 74 21 88 13 q 53 43 61 29 q 36 98 38 67 q 49 153 35 129 q 89 188 61 176 q 129 198 108 196 q 171 199 150 200 q 196 197 176 199 q 238 195 215 196 q 279 194 260 194 q 306 193 299 193 q 344 194 325 193 q 383 194 364 196 q 415 194 392 194 q 463 192 438 193 q 512 190 489 190 q 543 188 535 189 q 556 185 550 186 q 567 181 561 183 q 590 158 582 174 q 601 128 597 143 q 606 79 607 104 q 592 35 606 54 q 556 8 579 15 q 510 -3 532 0 z "},"×":{"ha":546,"x_min":33,"x_max":515,"o":"m 439 164 q 396 158 415 154 q 366 169 381 161 q 340 189 351 178 q 306 217 322 203 q 274 247 289 232 q 253 229 267 242 q 223 203 239 217 q 192 179 207 190 q 169 165 178 168 q 117 160 142 154 q 79 184 96 167 q 51 221 63 201 q 38 251 43 235 q 39 283 33 268 q 54 306 42 292 q 82 335 67 321 q 111 363 97 350 q 132 383 125 376 q 98 417 115 400 q 65 451 81 433 q 47 477 56 464 q 36 506 39 490 q 37 534 33 519 q 47 560 40 549 q 73 593 58 578 q 107 615 88 608 q 133 619 119 619 q 157 615 146 618 q 191 597 176 608 q 219 574 206 586 q 230 564 222 571 q 247 548 238 557 q 263 531 256 539 q 274 521 271 524 q 317 565 296 543 q 364 603 338 588 q 399 618 379 614 q 439 615 419 622 q 492 574 469 606 q 511 510 515 542 q 495 471 508 489 q 468 438 482 453 q 441 410 454 424 q 415 383 428 397 q 434 365 421 378 q 462 337 447 351 q 489 308 476 322 q 506 288 501 294 q 508 255 513 272 q 496 222 504 238 q 472 188 485 204 q 439 164 458 172 z "},"÷":{"ha":608,"x_min":18,"x_max":589,"o":"m 369 561 q 310 544 346 544 q 251 563 275 544 q 228 597 232 575 q 223 626 225 611 q 226 653 221 640 q 289 700 246 693 q 371 688 332 707 q 380 681 376 685 q 386 672 383 676 q 392 654 390 665 q 393 631 393 643 q 392 606 393 618 q 389 588 390 594 q 369 561 382 572 m 492 289 q 410 287 468 288 q 288 288 353 286 q 166 292 224 289 q 85 300 108 294 q 56 312 69 303 q 36 333 43 321 q 19 388 21 357 q 32 444 18 419 q 72 479 44 468 q 113 488 92 486 q 153 489 133 490 q 179 488 160 489 q 221 487 199 488 q 262 485 243 486 q 288 483 281 483 q 326 485 307 483 q 365 485 346 486 q 397 484 374 485 q 446 482 419 483 q 495 480 472 481 q 526 479 518 479 q 539 476 533 478 q 550 472 544 475 q 573 449 565 465 q 583 418 581 433 q 588 369 589 394 q 575 325 588 344 q 538 298 561 306 q 492 289 515 290 m 360 94 q 301 79 338 79 q 242 96 264 79 q 217 130 225 107 q 214 172 210 153 q 229 205 217 192 q 258 226 242 218 q 294 234 275 233 q 333 231 314 235 q 358 222 346 228 q 376 206 369 217 q 382 188 381 199 q 383 164 383 176 q 382 140 383 151 q 379 121 381 128 q 360 94 372 106 z "},"‘":{"ha":242,"x_min":28,"x_max":214,"o":"m 151 699 q 109 687 135 686 q 68 703 83 688 q 54 731 60 711 q 46 774 49 751 q 42 819 43 797 q 40 853 40 840 q 33 910 38 881 q 39 967 28 939 q 52 985 43 978 q 72 997 61 993 q 110 1004 90 1004 q 150 1001 131 1004 q 207 954 194 994 q 212 912 214 933 q 207 868 210 890 q 200 828 204 853 q 189 778 196 804 q 173 729 182 751 q 151 699 164 707 z "},"’":{"ha":242,"x_min":28,"x_max":214,"o":"m 151 699 q 109 687 135 686 q 68 703 83 688 q 54 731 60 711 q 46 774 49 751 q 42 819 43 797 q 40 853 40 840 q 33 910 38 881 q 39 967 28 939 q 52 985 43 978 q 72 997 61 993 q 110 1004 90 1004 q 150 1001 131 1004 q 207 954 194 994 q 212 912 214 933 q 207 868 210 890 q 200 828 204 853 q 189 778 196 804 q 173 729 182 751 q 151 699 164 707 z "},"“":{"ha":465,"x_min":28,"x_max":438,"o":"m 156 697 q 112 683 140 682 q 68 699 83 683 q 54 726 60 707 q 46 769 49 746 q 42 813 43 792 q 40 847 40 835 q 33 906 38 876 q 39 961 28 935 q 72 992 47 983 q 101 998 85 996 q 135 998 118 1000 q 168 991 153 996 q 192 976 183 986 q 209 940 206 961 q 211 899 213 918 q 206 852 210 882 q 194 792 201 822 q 178 735 188 761 q 156 697 168 708 m 375 683 q 333 672 358 671 q 292 688 307 674 q 278 716 283 696 q 269 759 272 736 q 265 803 267 782 q 264 838 264 825 q 258 881 261 860 q 256 926 254 903 q 264 954 257 940 q 282 975 271 968 q 326 988 301 988 q 374 986 351 989 q 431 939 418 979 q 435 897 438 918 q 431 853 433 875 q 424 813 428 838 q 413 763 419 789 q 397 714 406 736 q 375 683 388 692 z "},"”":{"ha":465,"x_min":28,"x_max":438,"o":"m 156 697 q 112 683 140 682 q 68 699 83 683 q 54 726 60 707 q 46 769 49 746 q 42 813 43 792 q 40 847 40 835 q 33 906 38 876 q 39 961 28 935 q 72 992 47 983 q 101 998 85 996 q 135 998 118 1000 q 168 991 153 996 q 192 976 183 986 q 209 940 206 961 q 211 899 213 918 q 206 852 210 882 q 194 792 201 822 q 178 735 188 761 q 156 697 168 708 m 375 683 q 333 672 358 671 q 292 688 307 674 q 278 716 283 696 q 269 759 272 736 q 265 803 267 782 q 264 838 264 825 q 258 881 261 860 q 256 926 254 903 q 264 954 257 940 q 282 975 271 968 q 326 988 301 988 q 374 986 351 989 q 431 939 418 979 q 435 897 438 918 q 431 853 433 875 q 424 813 428 838 q 413 763 419 789 q 397 714 406 736 q 375 683 388 692 z "},"€":{"ha":842,"x_min":25,"x_max":808,"o":"m 168 839 q 153 837 161 832 q 149 851 144 842 q 215 938 172 900 q 307 992 257 975 q 321 995 311 993 q 342 999 331 997 q 363 1003 353 1001 q 376 1004 372 1004 q 389 993 388 1003 q 381 981 390 983 q 359 978 369 978 q 338 976 349 979 q 260 938 297 967 q 172 844 206 899 q 168 839 171 842 m 626 51 q 449 28 540 17 q 283 97 357 40 q 195 197 231 138 q 144 321 160 257 q 104 317 125 318 q 65 326 83 315 q 43 364 49 338 q 43 410 38 390 q 64 438 47 428 q 94 444 78 444 q 126 442 111 444 q 124 473 125 457 q 124 504 124 489 q 93 506 108 504 q 64 513 78 507 q 46 523 54 517 q 33 538 38 529 q 27 582 25 556 q 42 624 29 608 q 85 639 56 638 q 133 635 114 640 q 153 713 140 675 q 188 783 165 751 q 292 883 228 843 q 428 935 357 924 q 505 939 465 942 q 581 924 544 936 q 637 897 610 913 q 686 858 664 881 q 723 815 706 839 q 747 764 740 792 q 753 714 753 740 q 747 664 754 688 q 744 650 746 657 q 738 638 743 643 q 699 619 722 619 q 663 639 675 619 q 655 668 654 651 q 654 700 656 685 q 646 761 654 732 q 631 790 640 776 q 608 811 622 804 q 576 818 593 819 q 542 809 560 817 q 510 790 525 801 q 485 765 494 778 q 447 696 460 735 q 426 617 433 657 q 481 622 454 619 q 536 622 508 624 q 576 618 556 622 q 610 599 597 614 q 625 554 626 581 q 607 513 624 528 q 577 499 594 501 q 543 496 560 496 q 480 500 511 497 q 417 507 449 503 l 417 449 q 448 451 425 449 q 496 456 471 454 q 544 460 521 458 q 575 460 567 461 q 592 456 583 458 q 607 446 600 453 q 627 399 626 428 q 611 353 628 371 q 588 339 601 343 q 561 333 575 335 q 496 333 529 329 q 429 335 463 336 q 443 274 435 304 q 467 217 451 244 q 500 171 479 193 q 547 142 521 149 q 625 153 588 133 q 658 189 649 167 q 677 260 675 222 q 693 335 679 299 q 703 351 697 343 q 717 367 708 360 q 747 377 731 376 q 776 371 763 378 q 799 351 790 364 q 808 319 808 338 q 802 267 807 293 q 790 218 797 242 q 775 181 785 199 q 753 147 765 163 q 696 91 729 115 q 626 51 663 67 m 631 -39 q 569 -65 603 -56 q 503 -75 536 -74 q 434 -67 468 -75 q 367 -47 400 -58 q 313 -14 338 -35 q 312 -1 306 -8 q 325 0 318 7 q 339 -8 329 -3 q 360 -18 349 -12 q 381 -27 371 -24 q 397 -32 392 -31 q 448 -44 422 -39 q 501 -47 474 -49 q 617 -14 561 -44 q 633 -3 625 -8 q 651 3 642 1 q 662 -4 658 3 q 661 -17 665 -11 q 647 -28 654 -24 q 631 -39 639 -33 z "},"™":{"ha":950,"x_min":15,"x_max":915,"o":"m 243 540 q 190 538 221 532 q 146 563 160 543 q 138 592 139 572 q 139 633 138 611 q 143 676 140 656 q 146 707 146 696 q 147 744 146 717 q 147 801 147 771 q 147 859 147 832 q 146 896 147 886 q 144 900 146 900 q 127 899 140 900 q 100 897 114 897 q 73 895 86 896 q 56 894 60 894 q 24 916 33 896 q 21 958 15 936 q 31 975 24 968 q 42 979 35 978 q 60 981 50 981 q 78 982 69 982 q 92 982 88 982 q 139 983 115 982 q 186 985 163 985 q 236 984 211 985 q 288 985 261 983 q 307 985 294 985 q 333 985 319 986 q 357 983 346 985 q 374 975 368 981 q 385 940 388 960 q 365 908 382 919 q 319 894 344 896 q 271 893 294 892 q 271 888 268 893 q 271 879 274 882 l 271 878 q 272 875 271 876 q 278 837 274 865 q 286 776 282 808 q 293 715 290 744 q 296 676 296 686 q 297 632 297 654 q 289 589 296 610 q 243 540 278 553 m 883 567 q 847 548 869 551 q 803 547 824 544 q 781 554 792 549 q 763 569 769 560 q 756 601 756 585 q 758 632 756 617 q 763 678 760 649 q 767 739 765 707 q 766 799 768 771 q 754 840 764 828 q 747 849 751 844 q 738 851 742 853 q 719 829 725 849 q 711 799 714 810 q 706 767 708 790 q 699 717 703 743 q 692 667 696 690 q 685 636 689 644 q 671 621 681 626 q 650 614 661 615 q 644 615 649 614 q 638 614 639 615 q 610 620 624 611 q 593 642 597 629 q 587 672 590 650 q 581 717 583 693 q 575 763 578 742 q 571 793 572 785 q 562 824 568 804 q 546 851 556 844 q 535 851 540 854 q 526 842 529 847 q 515 794 517 826 q 515 726 513 763 q 520 656 517 689 q 524 604 524 622 q 522 583 524 593 q 513 564 519 572 q 493 552 506 556 q 467 547 481 549 q 440 548 454 546 q 417 554 426 550 q 386 585 396 563 q 377 620 379 601 q 372 658 375 639 q 367 773 365 714 q 397 882 369 832 q 426 919 408 903 q 464 947 443 936 q 508 959 485 957 q 553 951 531 961 q 588 923 574 942 q 611 883 603 904 q 631 823 624 854 q 640 760 638 792 q 649 816 643 788 q 665 872 654 844 q 686 914 672 893 q 719 946 700 935 q 767 959 743 960 q 815 947 792 958 q 856 917 838 936 q 888 872 875 897 q 913 767 911 824 q 908 657 915 710 q 902 609 906 633 q 883 567 899 585 z "},"−":{"ha":618,"x_min":24,"x_max":594,"o":"m 497 289 q 416 287 474 288 q 294 288 358 286 q 172 292 229 289 q 90 300 114 294 q 62 312 75 303 q 42 333 49 321 q 25 388 26 357 q 38 444 24 419 q 78 479 50 468 q 118 488 97 486 q 158 489 139 490 q 185 488 165 489 q 226 487 204 488 q 267 485 249 486 q 293 483 286 483 q 332 485 313 483 q 371 485 351 486 q 402 484 379 485 q 451 482 425 483 q 501 480 478 481 q 532 479 524 479 q 544 476 539 478 q 556 472 550 475 q 578 449 571 465 q 589 418 586 433 q 594 369 594 394 q 581 325 593 344 q 544 298 567 306 q 497 289 521 290 z "},"|":{"ha":372,"x_min":49,"x_max":313,"o":"m 222 -156 q 183 -165 206 -162 q 139 -165 161 -168 q 97 -154 117 -162 q 65 -132 76 -146 q 51 -103 54 -119 q 49 -72 49 -87 q 51 -24 49 -58 q 56 53 53 10 q 61 147 58 97 q 67 240 64 196 q 72 317 69 283 q 75 365 74 351 q 81 559 81 463 q 81 754 81 656 q 81 775 81 760 q 81 807 81 790 q 80 839 81 824 q 79 860 79 854 q 69 928 75 894 q 67 997 64 963 q 75 1028 68 1013 q 96 1051 82 1043 q 165 1071 124 1071 q 233 1050 206 1071 q 272 1006 257 1032 q 294 951 288 979 q 310 863 307 908 q 313 774 313 818 q 312 724 313 760 q 311 640 311 688 q 310 540 311 593 q 308 440 308 488 q 308 357 308 393 q 307 307 307 321 q 308 184 307 244 q 307 61 310 124 q 304 15 306 38 q 300 -32 303 -8 q 291 -74 297 -53 q 274 -112 285 -94 q 222 -156 254 -143 z "},"`":{"ha":324,"x_min":24,"x_max":299,"o":"m 297 725 q 292 693 299 707 q 272 671 285 679 q 242 660 258 663 q 208 663 225 657 q 172 683 188 668 q 142 714 157 699 q 81 788 108 749 q 38 872 53 828 q 26 919 29 894 q 33 963 24 943 q 62 994 43 982 q 100 1014 81 1007 q 138 1021 118 1021 q 172 1010 157 1021 q 195 984 188 1000 q 210 953 203 968 q 224 913 217 933 q 238 872 231 892 q 250 843 240 864 q 269 799 260 822 q 288 755 279 776 q 297 725 296 733 z "}}}
